<mxfile host="65bd71144e">
    <diagram id="HIP3nbAZw_EuaXWnEj3U" name="Page-1">
        <mxGraphModel dx="1326" dy="743" grid="1" gridSize="10" guides="1" tooltips="1" connect="1" arrows="1" fold="1" page="1" pageScale="1" pageWidth="850" pageHeight="1100" math="0" shadow="0">
            <root>
                <mxCell id="0"/>
                <mxCell id="1" parent="0"/>
                <mxCell id="7" value="http://ics2o.mths.ca" style="swimlane;whiteSpace=wrap;html=1;" parent="1" vertex="1">
                    <mxGeometry x="45" y="40" width="760" height="480" as="geometry"/>
                </mxCell>
                <mxCell id="8" value="check guess" style="whiteSpace=wrap;html=1;" parent="7" vertex="1">
                    <mxGeometry x="50" y="280" width="100" height="30" as="geometry"/>
                </mxCell>
                <mxCell id="9" value="number" style="whiteSpace=wrap;html=1;" parent="7" vertex="1">
                    <mxGeometry x="60" y="225" width="80" height="30" as="geometry"/>
                </mxCell>
                <mxCell id="10" value="pick a number between 1 &amp;amp; 6" style="text;html=1;align=center;verticalAlign=middle;resizable=0;points=[];autosize=1;strokeColor=none;fillColor=none;" parent="7" vertex="1">
                    <mxGeometry x="20" y="170" width="180" height="30" as="geometry"/>
                </mxCell>
                <mxCell id="15" value="" style="shape=image;verticalLabelPosition=bottom;labelBackgroundColor=default;verticalAlign=top;aspect=fixed;imageAspect=0;image=data:image/gif,R0lGODlhkAEsAffuAAABAAcAAAoDAgIGARIDBA4HBhkFCAgLBh4GAyMGBhMODA0QDCgICC0IBxgODjMHBxIUET0JCRUXFDkNDiIUFB8WFyoTFDQRERkaGBwdG0sQDykaGUsQFEQTEyUcHVMQER8gHiIkIisiI0McGzwfH0wbGzUjI2MWFiYoJSorKV8cHDMpKi0uLF0hIVgmJTEyMFEpKjowMUIvLzQ1M0wuLnIkJH4hIjY4Njw4N0A3Nzk7OHEsLHwsLWwxMUY8PT0/PFA6OWU0M0RAPl05OUBCQI4wMUVHRFVDQ1BFRktHRog3N0hKSEpMSU9LSoM9PUxOS1ZLTH1AQHVDQ3BFRU5PTV5LSmtJSVlPT1BST15UVGVSUlVXVFpWVZ1DQ5hJSGBbWltdWpNOTotRUWdcXYFVVHFcXHlaW2BiX2NkYm5jZGdoZqJbW2psaXRpanBrap5hYZNlZIhoaW5wbnNvboFra3dycXJ0cX1ycnp1dHV3dHh6d4R4ebFsbHt8eYx3d6pxcZ91dX1/fId8fIKEgZZ/f46Cg4mEg4aIhY+KiZWJioqNip2Jib2BgbWEhI6Qja2Hh5SPjpmOjpKUkZiTkZ2SkpSWk6iRkZaYlaGVlpmbmKWZmrCYmJyem8eVlc+Tk5+hnr6YmKqen6Oloqmko7qhoLCkpaynpqeppqqsqbWpqsKoqK2vrNelpK+xrruvr9CpqbO1sr6ys8uwr7e5tsK2trq8uca6uuOysdK6ucu+v8DCv+G9vsvFxMXHxOu8u9HFxtrDw8/KyMnMyM3PzNnMzc/RzuXLy/HJytjS0dLU0d3R0dXX1NzW1e3T0uPW19fa1t/a2dnc2d3f3Ond3eTf3fTc3ODi3+Ll4e/i4unk4uXn5Ofp5u3o5/vl5enr6PXo6fHs6uvu6vTv7u/x7v3w8Pfy8fH08Pr19PT38/j69/75+Pr8+f/8+/z++////////////////////////////////////////////////////////////////////////yH5BAkEAP8AIf8LTkVUU0NBUEUyLjADAQAAACwAAAAAkAEsAQAI/gD/CRxIsKDBgwgTKlzIsKHDhxAjSpxIsaLFixgzatzIsaPHjyBDihxJsqTJkyhTqlzJsqXLlzBjypxJs6bNmzhz6tzJs6fPn0CDCh1KtKjRo0iTKl3KtKnTp1CjSp1KtarVq1izat3KtavXr2DDih1LtqzZs2jTql3Ltq3bt3Djyp1Lt67du3jz6t3Lt6/fv4ADCx5MuLDhw4gTK17MuLHjx5AjS55MubLly5gza97MubPnz6BDix5NurTp06hTq17NurXr17Bjy55Nu7bt27hz697Nu7fv38CDCx9OvLjx48iTK1/OvLnz59CjS59Ovbr169iza9/Ovbv37+DD/osfT768+fPo06tfz769+/fw48ufT7++/fv48+vfz7+///8ABijggAQWaOCBCCao4IIMNujggxBGKOGEFFZo4YUYZqjhhhx26OGHIIYo4ogklmjiiSimqOKKLHIHwIswxijjjDTWaOONM7YYkowZgAEGGj76uMUWPp6hhhpgDPnDkkw26eSTTRIhpZQggBACCiik8IIORmxxQ446ahTjFp/oskw01qRpjTRstukmm8vEKeecdNZpJ53P5BnnM8XowgkYMYaZEYx99KJNOuwkquii7LTj6KOQRirppJROmmg77KTjzTCKwMiEoBe9KMcw6DBq6qmopqrqqqauE00l/jOgUQmoFgGgQy2lsqrrrrymmk4yiujBCa0VAaCINb0mqyyv6NTSRyBEECvRi7gua+21pz4TiA4ASBsRACkIsw625GKrzSAvegsRAEZEs2o32GBTTTfqsFrpvZWuug263arrEABbuHsqOc680sgfa/zRyS7VpIrvw/eiuk2n/frLEABnIGtqN7v8cUKMCDjRiDP1mgrxyZaaGk4l6Vp8ccamnmOLEzVq8Icxp6Ks86OnesNyxS4nhLHGiwLzBo6MNGzyzjqb6nPLQQsN86LibIIjAB/sUvKiTDfNqDeHQB31QRhfwyg0ZlwNACPdLN01xE6HDfTYBZXNKDAuqB2G/tJcvw3313LTjZDdi+Lygd7UuO13xF9LIrbgAxGuKDCHX7234otT6rTjc0P+j+SJOvPx1X/wrWjm+G7+uOdDM4rNH2p3Ug7mqEeqeueQAyywoue8MrqNYeBMe+08N7567gGbWk0jldP4gSptD088poxqE7jnBAGAxTOnOsPI7zE6QYrpfeeMuqnWHy84AEtwf2o1qoTxQQQAROAEI7lEv+zi6F+PvUDsegb1TFUOZ+yCFazYhTGqsbVrva1/6qNbAAeIKnVYsFx92xkEcbc+IiyDghjcFdPQR7H/Rc6DIAyhrjRYvRKa8HMoVOGi1FGOGjaQUV5blDZcaEIAxFCG/uVohixIwYhOsMIZ+sPhyUgYwbEB4AcflCE1VBEHDhAAAAiIQBhI0YwbXupvOuTh/54YxaUpDlXNsAT4YKSBRRjDi0tsYROjRsYUgnFR2diEBmxEgEUkTnq2kyMHJQhFOz7MVOr4BQxwFAFVzE6JqRPkCz9XSEhGclHgWITaSgdISDFxkE6sZAYvqahmpO1qThDeKPMlyRfW0ZKMW5QxmnejrJkvlora4RyD9spVslKWtLRRBH5xjk466pOT7OXp7hg6JajtA6r0paSQ6UpRLvOQjMoG7CznjFv+MpdixJ4yv4jNRZVDFsGckQY6kcRrao6aPbQmOUmpKGos4oo2/roZquiZKF2Cko7ybFQcZ2iMPwSARggIQy4eWS5/JvOH7uQnO8hhDEZ8QAAwIsAHFrFQFTrUlRCdZzkZVY1ddOIPKPXELxgow4/2MKQCRRmqzlGObmQDHOXwYkPDyTqYjlCGvHLpGEFQxogyE6iqEqo4iQrCB2KQhuC4aU5TNbFdugwAIEhGU516LXVkIxeb+EMc/rCJlUrMEVa1GABCoFVY/lRZ5eDFIhYJIwR8gBHGIIfT0PpPXrJ1q5lLljpyEYcaIeAPyrhdMv/q1umlMFHNIMSNGvCHaTAqHJxLJgraKs3pnaocqthjLWPRQMym1V8A2CxgHVs8km4TR39I/uLKTquu1HLWqI49lTFodjUxdFNR47gEbb1l29Wy9rG5SCeNdkCMRQV3uNIqbmM9a6rkqm0HvnCucPt61RTcVqSs1S1vceRb7UKXWABgwXfBS13XbjKJz+WuWl+w3pgeN4WgFa2NdnCLBo7jZ8m8wTK8edzuLSIBNnpAI9o5W/miNqDsrV0FjUEI5T6AEL9dVDh4mrsZ1Be3fmOVMTYhPxg9wAykiKaiqurg2gKgF+NC6rLE4YxYMIIRm8CFM8QhsUCcl1YvmkWuZLwsdZCDHDpdVDT6gIEW11YS2iCylDPVCzvI4QCT/NwWhoGoKSP1GqKQgySy/DljRSPGXg7h/jhgwQYwOILMMMpENIacZgd6QxdneBEY4PwiHUiiF9HYhje8sY1CG/rQiE60ohdd6EF7IxzhaLSjHS1ob1ijGKhgQ6CyDCMWnCEPfTiEIg5xiEGY+tSoTrWqUx2IVrv61akmtagVQeta03oQgciDGp6waU4DYBCKkEMI1EbsYhsbADcIxCHyTOaDEOHY0I42jZpN7Wpb+9rYzra2t83tbnv72+AOt7jHTe5ym/vc6E63utfN7na7+93wjre8503vetv73vjOt773ze9++/vfAA+4wAdO8IIb/OAIT7jCF87whjv84RCPuMQnTvGKW/ziGM+4xjfO8Y57/OMgD7nINUdO8pKb/OQoT7nKV87ylrv85TCPucxnTvOa2/zmOM+5znfO8577/OdAD7rQh070oht9PwEBACH5BAkEAP8ALAAAAACQASwBAAj+AP8JHEiwoMGDCBMqXMiwocOHECNKnEixosWLGDNq3Mixo8ePIEOKHEmypMmTKFOqXMmypcuXMGPKnEmzps2bOHPq3Mmzp8+fQIMKHUq0qNGjSJMqXcq0qdOnUKNKnUq1qtWrWLNq3cq1q9evYMOKHUu2rNmzaNOqXcu2rdu3cOPKnUu3rt27ePPq3cu3r9+/gAMLHky4sOHDiBMrXsy4sePHkCNLnky5suXLmDNr3sy5s+fPoEOLHk26tOnTqFOrXs26tevXsGPLnk27tu3buHPr3s27t+/fwIMLH068uPHjyJMrX868ufPn0KNLn069uvXr2LNr3869u/fv4MP+ix9Pvrz58+jTq1/Pvr379/Djy59Pv779+/jz69/Pv7///wAGKOCABBZo4IEIJqjgggw26OCDEEYo4YQUVmjhhRhmqOGGHHbo4YcghijiiCSWaOKJKAaISissilKJIiluBUAVlaiiizLRXHNNNMv0qMsplVQSY1QAyCBDBgBAMAYlsjCzTThQbrPNNdJEY2U0wqAiySBDHiUKJX4AAQAAExyhhR6a1PKMNuN4I80zzwwjpzJsjqONNMvo0sogVKDQZU+DnELMlL2QkogecgzCSS3CDLMMnM8Uo4sojgSSRyCKqEKnNjwKU8sqn2TiiB5/3hQCGIposgku1piDDjf+zhBTTDHPXOONm8PUoskhdGghJgtElBGoLnpyUsklmXyyIiyrBFJqTAAkAEQDACwwBiGkAPMNOtxCGY6r66wzjjCf6DEGDTQAoW4agRzShxxsnGHEvGeoYYceipzSyiXPsvRpIWIWCcQZg2iiCzPXmNMmp9FYw8067KyzjTCYHDLIIY44MsgZWFDxQpIzELGFHo5wIsonigQySCacqNFvSafo8sw2bubCSR6JisLoMMxI48wzy+QqSiSRrPowOtskU8spkvShRhU3DABACE+AEUglp8CiizDJBN3LKe4qwsbLIOmgh87EXBNOOuiM8w2ey0SjzZTKCK1IG2MccQH+EGVEMgutxdSSiR5g/BBCCD88oYYin8Ayiy7JwNmwNdbsOMwqh7ABBtkbPQBFFTI8cEQfpBDjDTrthLsOOumkszo2xIA9xpFG6nCEHI5gQokkh9ixheE/bCHHIaLA0gvX0lCu4zXWaDO3NtZIM4woanzMOUWZy0HGmAhcMEYbksCizDbmsN36Ou2wo/461siSSBxpjFFGHIoMwoYWVBiBggQvGLGFHfnSmjCe0bC5heNWU1qejuZmjWjUYhBjuh5EatGjWSjCDmeoVyBEoYthPGMazoteND4ojvSt7xvEWFrF7DCGLaRgTADQARjs4AhRtKIWxViGNBaIwCc5D3r+lAviNbRhuUosAAASbIgOVrGMcIxDGrnQxS9+EbkcvWkYukBFJAKhh0Jk4hfcYNs4rpGMWVwiD2DQQZJ0YIQz9KESq9BFLzyYPCJKSRtQutWtdCSNPvoxeUO0RjJEYQQkJnEhAHDEMsbBNnOEAx0Ks4akTnHBMbDgAQs4gh0sAbnAoUwOTGABBHRABTUoqhVbK0Y0AHlHbehRSrAMYQOvtMo+Vu4az4AFGEBwSERSoRbegJgJ0zENWERCDkAYAQluYKY8EM0RhegDG/QHABYsAQ2H4IQAn3HLuW3Dld6I5Q/Heacq0dJKttTRM2YhhwX0UiFjOkQy0qE+9amDGKT+sF8Z0jAISShCD2X4HQQGcIAUUAGbnFjFHJ+xQ1eOw1s9JKcCl9dHSEnuSoBsoC4CEcF3HmRMN4CFN+qpvm8sAxafkIQdyoAFImRgACiYwf8kcYrHqbJyUoLoOMbRSudNNIhBtJJFIYXR5DVQGJLoqEcLAsNKWIOk65jGMDLBhhuM6QXCW9kqatGLZOTIebfa6UO9dUAiLg+oaKWcUIdK1FomTxrkAoEhl1qQLZyBE9GoJ/t0kYnCMSFRjdNFDqXhTSfulKx6DOeU0srYoI6QrRetZfSSgYonzJWuA5FEJuapvnZIYxWDwBQnWjHHHD1pp+ZQWGoVtlNYtrKxsF3+K2QJSMs+JqMVZ5AAZgtyCVRIo57XAK0jSGvanXILkmzjVmoP21NZUu6P0AWqbGcrVHS+iZ0H2C1BeptXdoxjFoP4hC5yZNzjtq51x10uT785Tui614+OfdRsaSvfVfJoo0rV7iqSEa5iOCITupDGt8qHXtYlF5KuguQB2eu89743vvKlbo8kV6VlIDW/u81EL7wxDlgcohYCHsdxWUdiBK92HKxdcIMd7F618ijCEq6vOYUhChRcdreDgAVDM1GJYXgjwdwyHzrE8Y1sVIMZzMBGNsTx0IeG87kshq+LYQzZF8t4hJTFwo0xywbx9sIRvkXxiFlnDm4wAxiq6IT+mlWRC2VkAxxODAfzoMxix86XqD2aMAH3rDQ08FK7A6nEigZRC2swcszmyAYwSgGIDzzg0R8gwyJywQxuLGzO0XNwfO8Mpzzr+VFYnkUftoxZOSDLDq1olYFdlehcLOIDMIx1AOBgiySH45tz1vSUOQ00T8u3R6t8Ri8UgWHMamEQfTjDKqQx5lcB49WxjvYD4ICLbHjj1piOrp157Wv5di1uV+TEAUi9VA5o4QgHqMQzDq1cZpAC1tGO9gc2wYxr4zqIUnYxrwnY7Wck49v2nR4LyL1UIowpD8J45Hm/AQw6xPvhZMiFtb1BxNg+ltNW9vS/v03fVRQS0ANBwJj+ntCLta3uVbQowcPj/QFVCBjbjZ3ufDOe541z3ErJgMUZCO5RalUTFtcwMDqqQYoErFzapHAStjG9bYx3exk2v7m/a5GHYtOVCSIHACeYfV5obOLo0Y4AvZ90b+m+6Zxot9LToW7zCQf7y1an6xjGFIhimCNc6bjGJiIAdhh+IOlRqrjy+lhUP6J97VG/ebglwPN3CmJMaBCGiNeRDm7EAgZ9HxMPYqG2W5uVj1XKd6YNj/jEu/2Kp5hB43spCJHfYBbaQAflw9HwzAOAEMCgWTg//0fl/TTTnfZ14v99+mhcbgurP+QhhjCmT0jj7pD0+gn6bgVVKJ3iZn3rLZf+59Mh6miWQx0+8UFdJaXZIfmHbAPdizH5yj/b6CuHwSaQQTPP/7By3aQSfJlXcXNCSvzjx2/RoDQQhH4SJAgEAABosGEkVg7XYAuNAG+xFgFmsAnAgA15xF4ZlX3KAAy4QAu0AAzAAA3KI0JYBoA31yPJAHcGeD2CYFUzAHtCFw7WAAykAAg88AEfAAOSRgvEgIFtooH412DIgAub4AdmYAVOAAeLEAvAgDDMU2EomGf+poK9wAlyBXICIQhaAAAZsHVihmLjgA1n9oGqQAu4gAzWcFq7dyfRc0vSoAykQAcPEHZWYIEIkzy9BoA1x3HDcAqWpYUCMQY2NgjD8C3+YuVk24ANyaNkeHRtbUh4O6QjyEAKZnB0WhAKxPBWLyZ+GueHrcAFAyCI/zAGSwAAatALp0VWbXJtGZiBK7ZKzaMNzIALDgd2dBALyEB4exh1nlYMATgM7NSC11MGVrUEsBBiB5RYiKVYP0R4q7Q8ymAJdQh2EWAJm9hAvcZ235ZnwBiAy1ALHEWMZJMGHyMBm7UNQchertVToGdd3wcMcGB71OYM9rWN3faN3Qg0LEiKVgUAhghO7DVRBFldsjhE0kALVmB7dJAL0MCLpTd+E7YMvfAJIUCOZPMDcnUGvWAN9vZ5BKkja4VOs+gMsqBymUcHuPCQVYKP3taNKvj+KMtQDKigZaTIBC+0BL71kd/HWLJFks7jDKSAkn1HbSz5WHpmZRZFhTPZCmzgToJ4BueYjp7HdNJ1cbQFSHeikLa3CMBgeBaldrSFlZIzk1SXXaQ4A4U4DHNDcT15lUNFkvF4i2B3BNb3XAY5Qml3TtKQDLpAbBj5MltwiqnokdhnlTKXlZN4DcqwCUT5cBqwCCtpeBhlX1WiDP+GIwxleMNQCVJDimVgWUYAC9HAk45Flm1VR3eCC4RQjfGmAX4gC8qAl5VJeBRpC7IgC7YADAw1OcYnClZFinegBRKwAJ+QDGRnVrOEmqm5fchAC4QwfdFWBYRACzpEmZYJNLj+oAqLAAdlUAZ+sAkhyFBUMgytAAYZQIqlaHABSTO4lphxKVmZVoSh4AdRoAI1EAWAwGbKYEvmlJ3LIAuLUAVZBwAC8AF0kAojSDnPUAt28ALq2UKo2JEfWVEYh06yGD3OoAy4gJu0sJvMQIKcaF19FKCEwAErZwapQAwkGA26cAgzoJ5gAAYAgIwC5krRs29XQkD+yTzQAA3KoAw/+obQiKFWwpooenSEgAszVgkXSYpgwAYZoAOikAzXsFjMyVYvRmHa51b++Z872kfDQApVQH2q0JvkEpykKAeFdAjD0Dwm6HRUaF0k+kc7WpZX0guLUKAr9wCa8JV4sgqBCJr+lqUGtZAj+gefZelpkJKUaMdWwBYNymALdHl0BGAJgHpSNCqjO4cFqyA3UaioNPeSVAhZVNg1PKoMsnCJfTcBFmhbunB+6okFaJACKfAJbwo9/6mlT+dvG7d2woeqq6SqR5B5J1AKxhB6tXAIR6SedqB6h9ALk2iCWDmqKmh6wDorqEpAqloGKUkL5BkNvSAJzUqKbPADqAhi3wemVxKRw/d0swKMeSaptkAIfXeNvzCJWJIJEBCYL5MGVvUDrbAMIVSk1nqtU/iL8Tp+I7RoZbpyCeAH4Iqo+4oB/tovbYCuAPAJxdA8oap27pqwM7mwvwo0k7oIzBdvHJCgw7D+Q2rVC056sf2iZQApresKsk+Hgm0XNPGqrcnwjXHzDMxgC5tgBh8AfwigBYvgCi07ZwM4C3oQd7uFBmPCBuNVsHDTbTrri8PQs9ratfLam88ADK5gCYQACIBgCa6QC+TJPFZCY4Uks89CowAwmsvgsdYQfJ+4tcQHtl4rJ9pKflgmDLmAC7gwQG27I1gCCwWongJhcGMiCsXwfWu1t3zLs16bDHICtsTHo/blpUWaDMIAC45gPY4rEDYGAIcgDIQlQuHHt8TntcC4uSRbfLJYp/8mDLNwCoOgsacrEBMAeeNFm/8Huz2SuZrrt78Kao8VbOhkYb2gC6uQCYGAfFL+C3IwhAWwcLeJ6quXe7wk+7PhO6c8wm+RIrq1AAtMYwc0e72COCYhILkuW37fC776KL47C2qoCoyNogu1gAqXMAhg8DGx9rsfFU/CMDlwo7O+5rPEt7xu922zIgy6AAutQCmgFG0GDE9Vqwt325II64u/mL/7SEASfDwVDMB6sAVyVcAbzBBjMpqbOUJ9KJGnasOlynHFIAyeggqccAhqoLEw9MIQMSYHILkNI1TASqoT6W3gS8HqWwl6ELcuTMQRMSaKwLqu65IRppRJeby9UAv/ywkbo3pVbMUTMSZyoCacWGViGcE8C8VAYgdUPMRofBFjwgT79Vbsik7m+2L+Xau7PrwxBGzHd6wRY3IJrGtU7lVdXTMMYdwKTCMHkHvGh4zIAGAHsJAMGaVvPNK1vTALqJAJGzNwlnzJHBHDAJYMbzhLXlMLsyAKKlXH7ovKGQEAGJAHn9AL3Ci6ekLKYPBCp2zLIQEAL2AHK4MKswAL6isJlBxvxJwSAEAEGWMpagAGSyA1wxzNJgEAJJMylrXN3KwSVIAk43zO6JzO6rzO7NzO7vzO8BzP8jzP9FzP9nzP+JzP+rzP/NzP/vzPAB3QAj3QBF3QBn3QCJ3QCr3QDN3QDv3QEB3REj3RFF3RFn3RGJ3RGr3RHN3RHv3RIB3SIj3SJF3SJn3SKJ030iq90izd0i790jAd0zI90zRd0zZ90zid0zq90zzd0z7900Ad1EI91ERd1EZ91Eid1Eq91E0REAAh+QQJBAD/ACwAAAAAkAEsAQAI/gD/CRxIsKDBgwgTKlzIsKHDhxAjSpxIsaLFixgzatzIsaPHjyBDihxJsqTJkyhTqlzJsqXLlzBjypxJs6bNmzhz6tzJs6fPn0CDCh1KtKjRo0iTKl3KtKnTp1CjSp1KtarVq1izat3KtavXr2DDih1LtqzZs2jTql3Ltq3bt3Djyp1Lt67du3jz6t3Lt6/fv4ADCx5MuLDhw4gTK17MuLHjx5AjS55MubLly5gza97MubPnz6BDix5NurTp06hTq17NurXr17Bjy55Nu7bt27hz697Nu7fv38CDCx9OvLjx48iTK1/OvLnz59CjS59Ovbr169iza9/Ovbv37+DD/osfT768+fPo06tfz769+/fw48ufT7++/fv48+vfz7+///8ABijggAQWaOCBCCao4IIMNujggxBGKOGEFFZo4YUYZqjhhhwKFkggeWABAAAdqsVJLdFYo402w5wCxoglmrXMNuiwYyM77YSTjChbwBgjWMuY086NRLKTzjbCSPKDjz9q1Ys269x4TjngqFMkOtr0IgkRTDZZ1TXotNPOOdbgsgkhi6iCTZHsoGONLoqw0KWXTy0T5jriILOJGQiMCMAJuFjJJjrX6OKIDnPSmVQt1oR5DjKkfOGnnxHgcg6bN6ZjTS+HpJCookN9Isw2Q5bDix+TTkrINENimuk1/rUoggKJoBYljDXp3MiLGan6SYgygrpK5DrXaClirUE9WeON3GzSKwBDkEJNsMIWmU6xW9KKrE6wSLMskdxY0qefU1iijDitVuvqtb048uK2OEkjJKbnAEOIGWZYQosz3Khb5DmXsrkOkpJAoC28MNnZ6jncZAOOODeqA0422oQTsL/rYOMMMKqQIgsx5bDZjjWcpDDAwQirpMs167STDjfEkOKHGX6QAo6/rpLjjCqCDOEnATYEKnAvfeQhBxYpr2TNOO2oww0uiZgwqRXI4FxkO9moEgcBvRJgyc1XC+NIJpkMIkfSJxUTJjviEDNJBL1a0YzVmSpDyLN+qnLx/o3XnOIIJ6KIogjaJLUir41P89prAqT0S3c6wtCB94iEVMOmNajIYYcjn5zyySCEg5SJMNq0mo4tQTwbwSbZpIuzM4FMHsAiyhQ5TjGOyJnAFnocIskhaoTekTDXmEMkNaj22gYt2Ljubzq9wP2sFao4buPIq7AxKQpLgKGGHWgIr1Ev3qTjPDRjpDrFJufSnWkvH/Q6hrnUjtPLIBL4iQIXasjBBhhboAIGxGcRXXjLVd/YhBY0MIZF0EIZ43BfkbCxCStogAZTIIQqoEGtdkTjEy8aUQi2kIdDKEIRh8jDFuREQIoUz3lF4gYznGGNbexNXeooBzewAbEblSMb/s6gBjdCVqRw1CIPk8KCHQahCEc4QhKVOIQdkkCAFkYkGi1jhzrEkQ1mGCMbRCSSmKwmMWbYwhJ+qJkxcIaOYVTCCH6aARoC4btKXOISmaiEIwaBBhCgzIoI0cU2ovQyYFjCDC34gB8sJcEbZQMYi5hCqlalrmugAg1JlMMhngjFO5KtEpLIw5IAqZBPJMN47XgaIR6Qqk300H3lMIYlSjC9ubkqHLoYxMlGZAQ50FESwKyEMPGYxz326I+k/McwvDGkdTCDEj7oVQRicUN/cUMVVpicH6xHJHMUIxNLEuEcNwnMYA6TmJVQBBsygEwrXuIZuWLHOn6RvF5ZglXu/sua9J41BaGJMRqrUEMmyQnFckJxmJ+URB+Y0E4CBkIY30pGHJ71ANrBsFrqAEYLJmeGWFCLHeGYhS7jOM4n3hGUBj1nJjhRiUGAoU/J/McAWhFBG6HjE/xUxbQkyI1F4I0AfgDG3tCxjExwaUQHOEMfCHpSg5YToXlUhB1u0NDQYaEX6fqGTycVhEUMI4zu48bdekUHVWijSNrI3qSY4Ety3vESKHXqQT0JyoVWlXAp0MW30hGLNJygBXTYxDC4KcFysMIL0hsCIWLBwW6K7QB+SoFSmfpWuabUjpmAoktDcNekAUAPz0gXOqbhjGlow3iNLFI3jIELWQBjGmC7/pEHXbRWOQzCiZ18a1wtC9V0TrWzKRvRJayR2kyN4xrUwMY3PlotI8bOTz9gw1KdaMe3wtWyl0WnQreAgpgCYACi2EZqyTENW2ziDlbIFzCYy6Z0LOONfsqAUm/7xOqedLfYPScU96gGziZzRESoBWrpNg1V7CFVDVhENqo1MlRoz09Y0KQTHXHO+2LXqcPkpCMUIUrgBhcAaoCo1b5hL671apvC8kYtOuWnXgaCusK0b4wvjGFhchKUgxCRh+Hlp0Mk46JFmgYpUoc3S1SzTcPgBENHBIKSxvjJT6ZxjSdcUHX60bsAkAAnpKEuamwiAZOLgy2HFQ1UCNRPVJAw/pTXjF8a25jKoFSEXWP6jxFhoRVndZU5YgFmvMUhGGzyhi6eO6IXnOHFFGYzlKWc0gnjVhKXkMQgzvAp8flJDbMYsBidkQa8PSASzrBWMjixhEmBYbqKXjOjn9pERwdTEuqkKp2/G4JDDONbRFIGkVPVBlV8o0jXgIUcJmUENtz2oKme8aoP6uhHx3nOWAbADyoRWjZlY6wjikAcNrHTG6GjGIrw1IhQcOpNCvOTyV72QVvdbGBGehD93THC/PQEURC3SOowBinQtAlgEJYdmMOkn5Zg7PqSLY/pXrYw2d3uKv+WznUGAArQAItwYKoc4gDrjcaRS3FLW7oGP3iy/tt84YU329Wd3K685z3uQPQC19UiKieOCQD5opqY6E61uk1+cpTjON4Qh64jkhGlSsLCDkm0wybvyImmN/2+bN55Onve8DjrgUtBH/iWqzUOYRyCqiP6gRoC4e6VOp0TmbCuqhU+dar7PNKHOGbWF2DoVXgDU+79BM1DME5JkO0TgAd80w+uW2W7Gcpub3iV2eDfoB9gBkbIQyuuEc90mOMas1AEZEdEBaX73eyBD7zTyVb4w6858Sd/tSIC8YSVs1wHN3hCH06hi170QhezEEWOR8SCQz8R9IHXBNkwcXbS3zG/T1Y76lOf8kOcAaYQRwATwACGPFTiE4FbxSkk/nGGEEgADL1zBB5DzwlKJAISkEgEIiix0k+gPe3Ity4xL7F85tsR1nZAFMT/QQI0sMHYn7AKsFALsLAKh7AEYndbdsQJgCcKmoAJhEAHWhAEQBAEZUAHiDAJgpdQ2eVJB5dZ5VR/VHZQsMZ6rocweaAHdhAInAALuiAMtXAKbFBsCth+gcMJkCCBDxAAfoIAGlAGfjAJaMcJcIVSMeaBTld6wFR/T2VHUaQGnrJ//xAIfXBbrfCCtSAJYOB7ZMOAovAJmQAJc6ACeNMAZYAIK5V2a0ZMTQeGeUQJlZB21yUJideBsJYHRrAAUjgIg0BHmVALvSBSVFBCl9CGgZcI/nRAApMDAB1QB5TgfmqoUu2XCZTgCIlACIRgbmq4hMxnTtX1SYEABgwghf9wCIOwB4NwCrXQCv+jB3HIgA1ICX5wBIs4ImeYhvLXhSt1iXRQBlqgBWVQB4pACZCGUihnTm/1gZdwCGzwAicIL3owCHogB4pwCqdgB2egCIXYgICXCGXAg7WoBYmAi8mYhpQACXegBTIAjgDgA2VACOw3hxjmgQeXhI4Abfv3If/nd2qABoPQftgnCpxACLRYiwCgBZCQhnKoi5RACG4gA+MyKSSQBpBACfKIjMY3YX9HNi51ZftXhXYwBr5EfYFwCdwokIGgiLUoAGUwju/Hhu4H/gluQAOTcwR+MDby+In0pwh9eAeBQAiRcHAcpn9SeAiFkAZfgAZP8AR6IAkN+IWXcAesVIsTQAdj8371mAmYcAfRNDkPcAeJ4IRHSHqQEAhtoAU+QAJHoAV4QGEsFYrdRYqOoAdbQAREMANqMDaBA5VSaZA2+YhY2X6coAhlYGJlWAdhGYk4pwh4cARTOSIPUAV7MAnCxIyzQoqrtwUvwAAAoAN9cAl7KZB+0JWTcwFukJCQmJWySJqehphxaF1ppwh1gATPQgBlcAh3NJejRIqhKDUAsABgoAiAc4OQoAWL+ABaAI+pmZWO0JeLSAN4IAlol4yRdgdVMDlI8I93/uRSekiKeaAGOeAnL7A5wykKmEAHRyAAz3IBWuAHmGB2C5mGidBptXgE/2h8BzcIWhCRvQIEgmCRy8gGkEWK/4AHUDArI7IFgwCaxImefQaZ7kgI75maSJgJ89kAx5kG2iiHeARKd0CTk+OfAOoIdsBCBHoFNNBnNyAH0rmXOOgHbqAFUiAFwBgIFZkJFOqBcdicKvksCFAGLzadnnQJMmmYzwIFh4Cj9KcHJkqKSEACFoAA+cMEC/qFgfOA54eJ6cd+8Mmhx+eEgwAE7DgpCFAFeAAJeASbl6AI++mVZaAISkqiL0CgA2ECG/ADObACN4AGhwCLX+iG5XdwOVqE/scHaZKQCG2QA2MKAA8wBmeapoQam8ZZk3vgd58QoBBApwJBASLgA1uABTrABJ+Jo6EneoNnfIhncFHUBkNAAg3QADRwBO+IpqQ3lulUBur5LDSQBmNzqY4QCMeiqf8gAkKwBWfABHKUpIJ3doFZeDE2gh2aCINwB3NQB3fgB00UjzkJV4kwBz06KSuQBoLwmgG6AsI6ED+wBW0ABjPwA9SIo6dKeM76rK6GWXZkiYngCJgwf8KUUnjkCH6gBRg6KbtqCHGYCY4gRVTwjMLjA2BQB3JgBCnwBIGwgC+pdqdXdZiFbKjKW9yajjQwAiQABGypCAcraWywsOdKEA/b/gdnwAI6oAb/eKrz+mRU14Ty168h6GxpKq14cAd4IAiHcG6w1gdosJsrKxBg4Et0iQJMYH2FiKpshnpNaHh0eIxOGGlX+3mZdQhysAVRmLQEkQZ8GLE3AAaDAEVCumYM53YXdrMph1ksdXxyhgZYJ7YGMQiH0AdgoAM/YAfaeLE2K4KE62yghFkIt0dfG7Z4WxB0lEJGAAJYkLZRC3WFW7hPVV+Fegh6AAZI27gGsUmBoAY/MANsELioermYy4mdtGGjW2oMS4qmqEIosAV9sICkp7oiaFCP1kRStQVgB7oLkQeD0AekG7O+U4hXq7tUu7PAhEJ9MIOVJryOK41g/ksEegCnWsu8dRhMuHVCXsuu00u9BdGHaSADvTe0ecSJ3Kt4evS8nMsG4US+EHEHaOADEOCuFDaH7TuC3gu/KiRu9AsRZ7AFPhACEAAGL1aM7Mu8Tfi8fSi9sSu8W5ADCwAApqu+xujAmQvAXCAnE0y9UAACF2y7+7vBl9uET8STgSDBA3wRIMA1JqAG6su/q0uCsCZFHzy+L9wQIACOS6AHJ9zAzRtMWrt6anBUPZwRJkZuJcnAy9u9c5XDdsBdPLzED+EnN6B0cYjCcGvEzzu6SozFGjEpCmpSXuy+94dCVcxZIUzGBKHFbKDBO3uMKVe0aiAEVwzHEjEusjfE/uybXbBmvW7Mxx/RAQOwpzVMcncsZ0m8x4Y8ETogJ9hLYZsoyDypB90HyZE8ETMwABigwJZchEf4vH0gB2PcySGRPxk8f9alWZpcyKosEn6yBS+Gc5mVToEgB633xrPMEEwms+L3Vgkby5z8yxcxIjpgW622ehF7zMiMEWGHBnnQByoIBiAczSgxKSzwAzqAAdCszWWcKuJczuZ8zuiczuq8zuzczu78zvAcz/I8z/Rcz/Z8z/icz/q8z/zcz/78zwAd0AI90ARd0AZ90Aid0Aq90Azd0A790BAd0RI90RRd0RZ90Rid0Rq90Rzd0R790SAd0iI90iRd0iZ90iidK9IqvdIs3dIu/dIwHdMyPdM0XdM2fdM4ndM6vdM83dM+/dNAHdRCPdQlERAAIfkECQQA/wAsAAAAAJABLAEACP4A/wkcSLCgwYMIEypcyLChw4cQI0qcSLGixYsYM2rcyLGjx48gQ4ocSbKkyZMoU6pcybKly5cwY8qcSbOmzZs4c+rcybOnz59AgwodSrSo0aNIkypdyrSp06dQo0qdSrWq1atYs2rdyrWr169gw4odS7as2bNo06pdy7at27dw48qdS7eu3bt48+rdy7ev37+AAwseTLiw4cOIEytezLix48eQI0ueTLmy5cuYM2vezLmz58+gQ4seTbq06dOoU6tezbq169ewY8ueTbu27du4c+vezbu379/AgwsfTry48ePIkytfzry58+fQo0ufTr269evYs2vfzr279+/gw/6LH0++vPnz6NOrX8++vfv38OPLn0+/vv37+PPr38+/v///AAYo4IAEFmjggQgmqOCCDDbo4IMQRijhhBRWaOGFGLoEAAADbAhAhm/9MIgotdSCih4egrjWIbNYM0466ZgjDSxybKgiWp8kEw47PPZoTjKZYGHjjWPliE6PSLKzzja6KJIikV8dIsyRSSaJTjSwnDEklFvJocs4VYbZTjjCSPLDllxapcYsO4bpJjrSzGLHk2lSpUubPXbjjCysGDONmOMk84kRaNb5lDB4sgMOLoRYEcEDJyxijJvrWFPLIHQaylQtiVZDihUebigAI+K4yY45y6yiRqaaHnXKNf5IYrNJBKF6uAY3pirpzTCVLFBoq0Nlskw6PZ6Tyge1emgGNbnyiM41s6D4K7A+SWkOksRokayHceDaLDvtBCqKlh9SC5QcnCIpzibbekhKqd/y2M42wjiCwrTm2mTEKtu0g+Q0ZrQLQBzKxJtkOpbmwWq+NL0gijTrJOmMDe26IEs5Blf5YyZE4MvwS61YE7HEXmz7ASnZZOzmNr0oIoHHH6tUizX+VtnNHwnUaoUq1ahsajozrgpzzCXBck3NYRLzRwQNADAEIbiA43Oz5hRzScflEq3SJ8+M7KY61dyiCi7EgKPO1N+2c40uhyystUiSLIN0j2dXqc45aPdYDv442WTTjZvpRLOKkFm/LVIgw1DJozrTAJNLLj3nXSU4xqjyRxh/MJLL32F600oKbhuu0ZrX9jiNKnF88IAGdOBSt+SMk2IGsh7aoArnVUoTSKiie7QFv0gis8gDta7xJ+zODL+tDbu8jiQ6n4SKQu8cwaJN8IRsG8EtaZuavMAAdIJxle2sEuoLRlCf0SzbIFnNIu0mcAveprYzN5LgbEK8wHxIXWU65vNQBpiwBPVZZBU0Q5IsaGUy7rnJfvZz0y+mAD4AMMJ/SRpHJWo1AyPowIAT4ZrX2IENPwjMCs54IATvxyNuWKKCCCAF/ZK0jN3VKgUowAAIITKIYpSuR/7AYOC2NuGtJK2QhTzKRhwqaIZmhCkcp2BCshYAAQUcYIcNCcSdqqQKgcWBGSqMoJucQUGBBYAU40OSOWohNA9BAAUvCIEEMoDFhZxhFtdLkjpI0a4h5CKNRkQikpyxBfAt4nhIWocw5hSqFOiACD/QQQoyAII6IuR3RwsTLoToISvIAoNoy8YeBEYIYpCvGJgKVQZuQAQjLMEIP0ABCHRoyYKEbIRIogb8PPQAP+CiiHlLRy7KGKoIWMKJVXqGk0I1gBf8wJUENMINUBCCWhJEF9oQJI+ooQo/xGERtnCG8yQnjlz44QMEQEAQCCELbIRJGpJIliONwIQnMOGeP/5gQQiqaU1YtO9b6MAGN7gxQ8kh6RyNkwUwjMGNcfJIG58oQK1C8Mgl1JMK94SlPmlZR1RYw6A+Uwc3wFFQg3kDFWcKFQZYCc0nUIEK9pRmCjBARyx+IhpzA5sziDENeIGUR+VoBisYQQhLyCJy8TJHK6QYqgWw4JkWfYJLMRrTG6SAnyBURDJGeLo42OAERWAF7mDHzTAI8QOWSCFAa4GGWg0gBT8ggkXrKdWXupQJ+dwnCOXQix+ygxgmDNUJVFHSkBpjERpIVgQ2AcowpaMXjJTeI1sq1aliIaY/eAEGrkg9NrAJScEIbK38AEwxibFKzVhEzrZlBjDmahh9SP4WRVs518rWlQqXZYJMN0u9z/aoGdljLbPqB8EwVWMTtNNeMHIVjbbVCgQsra1tLXtXaepVdK34J4/Awcd2LSuMp0WSOoCRXO0Bw1TSyESyMDADqEZ1ure9LEbzylGiqWEYc0OGttplCUD26IhIBMcuT6jWKm1DFBColQTaawRo0hW+1NVtZkNQU6IdAlZ06+62OOA6064wTMoAFfgIUVoeeWMVM6jVAuBK23tCuLIvxS1mr6o1AEgiUeUohMAWkTLyHdFNxkiswCIgC4eioxaFZKYjW/zgF1MXozLFKsMAwAkw9Sgco2TtLxwKruKayhjlTdYi3HmwXrAhWSiYrP50nQxjGc93ozEDwCW8ocZ4JsuT5Ahjs0JMSlMasRg2DNVsHczm6b4UC1iA8g9mylmGBeKjSMqFCmoVh1w0dmo329YD3uDnJCkzWdCl7ZoLHd9E69aqUjYXAFZB5x6BQxVmiEAErLAJZvg3b8R4w/4AgIATdAKZSYJnslbpXheT2raHTjRMl6CDEExvymD40kGpYQxjOKPEsFNGJ94QBj9YAhhj7RFEBVAr9j6T0MdGNm4RLWMivAAFC/gYANBQC7/+NFd761thTYzSWkGgvUxOt7rXjejLLoEILAABBOSNLnuD9Bz7/pZSmeqhA7AY3QKfKsELnmhmJzzObJA2SP7LkQ1j4IJs4W7WkdvKzDQHPOMaL/jGTT2DFEggzmoQed6yoQo8JBZSixBnvB4bWQ8NetTpjjHH2U1wJrj7ZXH2UqIypo5mzKpWDyAEUl+bSkGr+b0ZV3qiO37PexYcryEoXL4AEPKpxyu1Yd7QB4rcrOaC+gbFhnnMxz7fGJggBj9gAha2gAV3C6DGUlfZcePuof7m6hrqLTeDl4D028YYpm1eN26XIIQYMIAAACCACYTwBEQ/YQYDeBvbddHqb6lDFicA3wVNpQ0EK5jBGM/85Xef7M0LgQUJ9tACcFD6y85g4arPeTi02aNsBFdgsw/TNlCs4osjXey2VbbY2f79+w6FCgE5WPcTbtA7ANjhTsxnhzFgUMFY7HuNYHDrknNvWabHWKpLP3sMgt/U8G9hC0bwAtRjfr2wfKaCDl0EPijkWL1QI7XicvTXezLWZsW3dEJwL2hGBFSwBVRwA6mmenxlgGFSDuwCPmhUJesAW7KlZsbWZuzWcZznAz6wBC7FcbjFBDGwLQcwA0uQaESQAiAEACGIROWgYdsSB8gQJsvgXF73ci5YcJz3A36XABugAz24cVRwgduSAkaAaEYwA/U1gIHQVyykDpvkXbgQJtFgZ6ECAizYZPWHaEwgBDhgAaAHAAFAAj6wfVloAcnCADOABFiwBDNQSVgEAP6BIAwOxw7Ox1q0UFgQBWosCF+9hwVzaAJ36CEMYIVjx30MUCsMIAOuxGxAaEkAcAjD4HDqYAxvQDsBcAKEAAy3Fg79pkozIFdw6ILr9nuZ6CEEEANXyHRCYAKhsmD0tASLZk3/cIrJoIrOMFSM0AngFibmMAsUtyEZMHkWdXl7Z2ov4H3+9gPBmGhPsASeRwAEYAE5QARIcHACqIzLqFWKI17dQFJvwlbl5kzopn2ViIwg0C4ZIARYSAVN4ANSiANyNYjuBo8DAQCKsAzzGC/tsEhupY+v1GD3pHkE91JMwAICwwICuXS4RQXv9VIIh3wMuYyOkAzEkjHPwIQe8v4COmAEROADOnCTPmAENZh/WYiBoCaOnShzS/cERsAC8ZaSDalVLfkt0rBBtcICOvADObACJJAAA5AAJCADNIiFg/gD/BcqBIADIZl/QalbL3BzSNmQDjks36INkRcqUJlZF1ArebiHyTZ2yOgrtSJ6QvCCZMluTFCIaVkQG+IIy4BLSbINp+CTG4ICN6ADmhUAyXIAQLmRJCkEnwiWICl4f8lu5agDzzaYBLEhkiANghQOsJBkRneTmtUuvziOyvYEPkACkhl6DBADQsCZNmiDutVsonkQG/IJplkl3gALZ9aGrJQDF1CbyfKaQalsRuADMUACfxd4UMCTG9mbH/74mwIRnNGgOIGzCuQiQAC3AuBjAUCJna4kg5Q3kjaYbC4FS2nHnQixIYEAC8PwDMKACoMgBLWSja2UAxsAPqPHlUyXfTOHfVQAS/dCnwnhIVgABkZwAMmyYK1EBDqwWtsiATEgeBoJn7v3nvBpT/mkdg5KmOCzSrRlBDFAbtuCAKMnopf3l7xnerrFAmh5og/aLhZKT7oVA73YSIEnopbHezWaW9JkiDqqEO3CAq1UTwQUA3r5fXClm7FpaEY6o0jqgUvqEAo2kxc1iFpYjCYwpDKHeaSmpVW1nV1anx6CAnJlWSQZSxYgARbwd7kpkmiapocmVfJpom2aEBiQM/4ZAKY2GIU/8AN5qqcCp3R+GkuAGqgJQaEHgALiOJCUtwSad6ZhN4F45ZGSKhEbQlGaOnM0uqd8KmM3mqOhChEbggEvIFemyqiN2qenxqat2hAA4FRWeJd6iqps5qi9WYq5ShHYGKua6pf2l3S2al3FihG7CpWaWnqWCawv1qdE+QPz+awXcaxxepf3V2jYyqCRyq0RsSG8SoP1F67XalckCqrmqhGNGas6KYHuiqWqWpSsGq/QCgAK4KQ6yQQwtay6t6W4yq8V0ZhRSU/2WqMzhrAfgY0p0EpTVXwharAQGxKjurACO6uPuq0ZG7EAkAH0GodMR64hOxIAUACkWsOkdlWiKUsSr1qyV/oDN4CSMauyAuBIlPeo05SzJ3Gsj4ShNge0KYGNKIACFWa0TNu0Tvu0UBu1Uju1VFu1Vnu1WJu1Wru1XNu1Xvu1YBu2Yju2ZFu2Znu2aJu2aru2bNu2bvu2cBu3cju3dFu3dnu3eJu3eru3fNu3fvu3gBu4gju4hFu4hnu4iJu4iru4jNu4jvu4kBu5kju5lFu5lnu5mJu5mru5nNu5nvu5oBu6oju6pFu6pnu6qJu6qru6rFsYAQEAIfkECQQA/wAsAAAAAJABLAEACP4A/wkcSLCgwYMIEypcyLChw4cQI0qcSLGixYsYM2rcyLGjx48gQ4ocSbKkyZMoU6pcybKly5cwY8qcSbOmzZs4c+rcybOnz59AgwodSrSo0aNIkypdyrSp06dQo0qdSrWq1atYs2rdyrWr169gw4odS7as2bNo06pdy7at27dw48qdS7eu3bt48+rdy7ev37+AAwseTLiw4cOIEytezLix48eQI0ueTLmy5cuYM2vezLmz58+gQ4seTbq06dOoU6tezbq169ewY8ueTbu27du4c+vezbu379/AgwsfTry48ePIkytfzry58+fQo0ufTr269evYs2vfzr279+/gw/6LH0++vPnz6NOrX8++vfv38OPLn0+/vv37+PPr38+/v///AAYo4IAEFmjggQgmqOCCDDbo4IMQRijhhBRWaOGFGGao4YYcdujhhy4BIKKIIKY14okjlkjWiEZs8QKKFPwwg4pfiXiILstEM0wrcqA4wxZnUEHjVkusIg067CRpTjSnoHGiEViAIYcaXAxpFQSnXNNOklyyE44wjvwwogRMoMGGHHnIcYaVUgXyTDpddrnONbPocQCLZ6ihhx169KHGmmwy9QIs48RpaDpMqjHiAmXm0UcgegQSiBxoBJpUHslsaaih5ghzCREjhgAGn4EMckipfbABhqVEAXBKOP6bxtrONnVCMOISaDg6iKmKDGKHFiiwGpQay2ga66aInsLGiVToGYgih/TKBhEBACBsT656s6k65ZxzLDvjCJMJFiOysIWupuqhBhADkHhtTmcIY2yS5zgjSyed/FLNsetoM8shGYx4AxqRmhqIqimk+G5NAHCyTZzVqBJGBCJ+sIgx36bzzCk9joiFs7sevMUNCi8ckxG9wMmlOKp8gCIAf2B8bDvhVrLEiChgYUepqKqhBQ0opACEyS8BoMg1cfKixcsiMtLNt+z0W+uIRNgxyKOP7skGGnKoSjRLRKTcZTeLMC2iEjJDjc4zqzgpYh6K9DpIII86KqkecnytUv4m2sTpSw1mAxABK+pAnSTNvUiCBhqZiMKJI6cWXOqpV9uht0lo6IIkl+p48kDgBHRSjuFczlmLKJ+0Asspkhwyt+QGP6rG5SNdIk2c5DQSOAAIeDI66VyiI00vs6iOCieVzE13wa7PbQegtHdkRC3m4K777rIUDnyXa9eCCiqtrPKJIoHc0UYapJbqfPQdDSLNvOycc73ZQ6S9PZfthDMMLKvAsrokfajCC3SABTk8alfrYx9GAIAKWMXpHK9wmdnisK/7GWod1iCe6laRCTqASkRUyJX6+tCHSimwInpYxjo2pQwnmC0CqvhdnNpBQ/gdCx3R0AUq/CeKQTBhRP4IwAIaJFUqvGHhhBJhoLY2RY5OaIBpi3DGpmpYQ+DlbxnFC18m7BCCETVgC3Lok6TywAYkQkQOxVDZpqbRCIqdyA/G0F6XqFjF7bXjGr343uoUgYaEiSgDW7BDHq4WiDzMzowLAYAoHvataXQiDEMYAh1I4QxvGYqONLQgO3Coi1X0TxR87KKIniCHEeZBD6tCJELAMIwVQk0d2IAGM6AhwxliUpOHC0cxZrHDWrRCEnbQAQBQMAa7GUxdW1BlQQDAN1xO8ZaxUkc3qpGNp8UqHdfwXi2W8QxdfCIQbUBTH0x1TDnkTZkCwYIwNsc5cGDDGdgghx2hGSd1VEMWjP74wx8YwQpsyEobvYDFM9CBTWFw0BHQ4lW0dpUqZRoNaWP7BSPCwAM6hEKKhsOkDdmhDmMsQoIiOkHMjqUNXfSiUOxohzeecbpMOAKhL42b80yIxC2IbWWqUMKJIvAHjM5Mo4bqKCEQ8DIEjHRT68Di7bpkDpauAnWZyIQkJPHSU80BeuzjBESTpA5cWOFlAliEP2UFVENVo2xmQ8AmxBGrbcCiF3HCYDKEoYvi8c9xnLiEJHrVBwWq4aZJmoYfzPYBWpC1rF1ShyxOsDsn2I97uqiFGtEhjE9EyxGnqMUwhFGLWcxidY7TayCi18wu4QIGgXPaMxHLJXCgNXAIcP6FJeOUjv1tThuwsMMMRPSjPBziEpx46zDq+llUOCIPS9AbE2rBTnaIYxO7C0M2VkvHNZphd02zJm2LUYtxrEMaotjCy1JAhCWMahCV4AQqdDFcUdiBCHo7xPu6VI4/7G4N070ka7nkjCBgF2ZsPZRBpbGMU4DBbAc4QApW8IMnbAENfVCEIwKBBRBYy2SDQimXuLGG3Zkhv3PU6EaNwYH//iHAcTIHLDLhzTMwbQESwAAGJACCFKAABTp4AhWwYAQUlOxafShWnLhBiN0RAhz63W+S+ovdB6hitl2SxiHA0AcjvCwDKGABC17wAi17eQYz+IEOdJACC1/4Wko0FP44oBu4TdTycCJe47J2VwNgbAods3jRyyCAghfcYMw6+IGYAS3oHxBB0Drw8cLYkMZNySIB9MOFHPGn5CSJ47Vm8wOIuxSNPjAtAyz4s6GJQAQjmNrUpCb1qX9wg4UB4BN9W2ORmWYJJCe5ulPkxRUCdwJcQDlJ6YCFH08UggEa2tRLSHaymbDqHxgh2USY0bvipca45uK6KCKEMqhLxW9xgxQyYNoHSFHBOEVDDy9DwQx0UOpnL4EJ8H7CE+BNhBy8QAQ5MAITfsCCdwGgErGO1TmA4YcnAmAIllDGr+GM629hQxXYHpEVSDGNTZljFXcidphLvWwmyJsKVJC3Ef5uEDAI6CDZOlgYE4RR7VhRAxeykAUxuHHYbpPuHMQghR/MEAdLAMPWhlpGx0YEgY27O9463jEVjOADUQIgBqTuN5oPsVXDqWPStmz49rjBdXBgnUvjOAWKBjBAjr9b3knHAsh9gIJqAWABOGD1wqjQi+Y6k+F13FQ5wJENcXzdcMOY84hAwO6jox3kasfCEmJA7DG/YGGlpW81qtENeVqRnl0ShzNY8Ycw/EEVPiXdODiBoqI7u+OHx4Lql/ADCZxo3a1+119bbgxSvMELfOhEM0hX6W7k4g9u5N0bcrHwKQ7jwCdiQeHf7fGPK50KPhj2MAUt9Ws5LE7B8EPwI/4AR6jFGXe5CAPTxECLN2/KG5dAkQRuwHGkO1/tS9CBrURk+pS/awu6qPY0CEGAl/mBGT+FefxlX2ZDB8Tgfb0gXsl3emeHdjqWeEuQAm4HACyQAz9gMo5QdYoFUiciADHEbTZHX6xgcGazVt+iDY6AIhjAfs/WfIendE/gAxgQKvkWe2gGC80FDoOVaZtGaUqWDQQYOHFQcdc0Cx80Ii9wei74gmoXgzMoABmQA4dmMmiQKV1CDUtjNlZAhFmndfzlQrtTP8diDYeAIoRXau6XdIg3bz6wAhmQAjhgBERgg0BWdexADOFGP6Hng16YJMYwBNhVArt3Z7WgZyJCdv5K6Hwgh3hYoGNM5wNC8AQjRzSHsERcQgzB9zJDsId4F4Jd8ofYxQGDaCjSEAhmyG4NCHLwxgQ7pnpqF3LLZgTV9y6KYIlJ0gyoZTZmwIUhJoC3WAbYZQXQgCyr0C4jcgAzgIZJ54Bo54ppRwWs9zV2YA1xMg0R9zKLAHR82IfskA2zFjiEQHOG0mkoEgI60IIgp2PMZmoe54qqt2NyqDcokH9dQg6W8ELZc2vceA4tEzgfkI9xgg6rUHrsd3Yht3Q+cAMr4ANGEHLuSAXMZn9EAwAZGCe/kIUo4gej2IvcuGQ7yDR/wItcInQoggKnp2OO2HQIgAAX4AOs6IogZ/4EF3g5M1ALDpQk4KAKR4AiViBp+ph3m3IOvwCGKLIGwLBw4yAK6leQLwmNbDciLfmA77hvsziRYHBSXQIOshAHLhABMEAIuGB+KeWLhkIOtrAGwfcBf7AL2tUlgYciLOBs7bh2PhYqS5B4asds0kY7AJAHtWCL6pANxgAMxjANf1dpQTkNr5BPjCALzmB5cTJ6KliQy7gELIAiMXCXrQiRPxAsCsQGsECN90OWUAMO4NANf5dSw+BiJ5KE+vZxrOd6oSIErZiXsmhGN5AJy9ByAQiUd2co2pB+J4IBqMiK8kYETiciMcAEMMmZGYBIANAHwlA9GbWP3KAMxuAM1f5QfDOTgCjimh7HiktgiCISArSJBVtgm1V5QgBgB7XASN/CjeLAC4QwBBrAA3/gCiJ5gil4IhlQnBC5bzM4IhjwA8yJnjE5k+iEBqLwJvHpm0lSDteGIhqwCNtmOOtQC1Y2Ioj4bCjJBD5wIgMwAy+ZnhB5m+gkEBJwCL0QDhsFZ7FiDOIHRftpKGR4iuXlcSHHBCRTLkSwYya6dHSYogDABrVwDXZnON3gCQJgNiXwZN+CDoV4IsiYiAHqA643AAsJpFPJbym6TGDQCsswDi+6KcagU+AojrFSiuV4jqnIBEtgBCuwAidXm7a5l19KEEZwCcXgoqSjWCTINFbwWP7cU4wnAgEsiHQBGqem9gR4mZc/EAJ5ehDRqQvXwJuGUg6kAGn+aGexcm4lmYjOp6h2Om9GgKeTShAAsAWhmaS4w2b++AqxYg5K6Z9h5qEOuIjt6I7ytm+pmhAAsASfMKZlSg6kgF0fgAuxQpIcGpdoyIohp4aM6IzMNqS/WhA6UAnC4KfbkgsksDsnsJFgV6uDNwM3EANQ926LKK21KXIKeq0IAQByoAva4EqG4gxxsDt+UKNveYwhYAIUkAD4ZgRq+IKL2IhMQGbwmkhFEg2YyjKfwzRO9nWSeSISsAFEBQAEsAIE+4q5qqtxiqoLS6k6IArLQJ1x4gzfiCJxwP6J7bCaY9d/I8KxjpqOBguR8SepI8sQGHAJw6BhXdIMhMCBABAHR2ko25AJLzOBInKOzxetaginRpACO+sQ7fmeNjQNpBAGSsADYeAJxgCZ+OOdu5MBPiCVNqurcPoDz1m1DbGqoWlD51ANxmAM1NCWXaINkvBfmYmXi/i3UruebgusWGAkmAo16VAL5LI7IfCjD/m3i/qug9sQP+AIP2tB1qAI2IWMd/m4gBunVDu5EFGpN2k4UrqhgZMC5+mOr6h6UiuRovsQAAAGsKAlpCMNg7A7AaC6XMq6qterkhu7VosFqLCbiLsK83eIKKK6B5qevNqrMim4wku5lgu04/7oacM5gSbZvEEarfAWvdNbEfKKtZsSdrJJfyhgAhuAAQvZuc0ZoKbGatIbvla7BatgDfYKbL2QB8v7ZzmQA0tgp9G6ajfAAigAAvR7EQCgA5lQDNqADu2QDtswDJmggPSXjB4KuckmaDfwAmXmegmsEQBwBpXwVt6TCVczbObIjk+gbKSmAy9wwCAcwh3BW2ewM44gCpWwkwAwADhWeINmYyBwJzQsEiLCBHogCd9TCUcYAjd2YyCAAQNwAEV8EgDwBOiVCehmNlXcEmAABrt1Il08xmRcxmZ8xmicxmq8xmzcxm78xnAcx3I8x3Rcx3Z8x3icx3q8x3zcx378x2+AHMiCPMiEXMiGfMiInMiKvMiM3MiO/MiQHMmSPMmUXMmWfMmYnMmavMmc3Mme/MmgHMqiPMqkXMqmfMqonMqqvMqs3Mqu/MqwHMuyPMu0XMu2fMu4nMu6vMu83Mu+/MvAHMzCPMzEXMzGfMxyHBAAIfkECQQA/wAsAAAAAJABLAEACP4A/wkcSLCgwYMIEypcyLChw4cQI0qcSLGixYsYM2rcyLGjx48gQ4ocSbKkyZMoU6pcybKly5cwY8qcSbOmzZs4c+rcybOnz59AgwodSrSo0aNIkypdyrSp06dQo0qdSrWq1atYs2rdyrWr169gw4odS7as2bNo06pdy7at27dw48qdS7eu3bt48+rdy7ev37+AAwseTLiw4cOIEytezLix48eQI0ueTLmy5cuYM2vezLmz58+gQ4seTbq06dOoU6tezbq169ewY8ueTbu27du4c+vezbu379/AgwsfTry48ePIkytfzry58+fQo0ufTr269evYs2vfzr279+/gw/6LH0++vPnz6NOrX8++vfv38OPLn0+/vv37+PPr38+/v///AAYo4IAEFmjggQgmqOCCDDbo4IMQRijhhBRWaOGFGGao4YYcdsgeAACgEYgjjmTioVoQqMGJLsks88wz0fQiSiAnjgWAGpnUsowz0FDzzDXXRJNMLaIcUqNXABBxCCzLSAMNMKmQsokquQyTTDLF6IKKI0dmBaIcqwwjTTjY4OLHAyACMEQaiKTSi5W9wCJJl1SBCMYlujyzzTjmTCMLDGkGasEepOTCTIyn9MECnU6BqMMhOl7DJzrmlBlHoJhqsAgu0kjzTC2cyHEDo0oBcMAgYVoTzjjotGqOOf7UqGIGpoFGQEo02mwTTZafBAIGqUUBkEIgqwgjjTerjqOsOZSGQw0ui1hBKwAPWLJMrtpYI80wRCqiBrBAgWgHKsbuyaey6PJpzjjaLIMLKXFYkQACANAQBy64euPNNtdIE80yvbRSCRgAgKsTiFtw0ks0qzL7ajgQJ3uuOeF4Mw0ywuiicS3EOIOtNiBnqy3ArSjCBgYG1wTiEpUs7A2z6bSKDrrIQjxOww6P4w3IQGqDrL5ABq2NNCPHWUkeRKQM08qO5BmOOTFT+urUEOtrM87nolv1NtuAbM3X1vRMtDTLCFPLKYegoTRLAJzhSC0Mo5NOO+usk8666d4czv42Vq+a7KvKRlwxz9cMDbbY2kZj9imOELy2SQBscUkvY9bNDt3pRD2zzcpazXfNNSerL9ekB90v0V8j7m8xvaCiCBoZPB5SmqJEM0477OR+eTvtyNyq4KLv+/nefYcT8vGHd4p62IWPvasusGQixw+ye2SnMOnorjvvdbv6MPA6Cz886UCbXjjYYSt/ePMjsw5Lkb9Wn1GaTOiCjva5c2/33VQDX7H4nwMZ6fhlPvSdbnnMy1anlsE6LUnCDvKzCKYc8Yz74U9/mZsaxfynLwDu7HjaMB+Qkqe+9Y2NbMUYhi5mkQk0FCyCEJnWIXRxDXTgbnsYlNr3BBe+AXYNhP4ivIYJS8i8fmkLRstIhjBQUQk9JA2GDZkWAG4wQ4atA3dY1J/3NsjD0fkQiCIcIhGB1KlolHEZwzDbJw5xBiguJE1LoAILArWAQdTiGeGw4eV2RzffcVFw+srVAEEYQqGJjHnK65QBy2hGfz0DjUQaxBLceBAQsSFMZUNFHgI1AFQlI49Y5KPv0OG//wmSdMfjmiG9FrREKhJsjWxk4p6RjFlUYguULAgA5KALb+RvHNGARSAwlYdVJEMbesxi72Tmv/CdkmshKx0ICUhGVy7SX4oc4TJqoYgB5HIgIGiFL/GHDmnUYhAQCFQxj2mOUPJOc+Bz5hcFGUgfUrOaif4koRnDxjVrJEMU1Ptm5IpxQ/yxAx3ROGc603RJYWijnXvcX6vy1jkvji90Hcyo+Vy5PCMK8Rpc21YmFPDNfwCgD9IwKDmloYtDzCBQbPiEQ82xjsvtL2oU7eHw9BY4DhLugK8MW7YKF7JkrOIMIBJoJrShUoOi4xq6UMQLAsUFhUljHHPDXOZmRlGI8Y1zgNMg3iJWSKCirnB8U+WnBlGBpOYSALMIR1NVig5r1OIQKQgUFjIxjIfOrW6ZS0dOeZg1irEqrOuCWFnzKdSfDU0Xl2DDS0s6g15YcK5OteshMhAoSF0Lq63aH+CWhTd1fQMbzngGMqIxDW48TV2J/f7pWXP1P2kIY0ZskMALKZmkYWRPe+04BzewgQ1wnEOl5mCpIlAAoj5cohW6uNbTZCbWV+nwG8ZQxSIWQQhLbEIWxIjGNsCxrJsRTmSFq9k1inEKReTBCG7lrRyeUdDcVYMXm/hDIyyBi2kc94LA1IUk1KCHS4hCFKvQRTHGBFrq+nEcytjEEDAVATNQQhbMmIa6zBvN9ELMGsVAhSQCQYX48rYS16jvNFThhASk6QSEAAY3VNqOcERDF6KohCIqceBVzGLBq9qqzNKxDnR84xdhkCIAYEAIfH3jXMYT4L4Gtww5BQKpJnYjAFAxztyJAxfSwhQBoiCLGdN1HNboxf4qJKEISfT4x9Z4mdwC2w7BBiPJSgaAGVRBDG70lGuga1ctRozlLENRB70wh/ayYQklRwEX4KBx78LxDC05os1vFgauJsW7OjtjE2jK8xRU4YzXVk10LHXElQNV0n+coRiXbUcz8CxFPxBDHcDt9BUpBjARK0IRB25FLTS9DWZdsR3kQMYiXJxnPwTDz+gaqzUg2wc2MDdNJQWAHpbx28shY1ZKthU2btjpcteNYrZd868PLIpWLCyPxxYHMUKhhTwPARd+XpfDwnGN2w7ivazOtiKkUdB2IEMMeQYAHYjxW/3V7djnDodtBTYIR5zi4rAwFqt4V45rAMMSY6AXrf7CIGN1SW0bIVY1FzDV6i1vo+DT+EPC753MmwYW4utAtzBWUQkSoQIVq6iFmLDKO1gBgxR+0AIMTBCBEvhBFs4QB6UmGo5i8HwQYMBAwCmrC0VvDxykYLYUBSALcWDR5oElshbDYQ1htOISh6jEJ1ohilPkAo/HPsc3oKEMYODi78TAhtQ1540qV+IQbJjj1r+5hWKMA3/lAAa4lVx2XWuuVWmHeJ3RPAxYcEIRjuAEIbrbC2uM49h1Loc4xEFeqAl5HOaUxCHU8ANatRwNy7hfwbOxCQ4o+QOQ7rSQR3lz3u3xbtqoZSYOcQcymIEQYbpGOLIKWCLfnJQ3zkQg0P6gA9u3PBDPUHR9zwGNRRBAik4AxjmOPXziZw71Z0dH4WtRiTvcIROomIUuhHENb8it+mlnDtdAf4HABkQwLa1mUpxQQ7ujPeWgDJbwAbTyAZswDepAN3YzSsSHeceWP5dDSpX2CZdwCacAC7Cwf8/gM3wSWDOTZpxwCHmABQiYgCgwC97QbfhzDs6QCn4ggSBSA5ZgDOfwTt5DUVPDgfW1PelAaThWCTxmgrDQC8UQDSCFLNvAUqKgCFindd7Xak/QC7dTU00lDsoQC5pACN9FDeBwRRk4NXlzhP+nTManhJRGJJLgZq2Qh/onDFaSMTz3OiAgRQnYNsNAdOW2R/66ow7lwA3cMA3GVVN1tkXpAodqVzfnUA7YUA3VIA64tj3yt02iQCLFkka6UAu60Asagwp60H1pIgEEYAGxM4iDUEGopw7g0AzM0CPisD18xIZRU12UaDd2Iw7NIAuk0Aib4ArAUA3lAFzm4E+zcAmcIAzFZn0x8wyfsAWBAgEskAIzAAIJaFKiUENYRIyqQAhmUAZ+EArA0A0XFDNjBYzWNXV2gw28sAg7EAEAQAAfoAWLkAvc0InvBEytgwrRgIPrUAx6QEchMAM3MCrh+AK14A0QNw2bAChpggBwkArU8F+XA496U0o2AzN25gfT8gBtoArV0Ik2VU6tMwtMpf474XAKTRAoIcACOvADixKOWwCGx1YOwVAG0wIDmwANF/iRlBKSIjkprWKR+ihFZaAK2CCG3FNXuvAJvVBQvWAH28gCM/ADNxAC4QgAdlCIxwYOsiBytFICpIANWQWSShlPc3YOzWCSeSYGtMANxvdO5vBPpyBX7KANmfBSaYICN5CTOhCOJjUIy0BTl8MNpJBnWhB8bdhTzTQpRCZvk6dki8AMQ7g7RaYNusAJycAO66ALahAoGPACP9CaOzmIn2ANNMU7kJlnCWAJzYAO3VNalzkp54YMYZZnMFB28LcO4TAMl1ALsCcJhAkAA+CNOkAEiamYAwAL2qB27cANsv7wlFAZDOUQM/yjNREzibq5DuLwbQkHALc5DVnVaeOQDCRYZWygmi8QnUTwmgloBL1wg/EmeXnGAbbADXKTWOnCOaQVWghFCOkJAISQm+XWO8NwCIFwCoGQVyACAShgnzqQAooJAGCwn/9nN9ZgCecnRQmgCgKalFWTUR00kv/HDa7AnUpGCMpgQ3XDO+GgC1uQAVhwbQCwABiaA0ZABAE1loFQDHmUdt+AC3cQbqowDVQXMSwaOuqSQcSgoHmGALipm8K3DahAKwewAAAAATpgBD8wA4ppUpcQN+9XZ9qgCmMgRVaAbyoKQPaELCtIZNhQC3WQZy7wpJVYZ8lwCP6YMgBiCgAI8ANL8ESKeQCwcA0k+XDpYA2yMAe0EgDWsmEVY0/kM5JZpQ7aUAt7IEUE4GzgQDedlqMEEyggcKgpQATSmab/YAQ0xCwhyj3X0AuLMAb6iABDsAi/wA39Y6fkg6cwU27boKtVQCtxUGZcyobWIAqYAgIhkCZCagSyGjn7aatxmD9G5wqkQAq40GduuDV3aqxzNofsUA7OkAuW4AdWYAZ0YAnAMA3lAH/mMAx9sI0pEIgAIAJGYKbZ2gfFIGdC9pm8o4iMmA1+Rl03Y1HF2jCYVw7moHrHpQ7qcA7ZAA3GQAzIIA0CyobvtA21AF9pAgIpMAAgMgMBO/6dHSoJ0QAzlAIOjVgN4FAOF8g9QjZW/zNALaosMgMO00AMuQAMwEAN2XAOnZixc0ZkD1dn0lAJnMQC1QoAIfADASurJrUKsik36MANxCALlmAJ4koNs1lnRZZYwkNIAoQz4JANv7AJbzAEJaAFfpAKwJANuFZumqN249AL85kmGZACnDVFAcuoitmTyBQz3BAMiyCB9GIFlpAL2jCEkai20ERIgPY05gC2iyCjADACdOAK0ICwGYh5vaMNqOCvIIICimcCRsAE2Kq1cjAM/kcp1bAJYpcmdBAL1qCbMaM3aztNX8Uq4zANpOCDtFIFpcAMZheJQ5ZzyzAIgZIBL/6wAQCAAddapB1KsEk6DsRwKdMyBrLQtc2yqT8UTZvLJ+GADDKnZEOQCtAwZ0OWOTmqjYU5AyZAAS8QuwKbrY6wDNN3N8qwmZhSB8LAuZibuadkrOsSDG+QcGaAC/53ulsVDZxARyxwAysQA0SwBLKrtSZFQdOXc8pAB0oWAJhgO+uyL2UlQJ16M+YADsGAwgm3Cczgemk3DsPAlSc7A0TgA0mwBEvwv9mqCMlwekXGDFgqRXFADMmyN2UlQrniDeeiDHaZZwsnDuCZgdoAC7WXJikQnUYAwkUswgKRB9Roo9cwCg2gZC6AC5B6Mz8URGhlxesiDZE5c7iQpHNmDv7LIAnbeAMfDMJMsATcK6tY0Aq2Q2Tm0AujKkUPIAvSR8c/ZTpSNl3bgAs2rGQw0MdzVmTh0AuFBgAgUKaGfMZoLBCDUKtFlg2wUMqBwgGyMA1+48JT3DNVzLni4AykMGFKZgUy1rQCiAoWCiIpgLVEvKgui8YAMAilBzXlVAr1Ritzig3CW8eYLGWY+Q3MYAlHYKJ/oAyDd27FQL1pggGEHLBFjLirHAKQgkcU8wypcAdqCQAcsAnI4GdWqM1ElcmYKVjGUApCSStR4ArYYGyZ4w21sKqti8qHu8oGAQDrpA3KMg3CsAl7YAVDYAaWQAzSNzgjlDqpVDOskjl0I/4O0GALi1AGofYBdKAKzhui5XQJgXIALIC1AXumEn0Qd3JH2wAx05AMvYALwsAMFm3JI21ARBXUTDk3GZsN7VoK3iWuyiCs9Pu3m/TDsLrTPZ0QeXAKC+PUFQMxhiXFhcTUbRuSVlwO56C0qkcN1AAN1rAN4sAqmCeArWCyIBICZGzEX40QgyAKvfBZ5bU1l2xIQb0v06AMvVC0xgANScoOIKlv8zgOzyDIrFqmRIqfgX0QLBAIoiAMP3I1XSNEIbPNi70N02ALiTAGQ2AFbbAItlBqNgSeOmSr3oCamJIAQMzTn80QTxAI5PIjXVPHYKM+VRzU12Am9wwAVUCvfv4Flw6TXKfAimlyADnpzsGtEFugCKhQ2NKgy0KEPiStL8hACqFGK4JgCzXkKuVFSudMKxjwA9zd3QtBBYPNIlRoDWV1OLSFDVfabLhgLuP5KtcACyWGKQ3p2fjNEEnSB2LdJKj9wj4TDmAbwUpWLcrwMjx1M8+QCSqLKa774BMBAFygCFHYJP5d0joz4Hk2BriQ1KTlDb0gB7SyAA5u4g/RNpmgC8NgRiC1vuHwabtLKwhACqWmb8oiDasQxoEiAWLJ4xUxA6IN5FTYf3g6DpucBgm3CNDwDRo0DsXgCNMSi1RuEUZgB6LAItIAMlD2zdjLmbbtMKGaml2Y5hKkA/7ErWn9tyrooA26WqLTsgm23SzYWLiLp+cX0TaSUAvJcCzqIuiLUALTogW+i9fmYOPDlOeMjhEQkAdYqSfqsg3AsAl+4HtpMgQfbcUTleBM4OmfnhFPcAjFIg17QjHUkAupQAhwQAeEoArIgM3wHeKyPusacQaDAAvFoCrmIA7bwLFGqwzQ4OquIpo4znLI/hGR8+jHxLmnBrSuInGoMFWLvu0dMQB6MNr5opQ3QzPzfe7o7hFMMAitQNoe9j8RY074a2jzDhJnIAkrPt5BTVbF8Ana/u8lgQZLIt79BzLmtNX+rvCzAwaOEIXPYA3/oguZULW7RfEnMQBnoAglCKUL7cXXIM82M4AFM/DcKe8S2PbyMj/zNF/zNn/zOJ/zOr/zPN/zPv/zQB/0Qj/0RF/0Rn/0SJ/0Sr/0TN/0Tv/0UB/1Uj/1VF/1Vn/1WJ/1Wr/1XN/1Xv/1YB/2Yj/2ZF/2Zn/2aJ/2ar/2bN/2bv/2cB/3cj/3dF/3dn/3eJ/3er/3fN/3fv/3gB/4gj/4hF/4hn/4iJ/4ir/4jN/4jv/4kB8eAQEAIfkECQQA/wAsAAAAAJABLAEACP4A/wkcSLCgwYMIEypcyLChw4cQI0qcSLGixYsYM2rcyLGjx48gQ4ocSbKkyZMoU6pcybKly5cwY8qcSbOmzZs4c+rcybOnz59AgwodSrSo0aNIkypdyrSp06dQo0qdSrWq1atYs2rdyrWr169gw4odS7as2bNo06pdy7at27dw48qdS7eu3bt48+rdy7ev37+AAwseTLiw4cOIEytezLix48eQI0ueTLmy5cuYM2vezLmz58+gQ4seTbq06dOoU6tezbq169ewY8ueTbu27du4c+vezbu379/AgwsfTry48ePIkytfzry58+fQo0ufTr269evYs2vfzr279+/gw/6LH0++vPnz6NOrX8++vfv38OPLn0+/vv37+PPr38+/v///AAYo4IAEFmjggQgmqOCCDDbo4IMQRijhhBRWaOGFGGYomg5yHOKIJHpgAQAAGqo1Yh6wLOPNOONo8wwsldgxw4glkjViH8WYw86OPK5jzjW9cMLGCzTW+BUAaAjTDo9MMonONcKcoocRI5JoZFYjooJOk1zy2I451hSzyiAiFnklVQAEck2T6pQDDjjlqNPll2HWosgZKVR5JlQj1rIOj9jY0ogfdNBByCbAcNMlO+mYs80zwoiCRgh67rlUmmvuSEwjH1RZ5RCWACPnouuk4400w7RyCBWVWloUAP4SzJLOjtO84emtAPgBzKJeMhqONc/ocokdP7Tq6k8ADCLNjuSwggCutxKSDa9NtlPqqcOsEkixZh6r04itzMrOOX9AeysHxFA7Zzvo/FpMLUJS2a23NAGQx7I7lsOIuZ5GYEs56vJqbYuQimIHEcbS+9KIsOi44zmqRMDviCeIGrC61qYTDqqzHAIGCgkrnJK90TTpTLkT/9HMxSy3w645LkZqBwghizwSuA7zqI4xf0iM6wNxAANwtS4XvSTLXl6LqqpYsGClzSQBIMczRzOpjjOs/OFEBFx/EIYlxpyzrtFkI73jko1ak0yQcjwN9UdZjsNrOdUY8wsrrOTiTP43oxJN9t8um+3lj8I4gsLbIAFgxzJ/qqvO49QCLnnZgqOzjCRuI54Rw+EIvujkoFPOMjrDcJG55haluUzVnnsZ+uuiU7tNJaejPhHDcrfOJOy8/03tOKvUbntEaUbDeuu9Jx87k+YEP3zqAMCSu9/Hc6n89UZ36c0nwj/fUPHVT+469uQHXm00bXt/OwC1TD9++fCDzmU6wtzQvfoIjahs+PH3L3m14YDF/fB3kBHpwn1n858Cl9eOazhigAQkiP6kwb8FWrBJ60iGGiAYQYEA4AC6yNn7LOg/LpmjFzPo4PcAoAgKWo+EC6yWNjLBwQ4CYAYHfCEMFYjBZ2xQhf4LGZEkXEi9HcavSfQDGRAVAgAd9GJLRTRi+QDYihoScESOuEYFpQi/alljEFbEHwBu8EQdcrGLTMrgFsLovRFdIlNRPOP1mjSOWrCxjToQBhR3J0c0ekkbnLjj8EaUCTjysY+Ugx2XnqEHQdoOAGAYhrjiKMXI/Y9J9MvTEgsIgE9sY2xybBkDw1HFTRbwDMOoHjv66Lns7c4ah3Ck5oToDYFxUXekKsYZZIk4AKSgFpMEJQlxuShz6OJwppQgAH4gjIvBkJhz8oYoePm2EYGgFki7IJfOAQ5n5AIYxnBGNYYWMGnkgZpQq9InOme2/nWpG7kgBA8+wIETWIEQqv5wBjkXRT8qJXMgnlKDMBonOPJ1aRqd4AG0vCaLbgiMlOi02a0OkYw9tjJ5XBIHKzrFLyewwqGLuoYiIioyXA1iFtYQ4UVfxyVjOGFiI+JBLsRmvWSs8Z8AxZUO9CAKYUhjHMEsqPiadI5bcBSmjABpk4w5AJLSC6ZL0EMmdPGMbQRVqK5k0jlY8QCYjigMzujSNriHUw+OKAQ/uAHNcAWCMxyiFdEIBzpUCc2iHnViHzBGl77o1KcCgAlqsAMb0ACGJegAWkZQRCt0IQ1vzBWaJguDVwHAA71icBg3Les/QoCGPAQiEH3IgxzYAIYnzMhTh/gEJ0SxCl0sYxuPhf5sNzbhs4mFQRlcGocANSuQGbChD4M4xCA+mwfRkpYJLFgACs6QB0d8QhTPbW0xrgFUaDqDEM/iVwQ6oVQeaeOBvP2Hb4Er3EGYtw990IMd5EBYLIDhDGiQQx4G8dzozmIY15ArLo2xiLv2ixFhrdYywNBXhXGWvOUNxCDwUIc5tKENbFCDGtAAXzCAgQ12GMQloMvaWfTCGnKlK7WmIYs37KCrAEiABtZAigA3CR26WECB6bWAMyBYuIGYQxmqwOMjgGEMY0gDewl7hi28Vw59cAR0M3GKWegiGrAVcZfUMQ1geKIRjfDEK/a2KG8EMrz/AAAXEDzcOlRhArfqwP4RxsAGOYyWsFtgAhaWcAY52MG5qv0EKlwL26tSSx3kIAdNeWWNPsz4qViY7yGE24cyoBlaD1iznd2shjOAYc6YRoMdUpvnVcACv+MgKGTXMQwRgRkAW8jDohcdiDIkYGIxAEMb9KDeN4NhC1hgQpyxEN9ArHa1q7gviP0sOHPs9tRLkIN5g9tqEsA0B1q4gx7Su94IU/jSuqaCkTO84U8weRY+HYdFBXcNzIE5zDnIsHCFi4creACmSJjDtAOhhzysd7QTtvQWqGAELBihzkk+hWpR0dq4EptX9CPwucdohz6s27xmdsDEJlAGPYC23naotrUtzYV9zznOZ7BDIP4kcQoOt6IXywjxxbZxiqYuPARqCMS6Fy0IPHxBBgEwVwLKcIc+XLy4Gb93hPMNBi5g4QlUuPSF+6CIU5T8FLCoRTK2EWpehaMXgYDAucOMgpibd9WHqLkcqiAEBuCqAzz/LHppXVx7Z9zNbBj6tTuO6yM7XBSo+ATUayEM6k6SXdaoxSEmvHVYeT24qzaEIfaQhzZ8IQk+EIEDRAAELdRhD8NF79rr3fag3xvuET6DvrdQ5N8qghOogO4qWruMa2hDGnZqsyIOsfXNHn7Vg9gDHupN67e32Q54EISC1a55Whu/7ch3e9yJbuH3boEN8yW5KFYLi1agYhAsIIIjWv5R+82yQcGLhvgYqnCEL6ShDXbQgyAE8fVlE1/zxTf+tNduhzSMYQu4xoKRm2/hIqsh+rAgDNEQDasABoEQgN2HAt+HeIIwB1fwaCm2AkkgZHtgCLOXYKAFfxoIf6CVB2ngAxMgAFXSACZABE/wBWhAYfgnZ2rgCLUQDdawCn0gCrqgC92HAWgAfsPFBjQALSQgBGOQB4IQfsOVgRuogZ+VY1WQXbjSADmABUF2bViABWpwCKhQC5LggsnQff9wAGigB8E1XHPQg+aSAlBgB5hnXu93hOiVhHrQBkAAUw/wBEJma5aGBmzwBIcggFwISWAYfu32buYiAPGmYEVohP5s+Fm5B4de1QFYIF/VNmFc8AMhEAi6UAx9uAV/WF51AAVMiCsMAAZ1oIZruIFJaF54oAUb4FU5kAadJweVtgQZgCJcGGaaiHg0ZwdfgAM5By0+kGGHyIZtaIjDJQeeCFM7VwebJ1hbgAFYcAm1+FfqtmizV3NssAU3QAC4AgWjGIyJqIiIFwhycAWnpXNVcAdJSG92wCoAYATRyAQih3gXaF55wAaPlwMssAIxgARqsAfDV4ocCI5EWH9PEAMH4INlgAeGCFpy8ATzUnhEsIDtNwiCsAfCV2ujJQeX534AOYzgiHhqWH9VkAQxsAKSR3mWx37LpgdygDCH1ksRSf6Me1AHbVAGQIZ+00aRE3mIiKh5p6iGeIAHduB2jfdgbZAGaRBYCrlsw5UHZ0ApL1lNvmVxEKcFNEAADLABIpAEX4BhhohjoNWR6ViEc6AFQJADOOADTaAFbjBrFamSD7dsdrBGUYk4RKAGPhcIM3kE2ugpBJADz5eXRZhe8leY8wZadaAFKFYlHhADTfAFcoB54UeEO+iStTgQLBBYy2ZmfYkrOXAG3Uh8hil/eRkIcNiLuBICQqAGwVdeTKkHagCVlzkQgWlee6AGOcAvsbaUGTiatOaRbXAFMBUDX9CNTBkIdkBgdYk6deZZg5AHaiAEnXkrNMAGYCiao+mReP6ABmSom2jgc6/Zkg95mVQQWD4nWFgQA9BCA2pwmJtXmMO4kmiQA5+IK1fgnGrYB2egRLN5EKQXWPX4BVTwAyvQlxCABGywB3kJf6QZn6TIBlngAxKHKxtwn8QYCHlQJv2ZEFSABWfQZnKQBmjwBUdwBVnABgpZmsL4k2H4nHKgBUIQAw7QlyLAj+CZeWpwWMsZQU+wBXgId3Y2b4QploqYhP7oj3p5lF/wBVVwBWWAohfqlDSzoRBxBmrwe3mQXu+ZfMVlfD6HBxH2BUFmZ+nHe3ngj0xZjBpKpRFhZFe6XvZ2fMjnpYFwB2dAAyKAAAdgAisgBFqQBg2ngxfaB/45Op5s2hC6ZqVuFnSG6XN64IAHeSsOoANVYJ0cmYR5AAYydqgXQQRJF19kmn4+2QdzkAX8EgA+8AXxmI59IAdIYKicGhFE4F6g2nZqpwc8ODGfeZgdeAZEsqO16KlWqgZycJh2gAZEAAHmggBNIAf/GFpgcJCx+hH9loLQN22itQU+YAC4ggBI4KzDNQiEKi/TGhI+8AQfOpT1Zo9IoAMmAAEDgAA0YHmGGFpoQCTlShJG8HxDmQfqxQb2NwaQiY7uJwd0ma8m4aFt1nZsJ5hNyQZLAKsI+xFbkAXEOpRhmY56gAZOM7ErgQVXgAZvyna4erAeyxJLYAT9l4JbcKVYJwsTLIACKfACyPSyNnuzOJuzOruzPNuzPvuzQBu0Qju0RFu0Rnu0SJu0Sru0TNu0Tvu0UBu1Uju1VFu1Vnu1WJu1Wru1XNu1Xvu1YBu2Yju2ZFu2Znu2aJu2aru2bNu2bvu2cBu3cju3dFu3dnu3eJu3eru3fNu3fvu3gBu4gju4hFu4hnu4iJu4iru4jNu4jvu4kBu5kju5lFu5lnu5mHseAQEAIfkECQQA/wAsAAAAAJABLAEACP4A/wkcSLCgwYMIEypcyLChw4cQI0qcSLGixYsYM2rcyLGjx48gQ4ocSbKkyZMoU6pcybKly5cwY8qcSbOmzZs4c+rcybOnz59AgwodSrSo0aNIkypdyrSp06dQo0qdSrWq1atYs2rdyrWr169gw4odS7as2bNo06pdy7at27dw48qdS7eu3bt48+rdy7ev37+AAwseTLiw4cOIEytezLix48eQI0ueTLmy5cuYM2vezLmz58+gQ4seTbq06dOoU6tezbq169ewY8ueTbu27du4c+vezbu379/AgwsfTry48ePIkytfzry58+fQo0ufTr269evYs2vfzr279+/gw/6LH0++vPnz6NOrX8++vfv38OPLn0+/vv37+PPr38+/v///AAYo4IAEFmjggQgmqOCCDDbo4IMQRijhhBRWaOGFGGao4YYcdujhhyCG6CAAJJIoYlklkojBACm2aOKJWKVIxCGn1NJLLa184kgeYFCxBIsutgijUyXmoYs25rSjJDrohBOONtIsUwyOlwySBxtgpBBkkEMKVeIgyaTDzphklknmOuaEs8010kiTTDG6rPKJJIOgYQQLC2zpYpc3kXiGMGKaKeig7Ci5DjppeqMNm88kI8wsq0iiSB5oLPGCnkLyyRKJqJhD6KegkmnooeYoyugzxfQyiyiVDGIHGv46YICppiYBoEY0oeaqq5mGIjrOk4y+GSerg7CxhZYl0ioSAIqEM6g65YDDTTnq7Grtp72a8+s11kQjzCp9JKvsRwB8go6Z5PjiyR9vvPGHJ8acc+28uq4TTjKXiDvuRiTC0k6Z07AixgMpfvDGK9XQqzCo7UiT74v7ZgQABMKUiU0nH2zpxCvdLOyxoOkkwwbEEV8EwBK4jkkOKxnrqUQu1Q6q5Mw0f0zoOKKQXHJFAJxxDZnTiIEpAAEw0rGgNCetdNILryOMDgDsjBEAg4xD5i4tYxqGMzIv7fXXM+fazjNYRC21RQA4ci4753SSwNAAfGBM12DX/fWn0YBh9v7ZFAEgytrkdIIA3B8Qg7TdiHstM9l78x1Rv4GywwrBQ/PANa+JZ840r8sQ0bjjD5HYy79jHrMD3H8kjLnmrCOdDBWgTwTAC8mU2c0fDWD6ASsxl8n676SLmgwTsUsEwBMpq7zLG3pGYInqvgPfepnpCLNE8Y+r8XOZ37yyRpA2dHL56tInbuY4tXyO/UIABLKNoOUY00kYTnzwgRKMsAJ99OVnbmY4rVDf+hKSNm8QqhvVMMYuduGMavSOfP2zm++8kbMBNoREonDWxyLoP99p4xACtGBBSLQKT3mMgx0UlTUGEUIRDoREulibwlCYQjJJQw0tdOE/AMCCZKxjYf40rOGYnrGFHLoQAFuQRvCsFUTNmWkdzzCCEUUIADtYY15NnN6ZkoGCKVqQWdqgWxYj+EQuenGA5TIgBMdYvjIaQYcEBAAqrLZGNgLPTOgYxhvheBAS1UKGorIjGaknDBTwsY8oGMYP+SfINpYJfWdcHxKXscRCNbJ//wvgIQ0CADYkL5CXlN4EMxFJ7LUvjHUMJeJ4pQ1FlLJ4AJCEGhmpSiG24xos3CRBSKhBWtZylWa64StB1y9AWvKXTiwTFIuoyxcOoBeLBCUyzadMMzZTIAAwwjMqOc1kblFL19whGqRxuG4C85vDdFwVr5hKVUpzc1s0ZDiZNct3uhNbYf4zUzqGIc9mkugT9RwTMj+WDl2kYJ4AWAUdfWlHm7HDHLNIJ99gaMxaOpQdAJTo2Wbnw3Y28aLt8AYp5wmGbXqUhqBSh0p11Y5tuHKectgeQz/6rATughWs2EU1yhGqa+RBo1KjGipnGsRBVYMVf3BCBAAQgQ/8AWGgsgYagFoyEsmynGw0aiecEKQTNGJ8gsobVSPGS6yOUVDdwJieNNCI/QlvBmPdF0XNSlMz7YKrmIrAK+TFOZ3xEQAhEEY07VlUM6UVbgBYA1gFugwWXRMAWHiGGLMoqGqEAbEn2MUDC7WMG8zzDOw8KSbN5AwlIDYAryDHE4uhg3kGYqhE5f6goJyB16ERoBOqVWYvWvvYZk22rmSy7GlTi8daQOCxAMiECemKUsM2ArO7EJQ5UBHXcf3TmKL9naDUwTLUYUNQ4/hEdZVFokwsdFeDNFM1GjE4PX2AuGbyhiPGSysSDeJ9ID1nmdRhjD+010Un6IRbx6SNQNBXUyRSwzIuajP+NuIELSLAwQY8pmvI4cB8KtEpeslghamjGr9oxBqc4K5OGONoSJPGGTDcpRKxYRiR6/DCyIENZ2CjGnwl1NiewOIhpWgQvTivjIfsu2XAFbkuPsUwrBEOJqWjkkS2WTp64Vc4uggEZwiEJFABC130YhnS0MY2wmEOdKRjHVCOcv6ozAGLAyA0SBhAgxzkkAc9HMIRnPiEKFbRiloMIxnWGHM4xmGOdDw5zUS+RiVYEE5sDs0IZ7BDnfNgBzmwwQ6BOEQlMsEJUaCiFb0YRjSuMeZxENrMMjZHLwYBhkY7GrEtSgEW1IDpPuhBDWhQQx7uLIlLZEIUfe5FMkY95jI/mV7oWAYn9DAIV78a1kMLgQ7QUGs7qEENZ6Azrzu9CljUohijHvQ4nJxmcxRDFIGohCSc/Wxow+0AKSoAEZ5AbT1Qmg25tsMgFJGJT3ziFK3QhTDATOo1LaMVlTgEJ1ahCHa/0N0Qx9QCXrAFNtja0mxggxwCse9AeNzjiqgRLNoq4fARRvzkiL3BFuRwBggA4AZqUIQovN2KkjsE5TjfUgbAoO9DyMHmaMu50IHuEaHDjegpGTrSZYLYpTv96VCPutSnTvWqW/3qWM+61rfO9a57/etgD7vYx072spv97GhPu9rXzva2u/3tcI+73OdO97rb/e54z7ve9873vvv974APvOAHT/jCG/7wiE+84hfP+MY7/vGQj7zkJ0/5ylv+8pjPvOY3z/nOe/7zoA+96EdP+tKb/vSoT73qV8/61rv+9bCPvexnT/va2/72uM+97nfP+977XjwBAQAh+QQJBAD/ACwAAAAAkAEsAQAI/gD/CRxIsKDBgwgTKlzIsKHDhxAjSpxIsaLFixgzatzIsaPHjyBDihxJsqTJkyhTqlzJsqXLlzBjypxJs6bNmzhz6tzJs6fPn0CDCh1KtKjRo0iTKl3KtKnTp1CjSp1KtarVq1izat3KtavXr2DDih1LtqzZs2jTql3Ltq3bt3Djyp1Lt67du3jz6t3Lt6/fv4ADCx5MuLDhw4gTK17MuLHjx5AjS55MubLly5gza97MubPnz6BDix5NurTp06hTq17NurXr17Bjy55Nu7bt27hz697Nu7fv38CDCx9OvLjx48iTK1/OvLnz59CjS59Ovbr169iza9/Ovbv37+DD/osfT768+fPo06tfz769+/fw48ufT7++/fv48+vfz7+///8ABijggAQWaOCBCCao4IIMNujggxBGKOGEFFZo4YUYZqjhhhx26OGHIIYo4ogklmjiiSimqOKKLCroSCWZrAKLLsIsM0wvnKABQItNZZLJJ63U0ksxyQijC43CCJNMNNEsU0wtpwRiBI9BOaJIJqfUMswy0TxTZJLJJPPMmGMyaaY01kgjTTTCwHKJGjtSSRMnnABZSy26zLLKJ3WiUksxaqpJ5jOBFmomk4JGk8wws2SCBQBxymmSJJJwsoqWXCoqzCywtALLKZgMkgcbbOjhyCqAanPNqoYeGmaS/kf2MkstsMwKiyiDEBGppBxd8skqvQxD6KLBbkmoNWku04solDhyyCB92NHHIZi00sszaa6p6JdH6gILLKuIcskhcqiBBREsbJFHJaKEm0kfvG6USS9FFiOsmtcUKo02/PKbr7J36nJnwDQWe+S3q2SiiB5sbKEDC5BGLDGkKYDRRyWnoPKJHfFedEYmtUhzDbL+rnpNvygj+++NvQw8SyvhcqJIIHaAwcQME+cM6QEoUAFGqYM8KwcbgfgaSMcV9SHKMNZoM0444fTLqrZOFtNLy96uckomg+ihxhYOH6DzxBK8gMUZehySSZA0bhmNysvoUokceihyCNITBYKK/jBNb6Nql8VY3XItWnPiSCBogPHDCyGMHfEAEuiwxBZyDOLIr0guua8345iDTjrptCN6O+ysM04yq+iRx9F4PwQAEY7MIgyRvXirsSN5qHEGERAM4DikA+jAxBZqBKKIKGwPkwyX+4bjeTrrrMPO9NRXbz076TyTCRtytO5QxEyU2occWPzwe8QgMAGGGn34OosuymPLb+eftyP99fjnX3074fTSxw3ea8j5ABCCGxgBDXIIxOVWoYshLYNQ19jGONARPf1Z0IKju946pHGJXQUQITlLgRrUBgshDSMaaNKG8z53vwu68IXRW8foSDe9dmijFZD6oEImJgdYPEOC/qF7oRCHeD3QgS56GZzeOGqRQx2CMGKDEIY5iEhF6s3wilhshxG3KEPSic4cvYCAB504kIipYRg0rOIQs2i/GI4ueuiI4+e4aL8vCsN8ZDxIxEQxDjXqD4sxDKQgBSnHQnKxfu0wRzGYMMY8QmoJwvDj9di4RSMOMpCFzKQR4xi6daBjGGxoJBkhpQZt5I8c2XAGMJwxDXFgMIuVjOURY5hJTabDcyz0ZDLsIEonQioQ4bgeOZxBCj/U4JhOYAQwqoE/QK5DlrKkZS3lCDpz4BJ66zDHMwbRSx1Cqg/esB45bvGGB+TsBJuAhjqsd8XoQTOWMcTlND9nzWs+Ex3R/uhgHvWoh3BW7xZicNwHFuGMSYrume+sZDznycl62jMd6LAGJ7rpTTlYo3rOeMP5PkAKcLBTdAlVaPTkOc1bOpSTMkSHNlBB0Q8CAAzSqF4sIjDANxhjkiHlYjZJWkuH1hOl7UCHN2DR0gAC4AfDoB45GjFAAHyAFeXYH0JzOlKGxtGnP2VhUIdaVO9BqhbU6wYcmgoARnTDim2kajatig6sZhV6W9VFE/dZRgCggobVGGtTGZENqU4VmlW1qlvfmlJvyLWreIMUJ9IxvW/odYCM8KgV3QnYwDJ0sISF6DgOS1eCQOoQfWTHORpBgAESoBNRnexfdWpNtmI2s+gY/kcvUIDYxNrBn+zIxQkGGIVfrLOGaYXnWl37WnlCVLPCeEJtkfbSmE5vGkz9HQIawUy0UtaSlp1n54orz+fFVhhgWG7HAHCDZFQvF39wXAL+YIzfAve68eRpLbfL3at6dxygFG+8IKWLNJIjF2/4QM4+8IddpPa9l5RvT7lbz3Fs93OxXUYg9MsrSJ2CsdRThzM88YYTfKAGYvhDJ4xxYAQLUsGZZHCDHXzNtj7DERSWFKQUEdrqDRMYwPiFMqjRDfeaOL5spS+DHcxiTrZVGp+IsZwgZYeL4k8dUPYxWtu4UOKq2BxEfnBb23qNVSh5yWiIRhXfGEgUF/LK1szy/oPpZ45rzOLLVALADJKRxheSObvaRTOWs1zPcLDZzXDmEaR6gWEXzhCTbG0rmtXMYnNA7c9vDjSLIDULdLzy0NJMtJ4Zvd1Hs9kbke6sZwHAiWDuj41U9mSihTxkRjsaan7+tC58J+q6KsIadW7nIBNt30Wr2Zqw9jQuDYvHWv+DydFI4513zetNu/rVwS6yObyRXElPGgzPUPZBmb1qZ/8a2rBudFu3AV5rr+iowyg0O7adaU17m8jADna4hbyNYeTB3CoatKWt226rspq7zwb3vBttzW0k4xD4ThGkYDFFfvO611cOeLQ5jWVgP6MSCUcRpFBhauA+PLZ63jO8/lvraU53zs8Wn6ixBQIpR+C6eh8PucRH7taSO1oaosj4iSCVB2l4EaHufre4Y23cTcaWyLEOhzVgcYCVs/wMywiiFkHH0H8D/NlHvyb0tihHkTtY6bBYgNOPbYRi7Nt+VJ9myL0+cqKzcOuW3HpbWdy5axBV5yYadMPRnvaur53iji7yFsXBDWwYHhziOAeET3oNzq6c0uPw4tS3uHa2N1rYFFzHOcpBDWLEghSdIIUtiFGNcqRYqLoAAd5LBKlVhEPyf6084MP9PM1nIxibeEMJIBWBE/iBFMQAxxxvifpiGxtSkrjGuteNUNnP/tHPA102aPEHmp7TEsGfYxyp/h1ep0NqENK4n/0ULXQ+Tzz63MCFH36HzmmU457pCIcw4OR9ALBhGZbWIsRVbPJ4056F6NAMm2B9jiMFuMANWxQOxcBLYwcAW5AM5gBSEOVrFOcN8lZkz5R+UTBAH9AI00AOCBUOy4BwDagDwhB5aLd/mNV/0yZvRAc655ANqUCAv/MHyiB8ExgNkrB6rAcAtRBMKUh+K9h/3mCBLkg/RjQNnUBWcKAM4mBE5mANp8CDJAIpreANnQRRKrhiFWiER8hmt0QNS9hUTQgOUGgNqyB29ccJ2oBEaTdYJtc5ReiC8+Y5z4MNqkCDjrMIzBB949BlENCAAHAI0YAOEuh3/lzoanNIhyWHcnHEDbmwgedTA6qQDUb2h7WAAYKoBslgiEFoX3FoTV7IiEnnduLQDI2gAb/zAIRADE9YTZg4V8cHBsPgifckR3Eoh6Qob4togXYIDsDgBwgwNg8AB7RgifRkTdpQC7TmfUYgRcxHdbk4baO4i0VogdtggROEDuIwDbjwBwI2MR/wBrYwDeYwgfWkDbqAMw0IAbUwDm54S0RYjaR4jd6wDfiojc9TDtxADKrgB2UQARxQA3BQCsCADU9IfuOmC8Z3fAAAC+EgQ1qYZjS3i9Fmj/iYj0Y4QdUEDtlADLhgC7aQC8hQDdxwDujYWuOgDbNwA1Q4IpDy/gnb0ElbaJGx5mAYmZHZuJEtxo3c8A3g8A2Jt3g/5WjPkGQvKSItJw1vB3EWqWaLqJP2SHutdVxWaXQ+tZK6oAeyWGu/hH8SOZG7yGjytpPXeIGd82BHxHV+l5YGN1Fd6ZVsUAwRWDqa9TQTR3HBdpZf+HVFpn0NRZFG6A3XkAyowEhJCZNLoAvweE+W923AhnRo2ZeBl5adFg46mS9NMgy6kAlGEJfHhwGtsA0ypGqtdnJZlpdfBzVFqA34uCqqsibLUCTdMguocAqS0AePApoOKQnPYItaqGgpRpF+mZqYmY39gizS4CXCcDV4kieoYDh2YC5ggAU6MDFjp0cA/oAFuqANoQN3UKiSeImTrwmbatIltOmcrSAKMpMHYGAEN8AEP9A42JmdAvR9veANgLliUVOeauIktdMttbCelTAIbMAEOvAEPyBGOWOfFxExilAL0aANg6kNsik4taMnnyAJg0A+RrAFS6B6DeqgHyExciAKeHI1ebInogIGT0AFWAAxI0qiKEE2KHADWPAEGTCjNFoTEdOjQBqkQjqkRFqkRnqkSJqkSrqkTNqkTvqkUBqlUjqlVFqlVnqlWJqlWrqlXNqlXvqlYBqmYjqmZFqmZnqmaJqmarqmbNqmbvqmcBqncjqndFqndnqneJqnerqnfNqnfvqngBqogjqoPoRaqIZ6qIiaqIq6qIzaqI76qJAaqZI6qZRaqZZ6qZiaqZq6qZzaqZ76qaAaqqI6qqRaqqZ6qqiaqqoKFQEBACH5BAkEAP8ALAAAAACQASwBAAj+AP8JHEiwoMGDCBMqXMiwocOHECNKnEixosWLGDNq3Mixo8ePIEOKHEmypMmTKFOqXMmypcuXMGPKnEmzps2bOHPq3Mmzp8+fQIMKHUq0qNGjSJMqXcq0qdOnUKNKnUq1qtWrWLNq3cq1q9evYMOKHUu2rNmzaNOqXcu2rdu3cOPKnUu3rt27ePPq3cu3r9+/gAMLHky4sOHDiBMrXsy4sePHkCNLnky5suXLmDNr3sy5s+fPoEOLHk26tOnTqFOrXs26tevXsGPLnk27tu3buHPr3s27t+/fwIMLH068uPHjyJMrX868ufPn0KNLn069uvXr2LNr3869u/fv4MP+ix9Pvrz58+jTq1/Pvr379/Djy59Pv779+/jz69/Pv7///wAGKOCABBZo4IEIJqjgggw26OCDEEYo4YQUVmjhhRhmqOGGG+lxxhkHAMDhWnlkoks00UiTjC6KiDhiWYN80ssy14STTjvsrDOOMGi4+OJXg3CiSzLWjGNOOuwkmWQ72nzi449aBZJJL8VIM046N+KopJLo6JLBk1BSFYgoutB4ZZZbpslOO9HIAWaYTzkiijBmYtmOllqqqeQ2qLwJp1KOoCJMNDXaiaeeeprTiw5+/kmUI60kE802R96oZJ6IqslmH4066pMOcpwiKaVoLqnnnajeqWc4pwDQqaf+OG1hxye6PKMNOqWueWqqvGKaZDrC3PAqrDNtcQgqJ2ozzjpIZrpkr9D6yo41hwxLrEtgHNuLrcsiKa2m0UKr5jiwuHotTWoc0oow3DLr7K7h8qpmOsWAYe25JKExCCzDSOPNme9mGq+4aV7jyL34foSGJPz6i6uuATs7sLxpmlOLuQmfVEnD3jz8bcTwTuxrO8mogXDGFylyYsfeguzysyKruQ0nJ6NMESrJhPPwyxKHPLCa5nhZs80QiRINOh+/rA430zjjjDLTfDOyyCO3OTTRDbHQizlJr6lqpuUwIwshU0TwwAdmqPJNmlRL642TV2OdEAAsJNMsuKkieo7+MqRY4erfrkqhzDpbtq0mOr0sEbfcB9GdzLcEpwkOLnEAbvkHwKjDdsxsSzPI4owXBMAS0fiMqprlyBKE5Zb7MQ3eP4/bCsahVwQAF9bATrGS6hBjBuuAT0GLOJtzznYy9tZuEQBySKN73luCowrwf8eBCzjPR5upNwcrb3sg10wdeZLSIwD8EJYoc47pvb6LDiwogF47AI5oI377W56DzCIR/H2BGaQwBjcEpr2IrUMXWBiA9yYCgEzYr3jjY4c6qAEMWeAiF8rIRjkkhj+XmaMVWHjBAiUCgFN4A1OxU5M6Nhgx6PFsHcsYBApuoIMRQgQArQgHBAvIsx4iCh3+y/gEEQBABSPY8CEAqIU5dshDHzoxHdvoBSoO8QIAGOEIR3QIAHRxN5il0Iku05E1etGKT3xCEVQAwA20wIIsMgQAwuii14wHRmelIxzR6IUoFKGHQCiiEo44AwBIkIU2unFuACiGHNvWtSdqIxmrqEQeqBAiVy1hC1iYgauOkIBDzm0AxbjfxOpYOHM8chWO2AIBgPeCJDyhigD4kvyIBoABPI6J4SLlmsZxDWGgUg4/AB4KwMCGPg4iEGqgAgho50mCAEAH0RBlE32YjnFIQxinOAQaUgA8FhDTj46oRCYycQlJBOIMA5ilzQCwhdLh8nRgbAc6vCENXXwiEPb+At4MwJCHQSjCEePkBCdE8QmCVmIQT2BmM/8BADXk7nmkvGM0anGJQGyBekRAgx0O4QhJjDMTZiyoKERxCoPagQXqzBgA7PBQXSZKG8uohSTskFDWLWALaOgDRy8B0pD6VKQkFUUmDpHQhToTfC4tHDq2AUlFsIFRrIMATvvwz0v89KohHWlJOeGIHhl1IACQhDeSqqNeZhMN8WMdC2RFVUdcghNYjasZR2rGmX7pqwwVxTgiisde3DOfrPuBRg+hiEu8Fa4jpatcfQrXT3AiE4EwQkrxhUN0PDEcMZXEUzE6WLcKdKCJVexiQ5oJgRaUE4pI3le3KMeALRWSgQz+APCkmtOdfja0of2sbnVL2oA2NhOSkIMEJnstFggDZO3gpTBa4Qg5cJN1KWBrVW+L28Tu9rqm/cRHS9tYTpgzBMSFFQBecFxnraOvf6XeWu1AVcMKtLqhdSx2r6vd7XIXro8dBBbC6ykA/KC8ajqvNGpRCTakNbCDLexh4Rvf+WLXvtvNLmoFaVQAgAAV29jSHZcBC0mYjHpGUEMgbPteBovWwdeFcIQb+4mZcrPCWKDVMpKhR0WcQZaW8yYb/OjRrJqYoCFF8W5VbF8JQ1ayFXbVDbZABWEBTwc5HYQkKsHikpr4p0LWLZEhbORBqLaZ1ANcEkR8iErMdaSoOIX+mq0cXyxnWaBbVrGEUauGu4IZeBIAgx0CEU4zrvkUqwg0KtLMZtGa8c2fjbOcTStQF/P3T1FNV4/VPGhUBFrQrVjFoNXcZvkiWtGLZjRwI/toOFkOBYGQxCcoPWhNnyIUsA4FSVtN6MR6+s2gJvJnefrYTHS11KZ2VQbycIlToKIVyNZ0KCiBCEL44dmImAQmtFprRMM517o2LK/HqQg5LHOhfyOCnFYBi1bAYhWn0EQi0gCECSQgARMAQhXaUAhNBBXIuMY2kSuhbZ4G1JzBBLerwHCJVZi73KegxByAYD7WPUALhZh2SYPsYH1vuRL81nZAx3mIiyaZ4AYvNyr+KEEHGYTZVRAHKsWHbHEVY7zfht24rw2cZCw44hTIbsUo/ACEk7vqAWmAxKqBfOhEtxzCGM94vz/aa0nkoYoVTsGYDL4Kkq/S5wA4QiFU7tOjI/3lMI/5OP1tTiYAO0yuOsMlUFFuTFQB666CwdZtbUav2zfpYV96xskpiUOoQYEV1sGYWoEKTGgB7gBowdwnbve7gz3vhgU7OX1th/gl+QyZsDQm7pAAuGshEgWVb+PHiXfIR770H5XEIIa4WsF/YhWjIMQRsL4CP1iVoNf2eulNn/THp77jB1gtABY2aE3cweRhfoAbCsHi3Ft895DvvdL9/VFHsCEFePVvH17+b4pI3OEIDWAdAoBAB0RgIvRG1zf0875+sW/XEU8/O9oBAIZxlwIThCiDFnJAghHkYN5+MAmIVXTP1379tntb1msHZXbZ9wJ9wAmbFgqYAAmEUIGEgAiUoAlzVXS9Bmq9Z3qXgHpMh13+VgmHgE7Zx07jFminYEaaoIEbiG/Od3EGeIAvN4L41YF3N1MolX0oYAecYGyVFl90p2Vx9oEgKIK85Wa9xgmVIAl6gGTChwUxQlKchlsrp4NfN33Rp4SmlQmUQAmO4AhhOE63dglelgF4xVAZYAeqdoVEx4EzuF01aIOo91nahQmK4Ad0MAdzQAd+cAiUAFK71m0QsIb+lhQkXCeH6fdRSJiE0sdvvgWGhDAHWkAC4QcADzACVVAHiNBTn1BOfcAoiCgBauAIIpWFRhhQj2h6UxaJ/iZQl6AIfaAFD0A9QFAHmNBT5aRf8hdsRDAIZkZ0QtaKkPeKsLhtnDAJtehzVUAILJYJiqAGILCGDDUApzhQqqhbdahtkoCMkSiJG3cIb+dzGuAHg1h3imAH4GWN/pVqoXdrj9WN3giO4eh+y+gHE4B1I3AHPFV3lUBq7jh8jsBingaCYfeN4ZiMkngJJNd5PjcCgfCP2mWCHueOPwCP+IaQMKeQCxmJCslTs0gHEBlmBKAF0AhkmWCCFDaQaABQjjX+dhxZTh8Zjt8Ykis5CX4QA86IB5IAV454CGzwi44CAESQakYHgh5Zk713kzcpiY+FCGWQiayTAEhwB5GACTp4CdpElJAGAGdwCPf1UQnJlCDplE/Jaw6Zfz5wi3+TAEBQBnsAULkHSHqwX9YIVjOQB+JUWtulbWZ5lmiZlttGCYpwB/pXBVVQBm2wB4cggKKHcYrgd9iXlwKRdoewioEpmIP5lFD5WI8VCZOQCKRJCYclX0mnCMhEipZ5mTOgB3RJTiG4mUnXmYOJdwFVdJ/wgukXgpPZB2yABTfQms7ETmXWa6dnlrZpm3fYXdE4TmN4CIFgB2iABRDgleeiRrD+6ZeyyZTL2ZlIyHT1xQlk95tycAZPMAPEiUjZIk7IOZuc+Z32qHHjNGXlJAn/JJ15cAZbYAQosJ5vxAJ1UJBkmZxPKJ+e+Yj1qZCOcAiDMAjAeQZMYGcA+kb0J4zcCZgIupSPF3M3mZ+BkAdyAAZYoAOHWKERAQB7+ZPcuaHJKHYf2qAhygZn8AOWh6IMBJbC+FizuZwvylMd9Y2KMAjS6QZgYAQ6EAI4ihFqJAdTNnZmCXPAJaRDOp1qcKQLgJ0pSIVvJZM/CqQfWqV2cAbCuQBL+hGxZAeF9Z5ht6BCekyBcJ5E0I5nChKusgVS1qUqFqPSOabCqaR1ShIAEALhaqAIkhCCTXeTjkCkyHSkdBqoJaFkdiBlh4px0TmjYIAD1wmpKuEqRKAGffCgojoHZ7AEKYABnAoTIPADS5AEVPAEc6qlqdoQfzOrtnqruJqrurqrvNqrvvqrwBqswjqsxFqsxnqsyJqsyrqszNqszvqs0Bqt0jqt1Fqt1nqt2Jqt2rqt3Nqt3vqt4Bqu4jqu5Fqu5nqu6Jqu6rqu7Nqu7vqu8Bqv8jqv9Fqv9nqv+Jqv+rqv/Nqv/vqvABuwAjuwBFuwBnuwCJuwCruwDNuwDvuwEBuxEjuxFFuxFnuxRBMQACH5BAkEAP8ALAAAAACQASwBAAj+AP8JHEiwoMGDCBMqXMiwocOHECNKnEixosWLGDNq3Mixo8ePIEOKHEmypMmTKFOqXMmypcuXMGPKnEmzps2bOHPq3Mmzp8+fQIMKHUq0qNGjSJMqXcq0qdOnUKNKnUq1qtWrWLNq3cq1q9evYMOKHUu2rNmzaNOqXcu2rdu3cOPKnUu3rt27ePPq3cu3r9+/gAMLHky4sOHDiBMrXsy4sePHkCNLnky5suXLmDNr3sy5s+fPoEOLHk26tOnTqFOrXs26tevXsGPLnk27tu3buHPr3s27t+/fwIMLH068uPHjyJMrX868ufPn0KNLn069uvXr2LNr3869u/fv4MP+ix9Pvrz58+jTq1/Pvr379/Djy59Pv779+/jz69/Pv7///wAGKOCABBZo4IEIJqjgggw26OCDEEYo4YQUVmjhdgBwYcchgTwBwIcAXNgWCIG0Usw12kjTyyEgiqgWAHassow367BjIzrJ6NGii2UBgMUnxWyDTjs2FmnOLBDsyCNYAKAQSC/XDFnklOxIIweIIS7p1Q15wPLMOERSOeU4p2CpJVcADAJLMuOkI6aY7QiDhZlnXgWAGqgk4006Nb4ppjYs0lmnVAAw4cgw2qDTp59iprMKlh8OGhUTfdQijZSMMrqMHZBK6tQNjtTyTDhhMlqqmOFwAmmWniIFQIn+o7ppaju00vpmOr3M2WmrRd3JSTLb8DlrrbX6aU2ggvIKFACg9mKNOYvCSey0pxq5ygCrKgvUE4FYiumb1IYL7jBnrMqqtjnpEOqo1VIZ7rtvelOJueeiSxOMrcSa6bv8vrmOLixAegAG9tYEwBacCKONsH7y67Cf0uiI5QEhLFBwTACo66yiwzrcr5jjfLJqBiFkcLFLOnR7abtTeuwyuMJsAWkGKbBw8kokeknqvi73/OY1ikC6AAszvHDzSQDkcQqwsjbc89NvotMKClgugMINOqRw9EgHc4Iow+A+LbafxagBaQoz3HBDCFt/1KQkukTJso1i120rqplACsL+DDr8oEPbHf0wiKg7O2133f7qokPVL9xABBFGA45RmrMsAybPhyP+ZjScYplC30T8YLPkFQFwyDDBzs2Oz9La/eY4ouh9ww+hx0A6Ra8Kc7nhH2MONZzCeAjiAi/0/cMGINwuUR69mDM365nSrTmV1wxy9uwrbCABBMo/xEIr2nQMb/Stvyym1AGDCMILfm8wAPfdN6RHMk276zH5vD/8ZjJme66DDizA1gHixxBFXCN/4sJf2KA3pXDkDUvru0EKJAAAixEwIQBQxDYWqD8xqYMb04CGM7gBDg52cEr/0tWHFmCCGcQABB+C3wUNkqYDlm98YgIHLixhhiFYgRD+qoCGCXFIJWv0QWgHSIAIksS2GdLwDNK4YQKppA5nbGIIkHoAKbAhRSIWKWT0wkAG3qc1JxIEAEZIRrXMR6VmLEID5nIBMNRhPza2TBhySB+kMICBBZTRjANhgTDqt7oTFqkajPgAvQBACnF0cYpT2kYmyrUqCYAABaMDpEAA0IpwPPJuU1KHLBS5yD84so73a9Qs7PADc60gBjH4gSY3eQhtrLF3h/zDIj/UiVO2jIFTioYjwGCuDPjAB0uY5T8AgIYoopJaYjIGKekVAVbQ8ZmGtBHsKAmpAdxgCUsgwiwBQIRiRKuQXjyHLCKwSyUY45OQLNK/iOlKcCZzlin+GCQ2iUWlc7CCnfQiACO6AU9ovskagaAXBH5ghCcok5Pm2GexpnQOXCBgkWF4Z0ENSiXY0esAOTACE4wwTk7YUqLtMoYZ6OUEWZRjoxyl0jBkBikCEE+kTBgnG6Rxy3iyAxykOMGq6AAMgsJ0Wn4ClLlAEAMigFOWgDzYM86ZTWx0Yg0n+MAHtLAJY7z0qEh9kzlEtqoN6ECk4cTnMNCBUpZ1oxnAuAUxoMEN8f0OTrMw1wHOugQmEOEGmgTALMbR1rld03fTo9K/gACAEjwASyggghGWYARxRtWkPfWiAjOnunTUIg6WSIUgFgCiDOhAspQNrB54WljVIfCur5v+hSymEQ5h5AFL7DOCbqHqRKlS1Y7Ry1xwpZELb9jIHKtQIQsYultNpmAYhITta4Hrp3AU4xlTWoYhQISB0+42cr2dRUR/Kd0iCRd/6FhGMthaJHCE4gsfkgBfm2tGAGTipOTlrOsUGI5nCGOD7FAHOapBjFKU4QIEQIF3dUvS+ubBmfnVLzAzlQ5tCKMW0SiHOJyRikX44Q5aSAACHMA+1FaWtxdEYzJ+K2HqMiod4UhGK04xi2cYwxWAgMGqPJAD2jHYCH/rLQD0GeEWxzR6ME4GLD7BCUUcwhGCsMJFV0WCI1CWwY/LZIprMV7zGtmnL44xLESRiUFsAVu7JMD+ENIwhi2M9MSA7S0ntpHZLyuQHejQxjB0IYpP9IEJu6zgAgKwgjQgQhBqwIJuH4diAgJgtWB1sZ/QsY1hjFkUHdrlAiSASRYUbwyFkEQgwIAFRutgBr1dghpbO+EXV3rMnAiEClc1AAxgkm//89sS7OAISeQBDCf2m5CJ7GX93jkdrxYFJ/RAhUVKIAQpaBzoQvcD2mVBD5dQxK8rq4MbJG+GAOAyq8H84mtYmsnMptcAaCZt2kkWy6EjAhgCUQlFyOEK3NZy/ADAicIVu7yZQsc1ejGLU3DCDrOeGAiIZrx3T9aeJ3YqGAbBCUfIgQpARjW4IT1u157PGr1ohSj+KpGHhIOIYgx3t27tyYSWM4Gy8TaCGgZxiUGogQo/mAEKwL2EaLA4m5kaRzR08YlIOIINRKDXAkKQcoez3OUuh3m1ZT4IUaMB5+Dd95CjC3RGCZ3oftBCBKa8qqU3feXghPoT1v6EqAeb6o74NRFm0ERHi1uid2bH11GRCTrAUaFMx5qPH95Xl7P98G1/uRGq/QMszFzbwNa38vjtb+nx887jkIYuUPEJR9DUXJyW9uPQXviWI/70LZc6EbBgByfLAQw/GKCj9WDDvPsrHJpfRSYUoYYXhBEFjVM54Q1/+uInXvVX0IMkDnFxje8bDNHweHC9UYwZNxkMMzDXuqP+PbvRD9/0xg9/28H5uCXMO9sIT/EAikHIO7ejtpxgAxbYsAU96q3p7346E8R/eCr4//9rl3rldwaHkG1qcE/7pgvslXfrsA3CkAloEGgDsHB8M3gPp3b8t3b/RwVY0IFY4H8BWFkixQaDEHdbkGKrQFh31oC6kAn9s0gHQIGgQ3oYmIFP8H8e+IEgaHow11BnkAdywAR1N3mDYFz40w7XoAuVQE+LBAFMV4H5l3bEZ4M3yIEdaIVYwHZUcHwMtgRYsARU42jNRD7toA1KyIT0AgLcN4PfB35UWIVXeIXgJARCcEw49XLgtHgpECn7lkadpQ29cAlouCoQEEHTRoP+U/iG/heHVMAEQvADMWACIQACG7ACPoAEiTdSRBACfLhvsNBlKARyngeDTMc+Fqh/+/eG/WeF/rcEQhADKJAkWIIAKyBSAUhZvgductA8U5IO11ALkvB5ZfeE7mZPpZeIqgiHH9gEPhADnGguARADS1CFjWgEAQNuSWMp2rANSnYISbdI7CZ4aJeMGbiIW9iMu8QAP8AEHLh2RnADOydkW6AHgxAIaIBm2jcAB0AADFBBGSACOeBUbkiOxQeCGKcDZLcqFoADQnCFiwePUbVCGbBL+GguEFCLfUWQ4beDRhAD9EIzkpV4RABADwUABzCR2peQ9GIByDSQGqmFWzj+UjKAAAEwPCgwAz+ABB/4BCP5R+MEAEy3KiAQAhZAAIEGACy5f+z4kohnkEjgAzIQiSwQkIRHWY2mTMuENsMTAmlzAxRwlLRoiyDIlDCpg1TQV0JgBFZoT5aFlQbxbPEVfB3Zj7skATHgAzdYhWSpgYv4gTlYhdzmlgpxclgzWT6wAk24XEsAgjq4l9QYh345UjeQdYKJEKV1VpP1AybQjwdwANuDAjjwA0KwmOa4hXu5gRq4f+H0A5RZmYMJAKZFBC2XBESQA/8zem2HhVdomkz5f6b3ZsLmmhGxQrmFmk/QgVuAnB44li/pm6m3W5InnA9hkiHwApJlhVuQnFj+kJ3LyZzk6H9QR1mnFp3SOZxWcwMNlYPbmYMAmIzOiYe6RXfluRGwuVyyqZvdyZs2+J55mHPz6TYYUGKLqYP5uZ/g+ZyL53z/+RGeyQI6QFnKaJb6uYqN6Han5pMLChIfkgHW2VBLuZvtuYEVCp9GIJ8ZahIbmlvsuIUgKqJRZ5UKeqJIEwBMx1Arepwg6nYJKqMuAQABkAKzI1JjGZ4Zh6E8yhIAgAGfo1tQ13LxaaRH2qNKGqS75Z9RahMfggHQlgIp8G1X+qVgGqZiOqZkWqZmeqZomqZquqZs2qZu+qZwGqdyOqd0Wqd2eqd4mqd6uqd82qd++qeAGqiCOqhmhFqohnqoiJqoirqojNqojvqokBqpkjqplFqplnqpmJqpmrqpnNqpnvqpoBqqojqqpFqqpnqqqJqqqrqqrNqqrvqqsBqrsjqrtFqrtnqruJqrurqrvNqrvvqrwBqswjqsxFqsNxMQACH5BAkEAP8ALAAAAACQASwBAAj+AP8JHEiwoMGDCBMqXMiwocOHECNKnEixosWLGDNq3Mixo8ePIEOKHEmypMmTKFOqXMmypcuXMGPKnEmzps2bOHPq3Mmzp8+fQIMKHUq0qNGjSJMqXcq0qdOnUKNKnUq1qtWrWLNq3cq1q9evYMOKHUu2rNmzaNOqXcu2rdu3cOPKnUu3rt27ePPq3cu3r9+/gAMLHky4sOHDiBMrXsy4sePHkCNLnky5suXLmDNr3sy5s+fPoEOLHk26tOnTqFOrXs26tevXsGPLnk27tu3buHPr3s27t+/fwIMLH068uPHjyJMrX868ufPn0KNLn069uvXr2LNr3869u/fv4MP+ix9Pvrz58+jTq1/Pvr379/Djy59Pv779+/jz69/Pv7///wAGKOCABBZo4IEIJqjgggw26OCDEEYo4YQUVmjhhRhmqOGGHHb4HgAghgiAh2iJCCIEPxCRww0hgEhiWCaG+IMabMihxhlYGPECBi6+mFWIOhBhIgpq2JGHHkbKgQaORLyQwQAj+igViGh8osswwqzShwAhYsGGHnr0EQiYSd6IxRIsQhCllEuBKIkw4azDDjvoLJMJCCC+gIYdYgbip59g5iGHjWdswcQPLGRwAJtHAUDEJ8/IOeek0hzS5Zd99BnIIIAGKiiNaIBBBRE6MDoUAGrAYk07k7a6Ti/+YJwIhhxhahqIpmD2cWSSbKCxhak/gThIL+Gw2mqr3nwSIhNqHJlpn8/+Weu0drBxBrA8gajIMOMc6207wqARIhhsOJspoNGOKaYeedRhhx1ygIFtTgCgcMoz5nirb7IhzgCGkc9mmqumfSCphhZoDMoGFvPahOos1qSj78TFiAviE+XW+uzAfurKBhImrAAFG3ao0fBMwurijaQTezvOKSG+8K+5AufacR5s0BAAACBcUeO1J78E4iHF5NvyxO0sk8eyRWpcMMceIxEiC1wMGrRLABghyjPpGHu0vuasMvWsND8d5p92nGFBiDmMIQfQV6f0sDXotNzO3V57+0z+HyEuUSTNYJ59qx5qGCGiEGOM8WvcJgnby8pI4433xObAgicAKZALuM23BpIHGBuEOEAVY8DNuEggZlJ03q1K7vrE0gwSohF/axw4wXJswSWIMYyhhrynh+SoKNJ0Hbnrk+uLTis6hLgFyQPf3nEgeLCxRIgIXKEGGsGDBAAas2hTt77Ilz+xNbKDSETC5t4uJqe6ovFDiECokXv3HA39uN3lm+9tOrVgAogwsIXa1UxwYoofEEAEBJKxAX8aSd3qjte/1+nLGo6Q0Rnk0D7OcepWOLvCEbTAwbdB8CIAAMMppIEO1k2qghVUXi/k8ALMeclI0xLcB8WEhzrIoQ7+eOhDtU5YEQDkoRbaYNmxYAjDiWlDFFgAkRE2aIccQktdf7qVwNgAPCI+RH/bcOGcmMhEfa1jGH2YXwiosCdnca4PdWDDHPDgp0F8EEloMIIXHSLBcYiRHWQso77CgYpYAeAGs6qiwNZVBzBAAQpq0EMdO6UGhu1xIQDgwgpbSL5AkpF8yRjEDQCQgSe0MUxn60MbfMAlEsxqU3d8mx4viRAjIlGJrfPkJwdZSBD5Sw6KTKUafBCiFWxwU5TkAi0Nor9iUVCXTdTXMhQhQAmYEmDnEiIURBQDNEgylpVc5kD6+EdoenJi42jFGfJENlQODgwIEFED99AnMJlQnJn+bAULxWhOaE4sGoq4HgCY0MaCrStnIhLAFuyAzDHZyJKXBIAeepHEZ/Zzl8caRy0sxoItcLBWfrIDGNYWom7moU95EBQacrBHAAxgW87s5EV1eT5JGG6ge3LnIPQgB6mJCAly0NSnFndCnnECX+WcqTnBVgs2sAAALMBCsziHhzOYQEQmUAMd/ZRSJS2hqCxYRcT4qdR+wu4SN/3BGap4UmR+jgIiAsORtPipLnYPAKKImEXLes7/9cIOKLDhVBEohyskIERQqCJdVUrU0wGADUXbK0ZzSVN9XYMTUQSAWmnVVvgVdgQAYIAWFCkwQd0zeABAhTckG03+9fVY6ej+RR9ahAKppvRs8JvDGR7pTS2S6VPKDN4MhIHLMS71a8adbKu2IQoqgEgHZ5iDzey4KTy0oQ11OKnZ3vWp7qEhGmR9LXKTK8hjnVEP86ttszpL3TFFL3BIgpcagsu477rQn+NdonInFQ5RGBK6HxVcFn0LX+7K8nRbSIbE9Cve/JI3ht8KZfMAcMN3paENfMriAQP3roc6dhZ+ZPB+2XGOblTDGM7gxjlYmzxvEdKQP5gVF5EABEgGsWNm43CSzjDLqwFAEdKQaWtbJQ5cLMIJJ7ACIVRBDSFDeInLcEQUD/AENaRhCAQAERLO0NbBwTe+8rVr0LagC6NRdshzEkf+LrxgoghsYhpO9p/L1CkBAMjsDDkQ0Q/Q0OUckylJvmIcAA5hjW+Vt1XGCEOMABABVXDD0IduFUCjKAEsgEEGJgICnxPo53fBS0mCJoIuuiViOU+qG5ZYNIjMYIw4m3pS6VQDj26wBYGGiABQkMOfOm1gNTT2ZADIxKpKjTxvNYMHqgaAAEhRDkijeVLRkEQUQcAEJjzARMZMJa8/DYZS+XgLvRjfmS3YKnUAIwLJBsAfsuHsZ9OpFnZILxMwnWk27PrLnh6qoE+hDdY9eVLlUEWWk62EJhO7f+fLRGZTFKMAZKGt2/40Gr7qYzQMQ9wvfDU7ykGKeCbbCc5ot7v+Y5tGAOhg3jGqXwK/DOa6CloUYTy4C9Uhiw+ku+Ai/3errvEJMGAgA0tYwlVFhIAz4AGV+OYuY+P2vWJg/MF305cxYJDuP1Qj5zqfEzp6MYgnDGAGWBCSiRKLdHYdKb5d7ZWgVxHTjBf7WNnYQ7ID0Ilmyxzh+tLGKbYAoh9swQgeBxEU2nBST6U0D/lGPBeZLodl4BLvrQo4uhfNA1y42t1n7IOQJECFLRDhsAAgQBUCfPjDJ75aYm6YBGDRdqiLMRupjtEHSPHou2d9Tk8EwwIgQIQnnGkFEfCBFtpg+NKfnossYHogorFgt5O7Vc2whM1D9IFNhBzrkR6jMAb+sYUcMWELWwBDFsbghtKbH/EdlgMbfpcBxv2gFqQed9T1VQ1VMMIJTlhyMy4/YnZ44xR9IAl90H1gAAY0AkyJ11WDUi02AgY5siZBM2jgJXMTU2LVQA0qxmLuxg6x9Qm9UAuHcAadhwZoUCMIyAYoOChqYD/wwgUTBoFB8wOjhnUOZnsj1g7RgArXsA0guAVPEH5osD00goJEyEGH4AiDoAYtAoMReAjS4G+Q52B8BTutsA3sMA6zMAhogAVcCAZnkDCDMgiKIAmcIAqwoAutIEpMGIEYMIN3V4NTCDuzMD5blwl64IUbdISZ8Amw0Au9AAuiwAmXMAhcUGf4E2z+wyZ/kpNfcWhGyTALzccO0gALl3AJlXAKtSAMtbAKn8AJjtAHNyIqL1BURiAMTwdIG+h6x4VOtdALrBMOyfCHovAJkqAIeXAGXLAEOmACIZACLcUJ/WaD86eIqzgx6yANs5AMGSUMoqAIesBFtRYDByAitIQqF4d9fHV7xxIOf7hagLQNvfAJeeB5LJACPBIj+MRvUJiNgYRc7cCNqwAn42ANtSAJajADu6Nq4iQQj+V02MiOf7RE2qALooAKwjAMsKAIW5AB6baG1bgKMUeMABmQrTIOy1ALnyAKgch9DemQywQAduB4wqhU42UO1tALrRCIh8AGQtCRHolPrLf+jhM5XuggDbVwChqpCGzwgum2jwoBAIEgkhI5U+6oDb1QCXHgB4eQB87VkT7JEBgAf/9YWV+DDsnACbHyAA8gAwypagsgAQvwkk/Jj074eI14NOnAg4UweQ0JAWAplmM5ECBQC2bmfMVoNxYJC4lgBek2AAeQARkQAu0Xl3wUCNJglmaFXOlwkq1wCpKgBV4JASAAAhIAAoQJEQAQAnQ5lc/XMuuwDQiJk46gBmpiIhAQAr2YAiGwAJcZEYNWaCPZYnYTDsOwChopCXmwBFAiIguAASjAAizwAhDQmhKRNW44lLLZMuaQDKKAM4oQCGBQZyIyACAQAsD5Ar5InBP+EWzBiJzjtZi6cAg3BQJhaSILkAEpkAIokJ3auZ1bYIrY547e0Auc4FTphgHWWY6D2Z4UAQDqKHIluQyfwAY/oADJdgASsJ4vkHz8aRHfc42Q9p3WAAtL05cL0IssgAINmhF45Q0UeTTvSJ+QeaALUJ2quaERhAb+WINzMg7MGQiZpWqSKZghMJwoGkFs96GwRY/cN0oyipqqaaM3GkF28Aw6OkZGeQlKeKAS0IshMKQfkQIg5o7jUAyf0Ac35ZXTCJdQ2p+DMIEtU5MgaARdqWpQ0qUjIYPxB1vXoAuSAAaXk2xoWhIAMAjJ8HTvOAycYAdPJadzehI/Bies0g7M6PAMqHAIT+Cnfyo3anAKwlAMWTIIVLCbJrKoWAMA/rIFM7BolgoTPdmpKEONoDqqpFqqpnqqqJqqqrqqrNqqrvqqsBqrsjqrtFqrtnqruJqrurqrvNqrvvqrwBqswjqsxFqsxnqsyJqsyrqszNqszvqs0Bqt0jqt1Fqt1nqt2Jqt2rqt3Nqt3vqt4Bqu4jqu5Fqu5nqu6Jqu6rqu7Nqu7vqu8Bqv8jqv9Fqv9nqv+Jqv+rqv/Nqv/vqvABuwAjuwBFuwBnuwCJuwyBEQACH5BAkEAP8ALAAAAACQASwBAAj+AP8JHEiwoMGDCBMqXMiwocOHECNKnEixosWLGDNq3Mixo8ePIEOKHEmypMmTKFOqXMmypcuXMGPKnEmzps2bOHPq3Mmzp8+fQIMKHUq0qNGjSJMqXcq0qdOnUKNKnUq1qtWrWLNq3cq1q9evYMOKHUu2rNmzaNOqXcu2rdu3cOPKnUu3rt27ePPq3cu3r9+/gAMLHky4sOHDiBMrXsy4sePHkCNLnky5suXLmDNr3sy5s+fPoEOLHk26tOnTqFOrXs26tevXsGPLnk27tu3buHPr3s27t+/fwIMLH068uPHjyJMrX868ufPn0KNLn069uvXr2LNr3869u/fv4MP+ix9Pvrz58+jTq1/Pvr379/Djy59Pv779+/jz69/Pv7///wAGKOCABBZo4IEIJqjgggw26OCDEEYo4YQUVmjhhRgeBQAAGc4FAApUgMHGFiB02NaGWwTCySmncBIIGCaqBcACalSySi266ALLKZLYEaNZGxqhByew4JhjL7W0ckkeP4614RmKoDJLjsIciWQrkpzR5Fcb6pBHJq3g2EuOZPaC5CqKwLjlVhuCoYgos9Ripi61uBIKKaW4YosttZxyiJprWrXhDHJwEmaZtaBCSBlVmEHIJrDoMgsqhwQqKABcvBmpLnNKusgQGwLwQBmRhDmLKI5YKtWGL8iRySr+cY5p5piu+IFAqBtqgYipolSqqlMoDvJJnGSWqUutuIaaBSWmciLHr0ttKIEcktxYbLFjwrIIB8luOIYmka6SJbRIBTusmHPWYmSOtWxSRrcAIEAHKrTU0isW5BYFwAFsVGvkmGSq+68uqRASAbw0YBJnK5/0YUS+QZlbJKcABywwp3RuYga8APjhirqrXKIHxD8BAIKrqAx8raQXY+xKJFbAS0YptcwyaSVMkqxTm4OcsmnF7Apc88Vj1pIKJVl0a0YoAu8oiRo64wSABHkQKSfQdAqtrs3qsktnKpa0AUOoERCSSpw2wyJKmlHTJG0gp1w9TLFaC21znEbiWOf+KYiYMYQWdGziyt2ztIIKJ4M80XZMoaIhSi/C9FLMMFXWrfXdF3etrtqbbELK4LXAIjoshl9ihw6Lu4SrIrMUI0wylAtj+eWYb61504TPMjosq4giCRsspL4SrhhIoksxy0wuTOSz2821wHjTTTjprbQieu+S5Cz8Sd0eUsswyceOZPNb114z3utKOnr11V/vu/bbi8SxHa0IE/7y45NPOO7oN707+9ZbBSrWBrX4hYRjAHhBJnQhDOUxj3zne17oJJi3/wGQd4cbBKAMyJFQpQAHLEiWHFBhpmHEDoIRfB4s0HettFGPfdc7nMM42EEAbMERrdBdJeSAq0CgglP+J0Sh+Vg2NNoVDoDWI937UkDDjGzIDrN4hjbC4Q1p6OISRtgQEQ4Bi16YsHIQHOLWYOGKVIAOeke8oAB9pwYmNrEiG5IDLKyBjnS0ox3pGEc0RAGGDS0Bh16kXNaaJ8ZZgK0QfliE4GIBPdFdEIMEfCNFntQKaYyjHetgBzvuOI5liOIMEAAAERwxi0AGbXa1IxPYykAAUVmhEJvI4eZe2L5VGI4TivCRJCHSplVEIxzpCOY61oHJdYwjGZ+gAooyUcqKEfJ5dJpFKeiQLASYAROy1B0tW7EKWx7uEAXcJUM2xAVfesMc6EhnOtOxjmCGQxiSCMEyr2Yxy0FTXaT+iFm3xoAJ0GkTid28pQbFuRA/oiIZ50SnORaKzjqmwxzb0EUgGpcJMdWTdrcjhRY4Rgc41cyRAOzmGjMxQ4IiBABMEAVCx6HQcbjUpQ196DVgwYbGicKip3Re15CUinfBCwZ+kNJHaYmKgA7wacEzaUFsqFJvsBQdLw2HVGG6TnRYoxVbCFUeUoaxnJZvp8cixAM4pgVLMPKfACyqNwkoAaUOhKnD2AZLoyrVuobjqXUcxzNOcYNQwQ2ng/zqumoRCn12KwGFyCFa2adWb+KSDW79BwCwoNJrzFWq3tiGZu0K04YekxOhBMAMFGEtuqGxa5wyGiEmwLGluRCJqGj+LDc/4QjImhRTohjGNcJhjnFgVrPb0IZwgeuNuzb0nY4IlRGq1dWcsrBooaBDAuBVBcEttnqxVWv1VvEJRWhJnJM9hW5561sqAle46NVsce9aR4gK4xChAkMmIoU126HWTK7Q2HSTdQRLDA6kaY2tUUXxiUNsYZcAoMInhmGN4pbXG5nVLHqHq96pogOd2pCoPAGABjA1l0wSxFgtYrEJOhwMV4FbIYAZK+ABZyIPRHgjAH7ACQY72LcQBm5wJ0xcB3vWGrOYaBxv+mFJsVDEsQiFIaowVgRoYRFnA7BIDZfdgHLzFJVgA+o4CAAdcKIX0tAGjnd8jWvo+Mw9Nm7+OscBZD1olchAo6DXaga2RRDCD5Y4m83YJ9JuZrfF2+1uOLcHgBtwQhjWELN5hVvmRju60TpeL0sX6o1ntIKHCfQhYC2XtayRMRWg1p3utttnb1Y5oKs4hSgGwYX4zbgSiJarecn86Fo/Whvb8LE5wpEMVKChS4fgKsBQiVraja7UIv3zlDGYCdumzmSXiPV6M8toW1u7zMP1cTi2gUxlzhiHOLXnkUG8O2T7Wdm25CYqPhGIATw7A47QhTS2UVdqV/va1s42e8ehDXiG6geVaMWRAsu/2a3P3AJEdwAHeIikRm1DxpNGcScu4Xvju9b6Ji+/ezGIUFGhEj+znOj+KOg/0iGcyoAm3boHsYC2bUgRYDazva9hjZpf/Nrp1TWbZ6GGUJ2BSBcteN3KbW6UW1nlzuKQzgAwAJhHA9czp3nNpz71mzc658bdtTRgcYZQsYHIXp1g/8h9bGQbPd0CLPASlA6xDXnv6cGNOtXnTnebY5zCPkZHOPZIhFD1AewED/HtXsvNPp/deq1AFRtewHZyub0WT/eGNqQ++UbX/fKYr/p6ezsObyzjE1nscrBR2+noDZV2IU03oK+ciUBw4WFtB4D3llHm4EpdGriXRpkzz/u5YzvXd+X3MDIR+h+MPn2ldwUpLGGJU5zxo0hkLKpbNIgzHDj2gagF7c3+PPma5/773+995rENdfJqYxiVWPtkwX0tvaViEWUYQhXKYAjrzjL6hQ+0ItiwhBnEfhC68AzXgGvd533gd4Dgd211d3W4dldSZQ29oAgz8CSXUCQAAzCwYAkbFSocYAalMkbbxDvbxSN2QAUx1nZ9AAtPpw2SV4DWgIAwGINWV37lJQ21MAgSsCFoUIEUUzQF0wDdQiphMlRqdGWc0Adg0GokMwOnIIC5ZntTF4NSWHdSqHv65lTbEA2wkAehIgfDwilVcix+wDFlgE1oszsgxV2DoAbfRTJgIG8Tx2hRWIXhV3WORnVTaA0DSG+StwyrgGkAYAdEFjm60ApjCC/+BBA4Z6VNB0dbavAEPxA1cgCH2yaHc1iFdjiAE2Z5BoiANteAfXgKXOBXNzInsXCICIMIqgCCI7cjlyAHYIAvUcMGATiAmih1lwiDVZdtEJZjtnd7nviJ62UNw8AJGLAhB0BaFEMLljA2HLUJjDRUurMKiKMGzqYzP5BbekhzuIeLeAh+dgh1BMiC9LZouBiMmrhe19ALybUhPyAJU2ImqUBNHHMElOBPacNdh4AGG7R02fcM0vCC0YB70VCQvYdtxaUN0hANyqAM0jANLGiOuYh7u5hrviUNvSBkNsRMZkILiwAEHPMAiJAy5bMjjoAGWAB7i7MEmdALAymQ0fD+DAU5k9GwgAMoedeADLiwfJugCrhADNcAYZV4juD4iXzoDdFQCxqpBpyAI7YwTbcCL4JAkptzCiLDBdf3bGeACsMwkAQZk88QljQ5k9s4jsigCnEwVqJiBpuAC9JARUM5keF4lNEwC3awIQOQBzfVC7QQCmnAMXtAlUq0hv24OACgBqcgDF65kGAZlo5JkxTZfbgQB62ULH4gC84Al1DYiQG5ixEZDtqwDJe2ISnwV5KCCWNQmaFCAIkFPQS0BVvmanqwCskAkF/pmLj5mNt4DcqgCmrZLZcpcZ1Xeby3h+u1Dc+ACmxwjDpwCAJ3mnTwmwBgBZaAN5MiCXKQkk3+BACDUAu1+YKMmZu4WZC6Jw3EYAkIBACEgAu7FZfjZ5y+tQ3FcApdBwB/JHB8GQp+0AY00ANlAGU4ojsNowaFGT86oAi1UAwB+ZWN+ZgvSXPEsAmq2S0csAnEwIIE6I0LOFwOuI6ZkFUoJQn0RQuxQAqbYAmh8DF0ojZreI1N9ASX0AvLsKCM2aAy+aDawAyqcGIc5Za2x6BjaZC/N3HeYA3wpH5gwIPDVkQ1gwonGYsEhQafIKM0GqQzGZBlFg24sDEIFAGqwAxltpBAaqUUqYf0ppC60HFtYigrkzVKogdgkJXiBAZTOqO5Z6UPWmbKYAnSmSwPYKF6KJDiKZ7+XqmHk7cN1/AMtcCFG6IG86Uu+VM4nzAIaKBLt6VgVPp9QdqNuCYNskCPHLMIxBCFNjqojxmZk1cMNOV1YGI3DLOPg3ZbYMCVdgqWY0mRjaYMrfCXHGMJxNCZ4WmquUmehqqQxaCcoaIHn7AKKzQLveNdWEAFkSUQACAHrdCVt/kMy7AMhaqJ1uCHdwAvVuAKyrB7wSqsDoqjxspHQTIImSAKsUVbcsAEsjitktUH1+qVBUmo27gN3yoLhGAFPAoDlgAMNpet6OqguBpcGMkJ1tcHihCxiuAIgyAHVCCn9ooC3oOt5yqWeWoN0QAMsmAJf/AGi6AKwKB73DiTCTv+nuSJpf4aDb0gCawjDLNwCYcwCIEgB2fgf/ZKEE9QCd8TkzXqsliqh9IADcqAC7gADL9Kc9fAoC2brjhKc8nQCpXQCyxlDcWQLb7yswRxBkKbDMvgsY15pduItLkXqFXKslMLmVgqXNFwRbCQSZqUDtsgDGB7EFtQUdsak9uaDDEJt3a3tjAZltvKrfsqrJsatzTXC2CSDpq0SdewtweRYE35t9q6DMnQuYL7sp05h4ubuKRbumVrtleKq5Mns5+ACpKrSeFguSe1BY+juYnruWS7rQfotptrur5bugrrfctQC5KACuHADuugDbKbEADwdb3wub2Lu767uI75u9b+u61mC6zRIAyr8He4lgzLqxAAkAer8Lz7Srq4m7ucm7612bvXi70KG5ADuQzCAAvedWi1EL4LkQGBAAvFcKPuy74CLMC/67KLKZDFoAuUggU/MAj62xBPYDz/e763O8AWfME3+rIDqa02+wnzqgON98AK0bfHA8Doe8EonL6J67HamgwK/CJZJMIQ8QQLNMGAe8IpbMErbMLJIAyt4AhqQASMJ8O8RMMlTMEVnMMqDL/kGQ2uMwucoAdUEEJELBE29AklzK3uu75KTLoeKw0trMB/kgIbUsUTcZiJWQxk27lbnMLAS54tXL9PQwQTaMZwJAdpnLudWwx8jMOd67v+XxyTNisKUjzEdmwRAKAH9YM8gZsMfPzI4FPAgfwMLkwpaEDGIXzIE2EEgwAL9pPEjxzKfXy6NwrGnGuzmSAHdJzJmkwRNzQLn7zGeyzKfOy5K3zKpxIIU8zKrVwRRnAJsIw8e3zBwFslqPA7RpCDvdxBvxzM6wvJw2DLXgw7s5DKWFDHy9wRNsQJuuDIXBzK0kzJg1x9LFAi2fwRAHAGotDNjMy+2NvDvXDMbJDMvHzOTjRC7AzI8AwLDbMF2GzPB+RDz9u+jkm2w9An1TcDIQDQJfEDAg0+6jsMvRAyevAE8sTQJkEEg1C+oYwkovAiP1DPGP0RpSkKOVSIfqKvBj/wAiO9EltgB3rQB3KwBSwwACLd0iORLDi90zzd0z7900Ad1EI91ERd1EZ91Eid1Eq91Ezd1E791FAd1VI91VRd1VZ91Vid1Vq91Vzd1V791WAd1mI91mRd1mZ91mid1mq91mzd1m791nAd13I913Rd13Z913id13q913zd137914Ad2II92IRd2IZ92Iid2Iq92Izd2I792JAd2ZI92ZRd2ZZ92Zid2Zq92TUREAAh+QQJBAD/ACwAAAAAkAEsAQAI/gD/CRxIsKDBgwgTKlzIsKHDhxAjSpxIsaLFixgzatzIsaPHjyBDihxJsqTJkyhTqlzJsqXLlzBjypxJs6bNmzhz6tzJs6fPn0CDCh1KtKjRo0iTKl3KtKnTp1CjSp1KtarVq1izat3KtavXr2DDih1LtqzZs2jTql3Ltq3bt3Djyp1Lt67du3jz6t3Lt6/fv4ADCx5MuLDhw4gTK17MuLHjx5AjS55MubLly5gza97MubPnz6BDix5NurTp06hTq17NurXr17Bjy55Nu7bt27hz697Nu7fv38CDCx9OvLjx48iTK1/OvLnz59CjS59Ovbr169iza9/Ovbv37+DD/osfT768+fPo06tfz769+/fw48ufT7++/fv48+vfz7+///8ABijggAQWaOCBCCao4IIMNujggxBGKOGEFFboFQAYZmihXBnqkIcjiuhxBgAbvoWhHrAUI400yejCCRoklqgWhnnosg066aRjzjbLzDLICzKiheETrVyTTjvssNPOOuZcI8yLMQYpVggADCDJM+ggmaSS66TDYy2B3CClWFsAIEcv3mi5ZTtspjPONb1wokaUY241iA46fBJNOlsqyeafXYbzDJgo1LmVI3mgoMcw42jJJjrmoIPOOuv82WScYNBpKFWVgAHGKtqoec40yhADDDHQcHPOn+l4kwwq/nJIsGlVlOTBhCTJ8JnkOciQEocVLYhBiCrMcOMnOuNEo4sjRmg6K1NjVPEAGrVso+U6yCxCQIYYfuAHLtgcGeg1w5zChrPPIhXBAwCgUEk06yTZDjiyRMAtt2a4Us2k7SCrzTK1KEIEuukSZS8AaPQSzprTLHLvvXTYwk2OTI6zjTW9iHJuwUhpsW0In1ijq5LNvPEwtxEsoow4Oepo8TXLtHJIsxwTpQW7AOghTKNbrjONySdnWAMt3+Ao6TjjhLNNNL18kmnNQlWBoQ6oaFOpvO1gY0nQGSJgSTOSQhrO2N5oc00xsBxyA8FQ26QIEBgeUow5airJjSxDcI3h/h/IjBOpOeF4M3bg1izT9Iht70RJGRhuMYs38fqpJDrNOKw3336bM443nAseuDbSDAPLIGsnfpMokWiBoSPL6Ponm+twgwsdei/SjDm4W7zN7px/DrOLc5peUy2FbBHAGbWEc206lbJ5DjaxmLHtwzvIgs04yCqtjTa8e7NN2dZEMwwqarMtPErS6FKIDiBLE3k7LVdKKTrTyEIIB9NjyMPX4eQezvYA3N32trE9aRRDF5l42vlaEg1t/OIQM7CDLsYRr0dJinnMW8c5wIEMWSziV2bwAymIwQ3/Be4a1whgCrm3vWswDRWBSIH5FgiSYaCwFmzYwiekcSTYhQ1H/ubIYDrEAY5pIOMXvyBGNsRhQs6hcIXcWyEBzWaNFnFCgTQ0ieCWkQkjDEIY5pBXl3AXtkhN6kjpEFs4/AappAXOiU8EIAq3Z40U1lEawoChDLNIEm+MQxuwQAMYYHGN5nVJR7iLFNIihUGjSepvZPPeNp44R23U0Y51jGI0rIhFPnrEGkgrhiKWoIhl0K1NaUwk7tbIRqOp0n+d2x0l52iNS0qjliu8hjWekcdAGMGTH5GUNUTxBGqFg09LyhGyMgc4VpIxd0iLZuc6N0sU1vKOt8xkFFk0CznNEJgQmYabhKEHI2QiGllKZhqXmbnBLVJzbozm5qZZtmpeE4Ur/sJlLnfZyx+AEyOiIEY4lvGJJ5xJebBbJztX6U6krbGhbhzc/wDYwmtiM5va1OUzijGLSsDonxVRhTS0MQs0LAEV6EzoD+XZzLFFU6LRhKc8BUhRi15jRfnEJR1X1KJT9IEFIJWIH2QRjWIw64uNQuVKYypRVsL0b2ZMZOBoasl74jSnl7TkisTXCkfoIKgQGaoyWgEGNMzCSCotozw919CHZg5Sy4QUPKdKQJteFat2vKU0orEMXQzim2D9xxUWoQpdKAILkjBlQhXaRmk21aHvxB03sDGNaWDjG5rTHF11icu74lWv1lhRMcgKWJAOIAuUmMUpwCDBY3KJsdBE/hpbnclMc3CDGLhQBSlUgQtiTAMcc4XjEz2L0ZvitJa8dERp/1mCOpxiFYHYgihEltZHytRvs10k0iDFjV8swgoJQEACXOAHVxTrpd6YJXExGo293vKmr/JnYBECAyTQAROR2EIgwCgvZVr3uubILjPREQ5iaOthQ7AECV9qtuES95rtbe8lnwELHSzXk1b4Ah3iUIVBhuq1ZUwkS7ObWUhlgxQHexgHNkHC3BHQwZ6FsHsnDIsfXDiLizBDFo5AAgmUEh39VagqWQpTv2EPHeConN44QAplgANpL8bnemsZ4fde4xmoyMCNF5gKS6SBBAIAABh0sbAkdSnEImZq/kM1JylxEMMMegOAGXChDcCVrcHrzWaV75iMT2BovgWpBSG0kAAMSQJeW/LvKwFcZDYPERm001sEQiEN2UY5z1Se8S79uuXz9UIVfqjCEQCghl6EMdFoTvMiG33kcTSDEHEGACGY8dBLTzl8mo4Z4gA9EGWQQg5ysAMWpqsm+P13yGp2qZHDRg1S4IxrZhBo0mwd40y396ZxsjCvBbINYnyiEJUYhB5M3ad+HVvVfmO1GcEBjEhzLQrEuJ72pFzt0OZTGs/QRR86bbpkbCMYmRBFLTKhiGRELklCXjSRi/xWc0yDFCfQ2xuI8Y1p4/nBtTyu+ESBBX4nzhvWsMUp/ooRDVGcs9gJR7Zji8xKHIGDGJb4QNAisIlmWPri1b6pvZmmiD/zmnvJWAUvxtaKS0SjbrBVOXYfm7RFSgobMI/4w+gALrK10Lg5zya+YSEHj7cNHdsQRi68wY506KISxQByohm71EXO1qlNDxvUSUGHiG/rBMOaBiujjPW7dpbKwxCFjbeNo3AoAxtbisYnJljuQ/7waDF9u0NdakYkT4MYstiEJTYhi2BMg8GUxHgdQ1s4MHkdaggfR5/C0YpVPGNki2VsTFsKU8EJrpXoICJlm1FZcDj1f6HPOWdZBItOBrZPyGfHMk5RCyOVW53rjGxTI6m02/+tjS1tOtnU/pvzqoqPE1Ti9TYQbsarsSMctTjFLKyRpecfEpFSnT7nusdKp2du8vPnvt8zqUuA/XXb31B2TAMLorAKtZAMtVQMojAIojAM3jAyYrQOxzZ9b8Q93yNg6TY48zdJwXdV92Q2LLIKT3B6BSMMDwhIfUAFOoAFYPAhn4AKlbAFOtAHsJBSz8dYFFiBu3OBb+RO9CRJ+ndcmTRJ0tALkuBz89ULu1MLeSBDFTADM/AEnsIGXJAhRCAJwrANEMgOjpc98lc2O3iB9Kc03dM5FAU6HqhTBAQwXcdroTAM+XYn7aIDScAETLAFeGhj3MIGqJAM4XBwr+Um8iRNYLiDnGOB/r0zhmMThlVlUTqFQskgCto2X4UACy3iCFuQAkTAgp7iKV8ABkwgQ9zyA4Owfu23JkxyXbIlSWF4Z7xTfbc3eW+UXo44hNjWcyT4LKIgDBnDBj+wiWigBsIojGzABoL0BGvDLWDACQ7oOpMjVzK1ga04QN+jNC71e36UNA1mUywUM8EzX5RAC6LTB1gghWjABsCWjnOwjnKgBmCABSBwL3qwCtGgPGK0TvFHhtPIPbOlWeDAPdjwZIvYYHHUYIE3iYF1CrowC4qwBVhwBmwwB3YwkXaQBxZ5kXYgB2iwBQPDLUTgCL1gDeZwNcn0SIsYhheIiA+FO5QVDMBwKsyQ/g3c4Hve02ADhG0/AmiU0AqtoAhgsAXnWJEXaZF6UJRGaZEauQUscC9q0IDawC8qtYo/yI9rlEjYEAyk4AdlYAV0sAixEG+1FkBlEzPG90+JoAmo4AjuCAZycJFG+ZZF2QdHCWxgsAT3MgOlWI891CZq9IOvGE1XaQlShyEIYAabgAvW4Ed09WLDcAnhF1ikgAqXIAdnAJF28JZ9kJmauZmZWZR5kJTNwi1bkAm9cA0jqVSyeJLWZ1vIsAmDyS0cQAi5oA0PFUvWwIS5uCm8MAuaYAdAyQaXqQecOZzD6ZlJuZTcIgenMAxPSSn4KIs8CJjAAGdBkwCWAAy3p4HP/rAKTJCbhlIMPuUpbUmc5EmcRUmXdsktOpCX2NOFweU5i1Q/MKA3VhAL0NA/snU2R+idY6ILp6AHYACReVCeBFqcn7mRoZkhYECa1xAOk/JDmkV5gDMNqvBsQUMIxOBHmpU+bQhWn5AJeYCHaHCZBVqimlmUGbmRyIkhAmAHqFAM2xBEaRR9szcOFGqhJ2MFuMAN2BNgz3AKgwdWjiAHRoAFaCAHcGmiJYqi7rgEBcAtT6AIuiANDqpoThcp2RALHBBnMJAK0KBI2iAMgzAA/BkkeXAGRmAEbJkHcNmmSmqeetCOYDAD94IGu/iUZ/R4khIOwEAGcTZp1GBk1zAL/hsDVkSwAj/AWgMql23aqHH5pnKZok+AAdyCAoMAC89wIzPaMjgiDtBgCSl2MoC6SiVnl2CFIS+wBWygB4HQmY76qm8ZCLI6q+ZpB02qANxCBZUwpf1DMV0igbJDnUHDAbJgmgE2DIoQAoEFAAuwBWrAprLqqrAKqydqlK26mXqQke5Ip9xiB3c6DhhEKRpEDaGQN0EDB7hQNONwm2pwAMv6A0faB7QqrdOKmeXZqBZpB2wABk+gZRniRTXooIaUDuXgDJZgrvfyAZvADNgzUJ9AM6dKBauamfPKqPUqnBQ7qxpbrW95kWygBlhgYdxyBpegC6C0l+swDs4AavOZ/iH7Q0KQog29MAgpAGhEMKID6pkWSa+OqpkaGwiDELQ/y7N6kK9scAZYgAKVmgerwJz8oiTkQA3AoAqLQAd0QAiuAAw8qjnSgApl+U8gwAXoyKY6O5Rk66YZK5yBUJSzKrTRarEd+5lHSwTxmCFP4AhTGkRI0g7qAA7UwAzEQAzKkCqK5A3DIAmUum1goAZtGZxFa7ZD+ajy2qp5oK+MO56y6rbXiq95YIxboIcZ0pS98JSvow7N5A3fIA5HM6gdum1LsLiNe5SQC7nCmQdtAAU0sAEsAARZcKR4kLnz6qgWebRYIIoYcgOXGg3ekE5dCI3eoHh0um0DcQNGcAaM/lu5sju7ZNsHdQAGDHAvJsAE8Qq0wSu8cpBDHZkhZ0Ca1nBMjqdK/yMMh4CE0vsPOfCQwOa4j0u7RWsHHnMyJtAEbJAHrVq+5ruR3IohinIKo4s9+Ghn0jALXyu9RXoGsZu9RKm2d6AGNBA0AgAEZ8Cmk0u0bQpsaGAEKwoAT3AImFpncxUO1iAMlUC/9TsQIWAEXHC91CqXcwAGJsA1JHAGd9CZkTut7bgFRhAAGTIAYLCr0lCNlpQMp/CNNXwQM4C/2NuoFNsHlBkDXIMEAyyX2lvEKGrCW5DAABACbKCQxbAMLdIKgwAGC1DFCoHD16u/jxqtGgkFK3AyI1AG/sJZtmOMkRMpp0YQZlYYCJ+wCp/ACZVQCYfABHS8EFiQw215thg7uWt7tE9gAvkDAD6ABoG8v4M8lBSpBhsJuhigB5zwXKgwC72wCpPMEDNQvTosubS6tnaABlnQBEAABD6gqIxaytpbyBvJBCGAAWpASI6kDbPsEDkAlMC2qD6bufJ6nsR4B6NMzIOcoj9JBWqwCmXGhc/wzA+xBNK8s9VcsRbrqtzczee7kVxwCMOwJeNgzhCBAq97vdT8s0Nrse8Mz0erqqdwI86MzxFxA9J8yev8ttIa0GYbt7Z6BkxgBHYAC7OQCQg9Efs8zerMmXAJ0Zj8lhOpBkrZOFyw/tEV0dGXfJFEG9BJmplICbIvwC0qbRE6wNJmS5EYPLta7Kr6WpeUSsM3TRHRHIwena8UudQR/dNrm61HSwU1TdRFbRHojNSmvNRaPZExfc1QjbQJXNUeoc+w29KVu9Va3dSWiwVhLdYgoQNAebmEjNZFPJEfiwU3MNRuTRJXLdemzL92DbJGoNd7XRJkfaRmrdaWCwaDTdWFLRI5jdRmbZSBzdiE/dgq8brByNMU+bGW7diYfRJbUFbAWdlGQCVlGtoVcYeecgaMLYqqbRMsEAIQANqxfdu4ndu6vdu83du+/dvAHdzCPdzEXdzGfdzIndzKvdzM3dzO/dzQHd3ScT3d1F3d1n3d2J3d2r3d3N3d3v3d4B3e4j3e5F3e5n3e6J3e6r3e7N3e7v3e8B3f8j3f9F3f9n3f+J3f+r3f/N3f/v3fAB7gAj7gBF7gBn7gCJ7gCr7gDN7gDv7gEB7hEj7hFF7hFn7hGJ7hGr7hxB0QACH5BAkEAP8ALAAAAACQASwBAAj+AP8JHEiwoMGDCBMqXMiwocOHECNKnEixosWLGDNq3Mixo8ePIEOKHEmypMmTKFOqXMmypcuXMGPKnEmzps2bOHPq3Mmzp8+fQIMKHUq0qNGjSJMqXcq0qdOnUKNKnUq1qtWrWLNq3cq1q9evYMOKHUu2rNmzaNOqXcu2rdu3cOPKnUu3rt27ePPq3cu3r9+/gAMLHky4sOHDiBMrXsy4sePHkCNLnky5suXLmDNr3sy5s+fPoEOLHk26tOnTqFOrXs26tevXsGPLnk27tu3buHPr3s27t+/fwIMLH068uPHjyJMrX868ufPn0KNLn069uvXr2LNr3869u/fv4MP+ix9Pvrz58+jTq1/Pvr379/Djy59Pv779+/jz69/Pv7///wAGKOCABBZo4IEIJqjgggw26OCDEEYo4YQUVmjhhRhmqOGGHHYYHgAghpiCBCF6aFaIAPygSC291CLKIFugAKKJYoV4SC/bmNMOOuFc84wuougBRok0cgXiIcugw86STLaTTjjSDLPKIVQcMGORV4F4xjDpMOllk+2Mc80ytXDCxhJEYhkViJ+E8+WbXu7oTTTCnDIIFmmqyVSKwnQJ559LOumNNMnMkgkaIOSpZ1EgymENoJB6mY452jzTiyh2EKHookC9AEAm3kQqaqDrpDPoMLOYKeOVnPqEwgz+sygJ5znicEMOOaMGuuM4lQojSiCastoqTmcAgEUy7bwJDjCd/OGsJ79gk2uTpW4TZapsrArAsDapcYAej37ZDClOIBBiAycs8ks304KJDq/P+ArsptyupAUVADjippfOLNIAiiE+8MYv57T7ZTvVXqsqvfWWpMUEKdTi55LikPIvwCiuYYw6Br/Zzq69/hrstg2fFAEATwyTLJPQ0IExwAgwUk3HgCKcjrWoZqIGCwyXrJEOIKohzZe4JPAywE4Y8+fHH3f8MTqUxovKIGiS7HNHWxy575LqxGL00SFGwArHBzNt9srt2hyONcO0woawV2M0JACtyLrkObd8DTb+iJ2U4/HZgKM97Y7hCKMI3HFTZAfQPwgjODusfLB3iH3/HXjgHaMzTCBWJ16RIlaiEc2bxjgxOQBikx3n5aw3nes4unjauecRZXJkqF92E4q5e4dBDJytB+96pNIMgjjtDg0SAACrmAOnMX/sHUEn7JYt/PWQjrPK8cgv9EmxLPSyDpzl/LIG7wBHwIgywF/v/uNMoqPLDLN3z5Ao+ILxDPxLlmMMI04QAIp4sAlnLO197oMTOnqhKftB5BQwAEAgwvUndVQjF51gxB8YQQpjcOOACMTem9BRixDUz4EJ4QQTAHCKcYhKHeXoBji64beahVCEXwpHK7iHwoJwIhP+RDCCLiZGs/bdsHVw2sYleNjDgSRCEjeQwzL4V0QQHnF4TbqGIzDQRIY4IhApOIQ2qmiwK2JxSet4hhxO2EWCZEIONzjF1sg4uCMezBzDMAIb2/iPQUgCDFsYohHpaMX3vWkctWBiFwtxiBlIEX6YI+TqEPimcKBCkU28xCFQcIihWY51kgzhm7TIRT4iRBR9uIEo5qgr4UGqHODIRja4obpPujJO0QhECEx5kERcApCCtF7w/sQNXGzCD3GIgyVk0YwaCnOY7EBbOorxNl4aJBGCmAEaigHJW74JGqTgwfJCdII/AKN6zwRlnMzBwD220RKCSEEfrPG4BL6pGpb+ONnLnCALdE4SiTmEBSZ7mIk76ECOtlSnl8qhCsmBzQy5qGUrkSi4bXxioA60xB6CWAu7gcmbLPPD6RaRjYRiDm3rsEYl3NnFRLxtC8gyKeDglAuH7s0KSpMp0wLFpHREYxAssGZBEqEGCVLwo9D0kjpkoc/JqcKZSI1kk9KRDDSwNJNyQEEmWBlNHDJJHaw4HYgY4c+JntRL8pORUJ2oByLMoKM6Pdub1PGLpu6NrHFNluDCIdCrojAReRgATLvp1SUZwwpifWpcecokb1zUrw50xB4AkIejmjWpTALHIk7nhFwY8aRoa4c1DrfWgYjiDlrF3T9ByrVcKGFvAZD+WV672tNl5OEApf2HLCqxhSXANZ2YXVI3WGG6o4UhFwUDrtmi2STNcQGy9pPFHlCwBZXldaZvGm4YMBYBOuQCqlGdqeAQ6anctqJYchjddbGbO2M0SwlK4AEdOiiOQsoVi97YHnS7x4kSAEASqg1vYRdaDWc4oxnVAK9ymza8dmhDEhjtHio4BwBYOG/BwSWkXJnb0+LhtrSowBMTrIvhDEsSTF5aRzLkAILcimIBAFCDekts4hNjER3CWGFuCwEiRYyRxqy18ePCMYsM7Jd2iZgCiCy83gGf2EvhEEWEkRcHozWOiJc1IxVDqcUp084PBAAAGzwJZDs+mR1p1MP+kWkXhwcAQBHb+KyWL/fKbBjjzs4Ah0TRWownrDlxVZADGliAChc2+YoVdIYq/DCED3zADIsAxszglI5eAK20U9iDItjw20PfEE7qMMYi7AoiK2xiGnAyRyL/HLdCcMJO4rPhnKXqJWosYpwYqwEpJu0lb5zCy56rhTCGcYleeNS+c34TQzWwtxrgQqLWkAQKSisJYVzjGquAhaFzNWs4USMOI0W1l6QRiBeUVhRJCkctUEHmMpr5S8awKdh28LsmLYMNu1xrLa7xsWRwQhfbLiIlv7RUZk8uAq5IcS/8XNpnyCrKmRjGhTWc4YKLtXJLQscseLbWYljDT0tVQyH+euGNLQt8wwQHxgkunlx2hOOxa5UGv5lEDMSiQRTC0IaOziyqZqzhdAj30jYy8YPSLsPa6QgTMMwQIioE4hOzSIY2xmHyE4NjExcDWw/qvaRrDIII5z6EIySRCU4kwr8AewEYApGJWQjDGuHA8pPVAYziHi0CjZAWk1bcYqE64gwQAMABZnADGZzuCXmQBCzeHg50VN1g3YjFyo/2BmKoLh3CaKBQ7YABsYINC3JQBCp0EY1toGN8hMRGLMLgZhQJDBe4it8sYLxW2Xl+cj9gwyBEoYtnmB71RSQHMDbxhhrsoAZ02AQw6ttrmAsVYwNYgAQwkAEMBP72IkLDID7+0QupU72I5ahGM8Y/DeZ/SRqOyPfzQQQBEIAgBSx4wQtmIH8WpCAEGLAS9gHAgrW3PRlwJ3d0tA7L0Adgt1YhEn/zdwM/0IANqAM6cAMzYH/4B2P7BwBUkHiLB3eOR0gLhCe59Q8DwAI3UII64IA/YAREsIIPKIEvkAIoAAIkcoGgJ3rCEA2NV0X5VV4hKBAogAIMuIJCOIQs+AMQeAP2lwEQMAAXmCJsoAir0AvRoHPtkg7L4AiX1oMGwQI6MIQqKIQq+IApgADmEmZNCCJGoAaHIAq1sAze0IGAklK1cAiKoIULwYVduIJGsIdCOAMmIEBn+DI3cAbbVwvFMHX+WJYO11ALn5AJlWCHDvECXOiFRKADLGBCR7MAGCABTLh/GLAFfXAJsDAMU7gN1lAMsyAKq+AikBgRKPACKfiFbjUDKZABnRgiIZAC8BeDTTgAVKAGgVAJnCAKvJcMwtCKFlGCQWQER0h/K2ACM5ADRmiE9McCMXh92NcHOPcM1iANsICMGTEDOsCHRJCCQbSM5WiELmiNMniLYBMCkkB60rAMrRAI4MgR4riMKiiLP1CEEFiN99d5YEMFfqQIfXAG9xgSDUiJLCiEDyiJMWiBe5OQJYGHYDiED6gDEOmOKEKRK8ECk0iEM0B/GTCDwOaRIvGDIbCSIWAlKPmSMBmlkzI5kzRZkzZ5kziZkzq5kzzZkz75k0AZlEI5lERZlEZ5lEiZlEq5lEzZlE75lFAZlVI5lVRZlVZ5lViZlVq5lVzZlV75lWAZlmI5lmRZlmZ5lmiZlmq5lmzZlm75lnAZl3I5l3RZl3Z5l3iZl3q5l3zZl375l4AZmII5mIRZmIZ5mIiZmIq5mIzZmI75mJAZmZI5mZRZmZZ5mZiZmZq5mZyJlQEBACH5BAkEAP8ALAAAAACQASwBAAj+AP8JHEiwoMGDCBMqXMiwocOHECNKnEixosWLGDNq3Mixo8ePIEOKHEmypMmTKFOqXMmypcuXMGPKnEmzps2bOHPq3Mmzp8+fQIMKHUq0qNGjSJMqXcq0qdOnUKNKnUq1qtWrWLNq3cq1q9evYMOKHUu2rNmzaNOqXcu2rdu3cOPKnUu3rt27ePPq3cu3r9+/gAMLHky4sOHDiBMrXsy4sePHkCNLnky5suXLmDNr3sy5s+fPoEOLHk26tOnTqFOrXs26tevXsGPLnk27tu3buHPr3s27t+/fwIMLH068uPHjyJMrX868ufPn0KNLn069uvXr2LNr3869u/fv4MP+ix9Pvrz58+jTq1/Pvr379/Djy59Pv779+/jz69/Pv7///wAGKOCABBZo4IEIJqjgggw26OCDEEYo4YQUVmjhhRhmqOGGHHbo4YcghijiiCSWaOKJKKao4oosPgjAizDG2KJJMdZo44045ojjARKAkAIAEKDwwg83LGDjjBzVKAETYLBxBhhQRnmGGmqAgcYZaNjBhhpysMGGHn0EMogihyhiZiZoiqKmKKvA4uYss+iiSy+9DDOMMMLYmUwywtRSyRYyIolRjExIosswz0TzzDPWNCrNo5BKE02jlFojzTWYYrrNNtp06s2n24Qj6jiklorOqeiko+o667TTzjr+6GgjjCIwyiHoRTDm0Ys26LDTDjvABgusq78Ka+ywxCar7LHMNstOOtFcogManNxq0Yt6DNOrs9x26+23zK6zjCNyXGItRS8aocu24Lbr7rvsjFOLHXawcK5ELzpyDbz89uvsOsn0QQQA90b0Yi3s+quwv9IM8mLBEAHARDILg6vsxRgTy+02DhMMsUMAbBFNt91ggw053ajTbcYst7wss9rQ6vHHDAEAhjTNkuPMK438scYfnexSjbMuF+0ys95U8jDNNasx8rHd7PLHCTEi4EQjzqh8rNFcY8zsOJkszbRCAKDxtLDnyOIEjhr8QQyzXced7LHhhD3z2AiVva/+sca8oSMAjAy9tdxx032J2HgfBMAZewcrDikJ/P3BLloLS3jhxoZz+N2JFwQAFo0DOw0df7/YSDeDX2403aIg3jlBn58NLDBUlx6G4JarvnrmrXP+ukAAUCE7O7h8UDoAPFCTuu4ts+767/8A8MTwwBhvO+7BMl/0seP0Dr3nSwzvTO1//4E9stqzzL333w8EgBHLGIvNH8d3Us7y6V/M/SrP/w7AD88w1jlcQT4chcEYcMtfxujGP99BjwrxMxY1GGG9G31AFajDnwI1lrkGto8gS1hGsYTlDEYUEEZOIMX5LMa8Y5nDgx8UCBGSkQ5mVUMVYbBeBJzwB1ms0F3+uttf/363gGHUkFnlcMYuWKEKVhijGpVT2OW4N4shvm4AvTiis9RRjihWzFdy4x4sDuDA32ExYV9sF+GMhQ5YWLFzAFhXGvkVRmGhoxY/iiHwdDGOOQbrHNzIhiDBcb9mYS5Y5qgFCjCgx+jNoo9+7EYuNkGIMIThD54wRgY1qD5hJRIEC2gkAB7pR2d4wgkEqNEaVPHDrhkrkT94gShhAUljuSqBIzRWCSOAow9sopW7Q6QufpACUa4iHJzUH9RIwcscfUAWhczd9jxZCx38wJjItOU0+aYE2zkjmcpEZC9uoANRiiIcueTascqhCg2U7gSs8CIYj+bJXjyBCub+3EY6gxmsbjDieASwHzjnJqx09IIJZzCnN/a5zWBVg37HY8Qms9fQZwmDC2wQZSYWKk16CuuhxwPcRNHXvIIKYwtqECUntMFQj/aTEQioXzQp6lKLolSlLNVmTdmhjl9U0Jm5wGUnTXpTPQJAETntaEk/Soi/ESBwQl2gsdJx0pQaVRH61OlO1ZGLbubogPLkVzqGsQUuiPIQWVXqUIXVDVmsIZU1CkAYcjFThY0VS6JUxDVyOc+KAqscuWCEE5p5gjVYwhh1tesw8GrUPuxVq37laTWMwYpXvGIXzhhpxdKRjDPYyqh6CB1JIxssdZCDHGGtWDuSwYbPxhAAjh3+qNf8qEbWuvaDAGCDNWQ72zlysRyJtRxrrfpaOewWsur8IjiMIQtSkEIVuYAi3JaBBjCIUg3HVasr/VUOY1jCChpAQEw/sAhgaLYdy1ADE647vL5OEV6AjQOOnOCKFS6DDTMQJRjaq0BtOssYpMvRCV5xDmM9gw3lNCoWosHXDfaWrZaAa47egEBhWUMO11SwCJHrYGYZw6s6+kAsonhhIohyCxvW7gaPpQ5WuLN0f5ipNfRgYqP+IMU0dTAHhVWOTsS0dG+Y6DX0YIQTS6PBOiYojz0R0jdkQ1hDLrJRiXBkDq/YWOyUsI5OB2U9HECURMDxaHXMYp+W7gGNIEf+l79sVCM8A8lJvuWxqNHUv4nBF8aacSjb/GbeBnGdsvipjT7ACGzkWQ8QECUT+mzl/DUrG6Q4IYwa8AdlHOsafciAKG8QQT+/14aqoEPkYjSETVTYWNcIRDGnnAy+NvqQJDOGKv7whjf8gRTA4EazpGGHG4gSA1mkrcLUwY1udIMbqfVVMuSAhUY6Eo3CjvYd2ZAHZwPAEdqItraHJQ1FYCEQ1saCMKC97S96AxY/AIAerA2AQ0RjHeX2ozd0AYYXsdmoL8rEMsg9ZqOx6t+tchWqVLWqdRSc4OlAFTrCcY1noCIPgcI3AAbgiF5MShuZqpQ1FvUMSHH848/Y057+ikHyYuBJGHSSk5x6UYtayGkWLa9FK2YOizVdQhF2qK4O3ui/F4EhD3oIRB/0kIc8bEkNVzrDGbagdDBggQlLSAELpv6CAywAAhIIqdZfxAI2HALiznYfAOQgiUGke+toTzuO7BX2hOSo7XCPu9znTve62/3ueM+73vfO9777/e+AD7zgB0/4whv+8IhPvOIXz/jGO/7xkI+85CdP+cpb/vKYz7zmN8/5znv+86APvehHT/rSm/70qE+96lfP+ta7/vWwj73sZ0/72tv+9rjPve53z/ve+/73wA++8IdP/OIb//jIT77yl8/85jv/+dCPvvSnT/3qW//62M++9rcMz/3ue//74A//eQICACH5BAkEAP8ALAAAAACQASwBAAj+AP8JHEiwoMGDCBMqXMiwocOHECNKnEixosWLGDNq3Mixo8ePIEOKHEmypMmTKFOqXMmypcuXMGPKnEmzps2bOHPq3Mmzp8+fQIMKHUq0qNGjSJMqXcq0qdOnUKNKnUq1qtWrWLNq3cq1q9evYMOKHUu2rNmzaNOqXcu2rdu3cOPKnUu3rt27ePPq3cu3r9+/gAMLHky4sOHDiBMrXsy4sePHkCNLnky5suXLmDNr3sy5s+fPoEOLHk26tOnTqFOrXs26tevXsGPLnk27tu3buHPr3s27t+/fwIMLH068uPHjyJMrX868ufPn0KNLn069uvXr2LNr3869u/fv4MP+ix9Pvrz58+jTq1/Pvr379/Djy59Pv779+/jz69/Pv7///wAGKOCABBZo4IEIJqjgggw26OCDEEYo4YQUVmjhhRhmqOGGHHbo4YcghijiiCSWaOKJKDLoyBkZpPiVKLMIk0wvlWwBwI0AuHjVGXZw0oswwwjTCyyOPIFjjjpC9cARcXwiiSi6JCONNcv0csogYBBwIwQoJMnUKqH4AQWTkagCCzHajIPOONfAEsgLOA6AQgoQeFmUH5qoUgssp2gSBxAIVFEIKr9csw47iKLTipE4ZvDCDV3a6VMVaVDSyiabqLKJImpUgWMDclyySjLetIMooqsYEWcKM/wwg6T+OqWhRRlpHCJKLb2oEkkkaDxw5I1b5DEIJ608k86psDCB4wIs/OAsrDStMosurWDixyCHRCIKLK2s4ggbNt44ABFg9EHsLLOgwsknwpjDzjqzhAtABq0SQQS0LlXRBiGarHLKKZkEokUCJACBhhxsqLEFET+AAYYdjqwizDNpmoOOOdssM0srw4TjTSryhnCDvUS8gC9KWsgRyCGEYIIJIXqMQcIIvwJAxBYqK4JKL8tIsw06h556ajvaCIOKLLIQYgKOKehAsskni6RIHHEMQskqsKAiyiVm0NDArwM8gcYhq+jS8zbjpGOq0Gyfus0shajwawo/GGG3EVF7FIj+IqegogolkXBySreZCHJGnD9s0UcmtQgTzTVqti255NZIUjMKOhjBxBJ4562RHIcEYofKkeQhhx55oLEFFk+AwUYfEQuzjDbhAD357ZKjA8sAvxKQ+eZLeH6RIoNoAYCWACRwgxEJAKADFipfsvPZtuNu/eTPHP7rC0YssbkOwktUSCFx5EFDzYnLMQgqZkeTptrXx397OIrUDAIR3i8BfvgNja3IHmr4AQZwlDg9ZGIWxXgG5NCxNvk5cHLoQEXNMoA/JjChc/xDCAAwYAQd/IAIOpgBFs6gh9hRLBzpCNoD49eOFjawbe3QRQpqdgPvbS6DBznSAaighkBIj2f+0vAGA1fIQhca0YjYkxeOZtC9G+JwIL/SA5TONo4XEvF2R8ziESd3jT7YD39LWMINnigQHKkBFtFI2xWvp8U2alFy47hEzSBQN86NkYw3UkMvwrFGLLrxj29sGzpWkYGaOa17PyDjP24ECz72UWiAjGQbJdeOYrDBCiQ40gyIcDdFAoAN0Xjk0CRJyixSLhOS2MORMvBBu3nSEY4UZSln6ULJheMUn1DEDHB0gBvUrWR4XIW7btcNZxizGufwIy1LKTlztOITn5AXBF7wQYbh8RTomFw1ZMGIMDjBCX/ohDHKMbllzrJt6ejFJ2AhhyM1i5P7wyEATjEOyVXDEx/++FUA1sCKalDSnKSEYTROMYtBSABHLHCavfA4CG20rRukOEHNbuQEVXTjnwAFpOS0IYpVHCIEOELByEAYqQwCQA2hZBswnDBRHDkhF+qAYUY12rZtqMsRqroRCOpFhBCQkQnJYJs4NvG1lgIAAYzwJ9tmSlO2jaMWmRCF9gAwTWcRgQV4bMUwEcUNPxjVpcaQKVPdiE5hfGIWdsCRBBL6wXia1BHbEBo26PDVG0WAFTFd6lgnudRnnMJNMwRAAERKMjyiVK50rSsAXkEOse51i227hihOcYhd3khkbS1pBm8wjAaCYxGKBQArGqtXyLKDqbZcBScukdN58dSnTwT+ACyyiSh1qMJXX/3ALpJZWusBVJCzyAQq0KBWan4Qq7E9RFxP1Yww1DUMzpAlLdu2jmKcNRCNatYv8cgGaQiNHLKogVEjsImLSpeZbZMGQQdhWQw0q5NknEEvXghRidYsAouIrihHKcmNikIUhyDCjdZaNyP8ALnyFMVWEYUNV6xBA0dSgiWIwdv9IiqgbRsHLCRxCCAM+J0GRrBJG/pQY6iCEX/gwyZyodQHqiOvyvyj5NJRi0DEAbcEttcPoCbPLSTDiogqBziyQY1yVDh+5XAGL3KRC2MUuZz9XWov0oBbAAzgnTqIgQg8WQvaWpgdzlBFHEoQgQh84A+qcAb+jCEZSck9g7hxSijDNoCk2H7CG18GMyEiUDMNECIX5HQsX9mmDey602k/OMCNuJvS/VbDEnxuKR2MseYLN1VocZzbyAS46NiyQBjHEqU6cJFPoyK1xfwlK3Vn8SsUbPIHdK6zPGex4DVywxKK1W2lTytjyQnjBkeCgC91wIJOxzYT2gCyYyWXjTgoFqnmZbOq2xaNqd6oXsWWtUnR8AwVlta0QqOGGUL7h2wI2pSS24ahEepLy2qbf0QYhpelHUihZcO5ig0Dqi1d79xx4lcheAGxceTJVsQy1f1GFDj4ENowmHvZ8VsHLCBwpAU07QYLAMABXpnsbyecHeVQBYT+68oIbny5GGUggACYdoMZoAAAIPDkGbrtcXSzrRnOzq0sdr3Ga0TiDmnIdgZYcIMUUGADivwHCnoxb173WmjlkIUVvroIaOR5HKdwhCSocCP3hnAFMUg6AFYRDite+lTgUIUSWuoHYxxZlOvQhXDZMEAAuFoHWYZtcq1h9rMr/BeLyKfKI8ADSxhDHHlGVDG2ZYeXw9yXDIs5HsFQDG87fdpsU0c1cqGKTnSCFcaIdvzU0Y0hgyPQkpPGJ6RaXKfpIAVJD4EuQo3wQUtOHOUoB2nll2RZWOIPf1iEKkKfbkco8co3wDsGxC6KUtX844/khi32fKQPOCEVzcgwJ3T+0OoZ6OAGAxB7IKTR9zZbOOpTn+gHLKHfU6UDFmxgw0F1SvSXix0LlX++7ftojJy39AGdIHrskAyOcAlwRlUpgAIHlXSLpAv1RG/m10flQAqKtQO4sGbWsHp5UEgDBlIMuEjNV34YdkXVQAih1QgPhyjhgAqXMAjcJy7G5kl24F36F4EIJznNwAOhVQPtxw7mMAuSIAlYUDMfaDPJYHmPBW6nwgxDEFofgAuQJAyiYm3vhke1UGtJiERt0wzjlmtQKDTP8AmrkFZH8oFllAnOB4F7xWygpVg1AAxscw2rZwcZR3BmCAB5QINquIZsE3X29VVvMA1s4w1ZNwjZFoP+YmcEw0B7/JaFkjMNi1Bl6qcKu4co44AKipAJrWWGUERr5zZWkqMOxkAIkvgrliCIbGMOtSAJqMAGdsiJAIBsIsiHp8U252AMliBev7ID7Pd27IAOtVAJtTAIr3iHakBze5hR71JLbTMNuLAIZrADO0AHloALKehUs8AJwiAKIICIDAgAn8aIjZhR61COWtg26gAO1NAMzVAN4MBziHINqAAL1tALXFCF31gLBzeO6GWONvdI6bAMqCAM4fAMrsiJBAEAinANGPV0y7h/j7QObSIK0mAOwwAG+Ch2aBANynZ5DamEFtYO6CANtSAq1yCPPIaQi3QAvWB5uPOPicf+DumADuFgDdHQC6IQCI6gC8NQC3qgkgUhW/v4bYm3Nu2wDulgDmxiDdJQDL3QCqLAKU8wA2pQCafACUBpEAp5DR0ZkuvQDukwk+MQDtsgDdGQDMKwJ5dwCGyABXAyUVmpQUvQLl92lOuADjPpMTaZDMMwJJzgCHmgMI5nVHHJEABwCXxHREcpkukwltqwl71QCwATCGpgBN1YV4UpEQDwA63gUC/5lRfjmFQiDNRyCpLQB3KgLJiZmRlxUmiUTS4UljRZls9QDKQJC5lwCHKwBW/5VawZEs5zCboQDWb5DDMimZnQB2fwA7zjm7+JEuJyBoHJBb1JmM/5Eqt5ndqhuZ3c2Z3e+Z3gGZ7iOZ7kWZ7meZ7omZ7quZ7s2Z7u+Z7wGZ/yOZ/0WZ/2eZ/4mZ/6uZ/82Z/++Z8AGqACOqAEWqAGeqAImqAKuqAM2qAO+qAQGqESOqEUWqEWeqEYmqEauqEc2qEe+qEgGqIiOqIkWqImeqIomqIquqIs2qIu+qIwGqMyOqM0WqM2eqM4mqM6uqM82qM++qNAGqRCOqQjGhAAIfkECQQA/wAsAAAAAJABLAEACP4A/wkcSLCgwYMIEypcyLChw4cQI0qcSLGixYsYM2rcyLGjx48gQ4ocSbKkyZMoU6pcybKly5cwY8qcSbOmzZs4c+rcybOnz59AgwodSrSo0aNIkypdyrSp06dQo0qdSrWq1atYs2rdyrWr169gw4odS7as2bNo06pdy7at27dw48qdS7eu3bt48+rdy7ev37+AAwseTLiw4cOIEytezLix48eQI0ueTLmy5cuYM2vezLmz58+gQ4seTbq06dOoU6tezbq169ewY8ueTbu27du4c+vezbu379/AgwsfTry48ePIkytfzry58+fQo0ufTr269evYs2vfzr279+/gw/6LH0++vPnz6NOrX8++vfv38OPLn0+/vv37+PPr38+/v///AAYo4IAEFmjggQgmqOCCDDbo4IMQRijhhBRWaOGFGGao4YYcdujhhyA6J0ogMwAAQIhnLXPNM63oUaKJKIoljDfojKONMJ+wccMLPxjxQoxejQIMNuigc00vnNhhRI9UbMHEj0BilcYdgmwy5DjP1OKIGkwY0SQYW3BBRJRVVZHGGGkoUsowySwjjCh9YKHDD0xgwQUYZ3BBxQ1kQpVHIH2MQYeawkQjTTGzOIKGETfoYAQWW+B5xhlgjNknU720kogeg0gyyzLbeCMNjnlsoUOjXkYqKaVYoHApUv6bLKPNMrWI0oow2phTozS1SHLGDyw4+sQWkIKxKhhY8PnqUA8EsQcq1qBDDjbhjNMOO+lsM8wpemDxAgtMhmnsqmegAYYRywKVgAwT0KDHKcugw8689KLDq69EZMDjEl/iaeykk5qLxQzp8pSHHEdooQcnvUhjLb3stOONMKvoYQQEGcxARJ2qTkpuuWhc8UPBOKEiSiJy2HEIKro8Y8012oxD7zq8OnJGCABkcAMRTxQrKRoAA4yGuUtgQPJMqywjTS+icPLJLMMYiswvs5ySCzbpmJPMKnLcYCIIN6R6p9BABw0yssoe3dIDZpBCTDjgTPPMM9JIE40wrTiyx/4enwSDzTa9SIKFiQCA4KjPAQ9ddtCKg7GE2iwBQUQVhdSyzTrtpINOOKOKMogacigCyzLfmHMNJywQjkHYxZKtuNmJI5sC5CcdcAQQVQRySjDcrDPvOtr8IooeZ9ghiS7RcJPOvNIEQjgAMzw6NsiKDw372SLTThINVAAhhyOtFCPNNuLQO80qhZyhhiO9WGPOtfQWAwbhIRDxJfXVW3/90MhqL1IigVAEJ3SRDGjYTRnI4MY5sFGLQ9hBEKeYhfsgNq9eDM5EL1jCFiIVMDV4UA2v25/A0ua/jSzjGbrohTKiAY27weITm8DFNOI2C07IQQ6D+EQtinENc0CsGP5nMNEAdNCkK2ThCl/4AhrY8EEQXo96lSrhRpLhDV2FIxzXUEYtPnEIPSQCFr94RjJQsQcdmAgLeXDEJTgBC2ksjx3WyMMBACCBjUEBCUCQgQ+2oD4menBxsOMfFmYnRYvMIhrj8F06wsGMWkQiD2zoQyZW0YpVOCIPRhgACMCgCFT0YhiZEsUphiGvbSgidRmwnw9WQLgNPKGPH3zi2eRUyIoo7X3sOMc0dCEJOajBDoXIxCUGgYYfvEAHauikMKQRjiKZQxvFqMUskhEOazgiBQPIwKOQIIDnmWALY1CDH2XZuMfVMiK9SIbLwDGvaciiECkrRCDUsIUXZGAJZ/5QJiLlBbF2oMMavYBFL4rhiBLV0Qc0eB4ACJCEL7DhoWqQ5SwJds6GsEyaq5AFMcABDmJsYhF7MFUIFkAENRxiFctsJgUpmI4jneKFWMjAAIiAUIUCYAVVgCUgzdY4S1VUIa04BSYOUQhO1CIaK1LFHjIJABRs4aQp5edKV5oOaaDiE6iQAwoyoIOaKhQBSFjiQ3fKU4H9NCGaGGrKApEJWNSiVoEwwgEGQAWoWiMcb5yqXtlhjmHYyhFGCMELlmRTAMTAoWOVqCB1cNaCDEIRbRiDFuyQiE+IQhKBqJQOwDAITzIzr3vdazuusQpRoiEFN/hBDgp7gSqEkw36E/4h0RorkFNsIg5l0EIZBnGIPKgBC0YwAmc9+YxtSDW07UiucleKDmG89BBLuMEMYoAAmyIAC2kQZ2xFKLvGOoMYpCBEHOa5BWDdgLOr6EVxzQFavSr3vcvtZzRQcQpOnEEHL8gBAwobVu2SlXHmyl5FZWWNZbQiEKYawAzOcAhRII9G7Z0qfNuxjgpXOL70CgfTWjGIJczgBzMIgE2TgIY//td1/asly4SBN0WwYQYsOMMgTtGLaOTKd6Gd14QtzGPMwY9e6UjGSzNRTx2YgAAjVh8IT0w2ZDFWip84RSYGYQdigSEQoqixcX+MXPj2+MvJZQfmdHyNWq3CDkRAgf4MRiDi5wmhj0xGsTm1t4BIMeoHWxhElqNhXBznOGLK7XGRBk3oQadjzPMyh3Nh4YhkzWAFFngeAlyrXYkmTmAs0B79sIDllvXZvcmtcDpGrblCm/rURRp1mMV8jaCKgg06YAERciCC6gogBlkAYUQtDUVaQo5warhELUCFDkRLmMLrIHWpUc1sQo/a2OPY8CCMAC4f+AAGMcgBEku8a0tXz3G0M5EjcGUOY4Na1KRutroNfegfpyMaokDFJdCAAlkjoUlbUGIsea04NYCJhAUDQCCK8bA/Axrdo173up+96nZow8x9ANYPNPizP/KaehHNArrUFoJZhIPLfw61sv4V3mxlG1trL5UEGFjAAiNwMH/8HpoH2XCGLUAOC73woV7PwXOQizzdJDe1stsdMVbD4hSoeDGPhoWn6sXcgwE7l9q2IIzj0qsaxgAGL4DhjPLpOHMUHvqyF26OsptdV+hIx7XaEW1bKeIJLxgsFn62XdnuOolgeILajKCLgs/rHM0gxRpOwIEh+EEWzgDH2jPnzLM7/vGQd3yq4YeOaCD9E2eQ7g+YTj1vc/sMR/CBEJrQhCcHfBXa4HI3VHEChQZhEcQQR6BLHfna2z7VYwYexAMbvbk3Pc4gi+gWVkAABOQACRsn2SCekVd1ACMMhQUA7NGx9oSjw/bYl3za1f4eMZSvQhJbQEH97lcuxX6eCgYwEQN8MOeCYaEW4aDXOWTxgehHwBLO8F3YG5/97BsafutwDUeHCnlABKhFcU33MQAGdUzwPDHABEJwNABwCNEAP+IgC21WWDwgC7KXXNbXf/2He8o1Dn7VCorABCyQAvbzcgpINlD3BM8DAkIQgUezBbWgc+XgCgkQfSayCNmwdskWdCG4fZQXDatwCpg3A8fEBBxEKeT0eVgwR4RDJxQVcJdgDdeiDrkwBDwIAFpADG/EeEHHf5BnaLn3cKewCtMGAnI3Nv8iQlCHBRvggEzgUwUjB8LwRtTgB10IA7igeB44dtsndqZWhmaoXP5agwqrQGQhEAKbx0FvGEifBwYx8DwbAAVUoDYZwAnXcC3lQAocwIMP8Iezpzkm92VAN2jaJ4JhJ4Dxlgc/cIC+F4llBXVf4AMx2ARbkHwFYwekNC/MQAg8yAG88D5i6GzPxmPWd33mMA7O+IzQWHZp5zvrQIJ/NUgqaCfj8oTa9QQUoDpXAAZMoDYocAqpxw7lgAt0EH1mYAzFdoyseGgVdnC014zQGI1op3b+FA1BdQpsEHc6wITj0oLBF1FgwEomIgJQcAZYADl58IvswA3qaFMnoArToGrLpmoUViTkcA7kII8i13j36IzSmHZhpw0bdghEoITS0zFPJHOwxf4EDWAiMsBHNqc2L3AKncgO6iAOwGAJURABD/ABTkAKxvA+h2ZyG/kN02AMwRAMzdB150Bh+8eMZUeSZod7CTdGqJAJaKAD47dBtFiLGZcEK7ACSBBOYEA7gVB19CIOzYALqrAJqoALzfANaceMz1Zs6JANwbAJZmAFJxAHloAL1NCBSUmG2peU/uSKrRBxwcKEqkKQBXkGWVAFVKBEaOAtkGMEOgk/mVMOccMN4EAOeWmVuqI53pALcWBTVmAJxFAOaqc5znhFtnmb1TIOupJs4VAMtnIJYPAtj4I4Lylz3aY4nAk5gTAMxhhq65CXH9iMqak5zrAI0ccBi4AM4v5waNdXm7hpmyS5ffYSVFxzKvZDnMXJbeJULlzQfkfDBKLgRu81dCKpm9s3DsRgBjzoApvQDOoQhM34neBpn2q3DtuwaIqwBJHZL+annjSHBlSQadqjB8KAVwWabPVoj9I4auHwCy7QhVFgC+AgavYooM+YmphjDkZYX8E5WEx4J5SJcVC3BV7jPwfwCdIAnct2lSe6m4uECxHQhQGwCM1wDgD6jAN6okUiatswC6LwCWgQAihABEuAnnYnfEQwR/4DAHKgC1XkTFh5j9KYbOIQDFzYhTwQDNv5nPY4kli5pIc2DsJwCSRiIrLWL5TZbxH1BClwIiU0AJ8QDeEgnf7e+Z3jsKTmgAx82IUcoArKk3Y8io8lmZTPGQ2fsAWEYzhV6pKS+Hk06qclBABs0AvXgKTecJunekX2WSTYQAoP0IUIYJHiyaNm16P5eGjeMAtsAC4YoC+pMpaug6VaWkgsEKiqekXesA3Kuqzb8IxpVw7BsKj256jMWKhYiXapJo/rYA7L8AmdcgZKSCdW6oJ72qfnBAB5QKrjYJvekKzMGirVwl7owA2yoJ/RVwa/0ExteqK6ia1DZ2HbsEUmODDhAqz9VnMl8lMssAqCWi3I6q7Leqqrig7ToAp0sIMK9QGWQA3gcJW32a+6Yo/ZGmr+9Ayo0AqYtyPiyqmJ4/5vW5CloFpLAqeuDtuuEBsqElt26TAO04ALhOACGcgDlgAM3ACm4Il248AN2DANzTAN3KAr86kNurAKsNBh0vUoLGucZ8AEKBCz50QEDHus4WCzEZuqh/qs3KAMsrAIf/AHjaAKxPC0PKqq0hgO1IALpLAIi0CXxIAN26lj5lAMqzALlQAGKPBhL0ouMoewXnuugUCz6zq27Yqz7Rqv10ebS4sMxNAM2SAOtRq5qxoOgRcHGAsAEUAHpKCd8NNStVBJdvADKMA6TRh8YEIEMEJbYMtn65qs2tC7ymqzdJuPzCgOniuSqtqv4+AMpBAEhfUBhEC0I0gxjBahOLCCb/64uFzbuBUFAINAqqc6ub0bvuEbKuGJrc7UnZEbr4caDsjQmva3CMBQDtfybqtwVf8YLFU6PSUGJglLWwOBBQzbrGOrrOI7vr97vPf4sNsQvOZAr2cafQ1gCcwwldmiCxE0bXGHtT8DJj9wu/77D9wrDNfArgRcwNpQtgJKtgfcr9ggC6UbfVYQC9+QXOgwRrCQCVwQrgIZdUyAMx9MEGdwSPA6udtgwu9qs0h8s/Cqm+PQwh/ahdJHDRRcZoooBzoAAr3nht6ivbQFAOM2wt/rrgX8rmRcxjmLDuAADFEAxQBABsQwle0QDsKACoyGBYL1iGCCBbbLxbQVxHzGu/7XEMiB7LtlXMgRG6/mAA7IYJ1QzAPAIHvb+gywYDJqcMW9ByZGIAF83MWZgCuhUsSCHMqibMjMmrNlNw2u8MDRVwO5MKKNWSuwcAhGwIab1yUZ4ME/TBB2cFQLDMii/MvA/Msn7IxozAybEKQ8SAfIIJuZEw7bUl9oIAES8AJKCAK4nMsDUazJcMK8qw3B/M3AzM32yQ3AsAjIbFMPIMFrurNGKAqzMAhMUAAQgDPXjM0DkQe1IA3fW8TeDM7+DDNL7IzZAAybYAXoTAi48A3KZg7WUCsBlQdm9Dz2fBAA8AnDcMID3Lv//M3j6w0guw3EIAuWYAYlEAEc0AYxRP4kg/hMUysN1zALciDRE20QoprP3FzC/bzRgiy+S2x24sAN0AAMuEALtEAM0ABh6TYO16ALsCAz4bAKXFDPMy0QFV0M1uDL4ivMJmzEPX2azcgNYD0O5TCN1hcO0QALrcBP1vAJvDjVBFHT0qAN3qDR12ANdn3X1rDVBlzKEkugZE1qGEqb6zoqmZDW8xINnODWCZECn8BDJ0zXdY3XLxPMlFu5xxuy21dhhTa22mANKDRlsNCsRqjYCQEAfYA8nxy+HK3XZWu2TGyftdmu1xANySAMulBDmZUHKKULpL0QMyAKyQAzYqzXhNzaqRoOB8zN3uzN0bAMoFQL8hYIbP6wxyZCBHnQ2wwBAHagCy4NyoFMxklsm2Wr2tYQDc+wDMVg27Mgb4cgB0ygyYWF3Q/xApzAQ9fAz6z9u+2q0dJQ3suQDM8NC5eVB1sLATwo3xMBAGewCsEt15Mr2zDD33ZD28/dCl3ZW/d14AieEQCgBwz+MssayHbd3ADeC627CpygCFVmzdG34SDBpZ6kNNJw3hUuCpeg4k/A4vHt4iUBAFygCKKwCqU1Ze59yy3O4yzBxkheEzK95E7+5FAe5VI+5VRe5VZ+5Vie5Vq+5Vze5V7+5WAe5mI+5mRe5mZ+5mie5mq+5mze5m7+5nAe53I+53Re53Z+53ie53q+51l83ud+/ueAHuiCPuiEXuiGfuiInuiKvuiM3uiO/uiQHumSPumUXumWfumYnumavumc3ume/umgHuqiPuqkXuqmfuqonuqqvuqs3uqu/uqwHuuyPuu07hYBAQAh+QQJBAD/ACwAAAAAkAEsAQAI/gD/CRxIsKDBgwgTKlzIsKHDhxAjSpxIsaLFixgzatzIsaPHjyBDihxJsqTJkyhTqlzJsqXLlzBjypxJs6bNmzhz6tzJs6fPn0CDCh1KtKjRo0iTKl3KtKnTp1CjSp1KtarVq1izat3KtavXr2DDih1LtqzZs2jTql3Ltq3bt3Djyp1Lt67du3jz6t3Lt6/fv4ADCx5MuLDhw4gTK17MuLHjx5AjS55MubLly5gza97MubPnz6BDix5NurTp06hTq17NurXr17Bjy55Nu7bt27hz697Nu7fv38CDCx9OvLjx48iTK1/OvLnz59CjS59Ovbr169iza9/Ovbv37+DD/osfT768+fPo06tfz769+/fw48ufT7++/fv48+vfz7+///8ABijggAQWaOCBCCao4IIMNujggxBGKOGEFFZo4YUYZqjhhhxeBsCHAHTYlh0sgPihiGnVcgkaRiyBhh5ygDFDiCiKJUwyw6AyCBhyDFIJJ5k4IkeJNX5VSzTRDNPKIXL04QgnoqCCyidColAkV4WUAkw0wpyiSCCHSPLJKae0csqUh5xB45VW3VGIIqXUUksmgwzypChRrqInmZkEQgSbVe0hiCCS8HnIIGF+MqaUjK5yiiiSqLEmoE45Igmhn5TyySF6DCJJJoqSKeqZqIhyyiWDLEGpU6icUskn/qjAUookg/RxCKhjmjoqmaWKQqWkqyqlCi6ttAJLL7qgokinYuLp7LOjlvoJqkYEexQhm+ACjC7FJNPLJ4OAeQmUz5aLJ694UonGpNb+JMchqyijzTfXPKNiIHaSq2ev5ur6qK+cDEJFu0D5MQgnvVyTTjrhDLOKI/hKAiWjUvbrLJmfpCtkCATvpEchhWQyizTmtJPONbpcEkggjlySMcUVW6xrxgAPgkXHOLkM6izMjNMOO+Ysc8ognb4KK8wxy3yKos5KYocCONOkxyayzNJLzz+v440ujvSRhyKcjMkr0jKfyzTAh/zAbtQsDSKKMNBwI87PQCdzyiF2sAzl/q5jJy3z2XhKwsbabKOUBiW1KPNNOeqww047KDuih62Z4Kmno7syWna6Z3+SySFEEF74SFoEcsow2oSzDTXUYHNNl4Pk7UjlqFyOeeb8Wqzo2Y8KLvroIA3yiS7WaDNNMbO0QkstyuaRx62W2357tDT/vTvNih5Cxe/Ab7RJK8JIo401ycDSpyK0Ou8plJcXWyyj0U65+fU0954Hx92D1Asx0KSuTTS1CMUh9mCEFGDhDE7iBJlW4T5jvQ9pUqqe7q7nrOxtL38e0cY2uPGNcEijF6fgxCUUwYYFLAAMgQBVmYoFixa6EBb7Itv86HcuSN0Pgxt5xja2YQ1oEAMY/q0IRShKIYpDbOEGcniSlFjYQmO50H0x1NwMKcg57XEPhw7ZRr2SMQtVkIIUp2jiJ+zABDsUahUvhIWxHLVENKoxirmzWNhoaCob4g+LE4nG/4SRPFmoQhWzqEXyXHWGMygCFU58oStQYYlIIGIRmICVA1uxCimWjX6A85UV8RiRYUhjGcOARayEMYxh6KKFreKEIrYgh0/AYhYvnIUrSLGINnCgATAogyAwwUA1UtJvE6RjHSWRBxBw8iHFeEYxYKEoVMhJlJ77RCUKsYc2AMEOYQzkK2GJikhoIQEmigAdKNFLSq5ic5zDZA0/t4UrHjMUsrDFLESBCU14jklo/lADG+xwBy00AER5yOYsBgoLV2yCDv80EQBGQAdNlPOc6MQk4BRFzBccUyGbsIQlNKEJTGBiEGrAwg+owAZ82QELCj2DKLZJUFhY4ggKBdEI/BCKJ6JzjhJdpxHdicE2CMISf8yoHbaAgh+AQXi1EIYwzNdOEBnhErAQZCBnsQpCRCCmIKoCLx34L5nhVJ0VrOhFCWIEn35CTqEIxBFS8IMzHAIVvViGNKxxjSStQlIggpec5DQLVBDiAVj90AYKIQqubu6rdFQUkNLE08KNoQ2HCIWZDgGGJWBBDpI4llyvsUNvaEMbz2jF4D5kB1futa+EQEBgP2QGTbwSFmQq/htiqcg0aeZhBhfVghbuoIgR5gEMWzgDUoeRjLlqg7Pb8EY4wnGNZaACpQCYgSLQuNdWEMICqwVAFRzailZ1tV+zpWBtOcFYTm5iD3s4RB7QsIUnqEERoqgFcaNB12sc174aDIc3rjGMSoColauo7iJgulogbNW7spXo7nyFvUvo4QlYVGopDqEGIxhVD5dYRS+GgSRrzNXD17hGffP7P13k4UMogG9UYamJNGTXwAxEsFcVXFvsqVINC8hfgGshCjpsQQdbCAQnrMZh+n5YGkhGEn3pqsEdCi10ADhDJlYx0FiUwg8iWO12YxzbGSuYc+sMxM2A9wlOOA0MT0DD/iFOUYtiLEPJSPZwkpUMZ/x6wxq6GMSHXnCIlQayFZjQwmrL4NpKdhm8NMbeuVpFJTbglm0lVcMWsMAjR7SizW+WRjTm/Iw3K/kZoH4GkpCM32TctQIhUEOGq+xXIGA1AoQok6G/W67wTrSOdfyEIsDAtgUUQAdGAIMePgE+N29azkgC9TKWnYxkhDrUo66vNIRxiTPMYAt93iYsNuEHVyu0DJhApIzlSOMaPgpwl+iDqjr2oQMIl83CSOaxPfzpZTO72c1+tqiPfVwA2kwHaKhErLS5CUKUAbAAgIEWECHrcSM6pzUUhSYgQQhERFLXamA3ANTgCFTo4kbP0PSR/pPdaXvj++T53vdcRUw+UVQYC31Y6YphiwlE0IEOFi9TCw9Nboj/ixOGKIMWqpAGQlwCVWO2FgocoeH5yjnJnC75vVGO8mgf9xlcs/YWOh5VQXZ3aS9DY7Fo/XA6iuoTiSjDVQGAgDHsAROSkEO7Nr6KYXj66ZvW9L6VbXKqU30Zov6wqeXwYzlkYuC1aKHtmkhJdDIYrP/KhB9GYCIEaOEQlRjEFqwFADvM4s3WCH3okSzyaHTa2fZeht//Dvi8Y33XL8CC8FoxUFg+sVj7uumXcV0JMwRAoR6owyUqIXdr9UEXoLcGkvBtek2bXvXJSP3qT77swCs/GajIAxYA/l4oJzbQdnHsOeQf5U2sZqG3RrSWHD4vjWtIgxnAiAUpLj0MZTj/9Mlw89RXb+/Af1IXlXAGljV7uCc9lpRgPkcm5RdTK9AHmlAJamAlq7IFomB3cwUMm2AGJWAFdBAKuNB6z9dsxTCC+4dy/Xds0bBMmgdwjiBrlyNDh7V7orKAMZUGl0AnTGAthzAL8oYLdGAiQ7AIttB6yiaCI6h/0Ed9J0h6wuByS/ADepAJLlhJMON4tnYuj3IJLoZVWlAJkKImwYIGn9AL0bAMuGAGChWEQ6hpqgd9R3iEqReHrTdX0mAvh4AFN4BtY/KCVah7CSgKnOAHCKdQXegreWBR/sESCLAAeLUgaGm4CWRYh6rXLfn3hiQoh4BnfdOGCnbwhHZQCS7YhzEog+mCCFWAVVVACXiSKtayBZcQb7ogCFhlBqowDKI2icVQSpb4hnKoiVjnCD9mBIcwJuZEMVZYbnW0NJHQBoP4IQGQBpPQKpKwedYyCLCQDMJgCc34IQSwCL1QXKc3gqVEXPi2iyd4bNJganlwAwcABo6wh1F0jLtXQ5+ACI4oU3igCdJIjdaSCd8YCz8YU7TYem64iye3i6CGjtGgC5LABAAwAHrACYjEh/K4exlDJpjgB0cgAB+CAGUACbEFjATTB7AgDL2ACT4QUw8QCrZYhuVIieWI/nJHyHyklwytsC4AkATwNZGV5HiAmGjpUkEflQZHcARtkAgKFEKHAGEEgzDDYAuIoFoKtQi68Ayox3pJCJMmuG8LKQn/dXgF6JO21jkXCTCRUAiIQAmacCaicAnFhDOrQEqxIIhTyS2o14bV92z3ppXNtmx5tww3uWduw5MVWW5zlGtldpGP0icX1DGKMAtyKQiDGAGWYJeXCHjRl3rPh4vkmJmBFw29IAkH8CFqcHgTWZg0dpi4Vj+i8Dlq0lgowgm6kH+xsAhmAAMw4AeqIAxW+YbRVwy9oFQgp3cFOYLRp3LLUAty8CEhIDyIxHPil5qcoJqsOS07ciJR0wen/hBvxYALVgZP8YaLfYk8mrAIlhAKtkBcooZ/vnmcmjYMnKADH7IFkhAlojKKiTad1Gk2qAIGGACbReII8sVsyHIjSTieurAI3sYBcVAKcbVp7DmTrWcNyzALgQAiwyYl0GkuY7k7+tk56VIJh4AGEACgV3JWImh3OHKgzsZFaAiEVJlpEUqJgPeez/UhWLCT9xmd0nmYtSUJabIAJnol2LRhbjgMSoVvgCcMreACMTUElUmEBdmX67kMunAI7RaF9kl2ztKhHopTvuIrn6MGRIJBgbAKH5d/SCqcBoojqjAEWGUFoxBXtxiTfblpSdIKywkAWHAIe7OheOKlikWd/vekBikwpICCBZKQVLm4pmxKXKH0ogKpCsVQhvhHfVXaC5wABjggBHlwCf7CoxI1nZ0DJIOABiGAqJQSc7WwYY4qnJDaC4QQWAgQo1bJopmJp8lpMy9ABUImNlzqpT/JNIs5CGyQAaq6KofQCq7KpkoVq6lgBYFlBrBgi2ramblKh8UgCnYwAxnABu+4o88iqI/nLEFyrMk6gZdAZM5KSm5WDAm6jR8SAaVAXKo3jqVUfaNmerWgCGrzAikkNhyaaNhTPaqErum6KnIQXxvmrKWEI8IwlxwZU5UZfdc6jt2CgtJQDKgABgCQAu8VKrRGsBXUpYowJNg5ViwwCE3X/q7D8K7CkAp3gFUVO4kYS6Mqh3WXAAZ50COggmsVhIyrqUp2cKgJay1qwAmt+qqkZK/AmQp+QAAm4gKhwC24aJzH6X/XBwugiipiAqzpNI8ZQ1FFm7JjNRAs26yP2i3LUAzCoAq2+QAP4AKEsJtuJoLjiY2lJGohNm2ihAqOcCvAijFCe25mZgfyebQEgwWVcCxM667RNwy9UAuqEAqWsAm7CbE3Mp7CgAt+RAvBKVef1AvFQl7vOLiFG6hOgwNme7YEoQYM+7gv22y6iCxpWkprKwyyYJtDYAZ+YAq4sGRYZyy08iqjMo9d1jVG0LquOxArq2EN67Cz22xJ2qi5/lsLi8ABJmIFQpgMSDIMsMQJfaAIKgR2YKUreNI1UNa8CXEGQ6a20vuy4oi7azsMsiCpIMIBhBAL3guajmIHdqAIoQJx6DstfbC+7JsQecCwwdmuzzqODkxKbnqPJvIAhhALciUMqyAJRjADeWA05xtb0/JgzJvABMEEltaqDRzBLCzBkRpYD0AIH5gMtTAIqsUEfnq+uYYqT1DCJkwQYmg1ttvCwrnCLlwLsxpYULAJN/ItW2BUfQDCmfQop0AnTfXDCyEBpqPCutDFLNwLYLzCkCoMpSCtgeUH/FsMKqIIikA5VGQqrWLFPozFBAEGIsPFXfxxzhrGYAyrdzsL/qkVWBwQClvCpFHiCJ6CKxcTx9epuJzEqmGcx15cxHzsx/kXswGpkoSQC6anC2fSJ2Hys+ibCbs2x3RcEFQgCZcGxpKcx5Tcx7Bqsb1ACmYcU4CAC522VKewCl9yCDdYQ6rksY58UaUVSKzcyq7swLNrlbqwCWWAVX4ww8mQLL4SCJQTNq05oqZ8ygfxVipsu8g8yY/qtFZKCnTQjFD6jSlIulFSCSsTJpJAK8I8zGNVmqt8zOEszk3Ltm4mDK5gCXRgBb27CLjgvaAGr2PCPIfQB3qQB2rgkNvMzQehB6LwcXycz8msi8dZhqYkC6mQCrGQC8RgeqAmubVDV7rA/gl2AAapGtESbRBUsKwWzcfgjMxgPL2td5zj6GmhZkp6gg6PEw2wYDP0nMCtVAszTdNKTdNUOmrSp2RH2Au1A9SOIw2wYAcvbRGDwGZ6vNQ0Lb1YG4fNFsmr4IXm4DjokAyXkNUWQQSHhNREDKt5HMav3MWwpCdmpgdboAjP4EG6wNYYsXWoYDX5HMl5/Exv9HOXgMh5wAZUcAMtDQBgACuArRFgoAhlgtRdvFdNVCrTWQmOoAixwwZYQAQ/wAKjmV2V3RFG8MEKpCiLLdp98NAzgAISkF0mstolAQA6QAU6UCK47dK6vdsKNdzGfdzIndzKvdzM3dzO/dzQHd3SjD3d1F3d1n3d2J3d2r3d3N3d3v3d4B3e4j3e5F3e5n3e6J3e6r3e7N3e7v3e8B3f8j3f9F3f9n3f+J3f+r3f/N3f/v3fAB7gAj7gBF7gBn7gCJ7gCr7gDN7gDv7gEB7hEj7hFF7hFn7hGJ7hGr7hHN7hHv7hIB7iIj7iJF7iJn7iKJ7iKr7iLN7i8R0QACH5BAkEAP8ALAAAAACQASwBAAj+AP8JHEiwoMGDCBMqXMiwocOHECNKnEixosWLGDNq3Mixo8ePIEOKHEmypMmTKFOqXMmypcuXMGPKnEmzps2bOHPq3Mmzp8+fQIMKHUq0qNGjSJMqXcq0qdOnUKNKnUq1qtWrWLNq3cq1q9evYMOKHUu2rNmzaNOqXcu2rdu3cOPKnUu3rt27ePPq3cu3r9+/gAMLHky4sOHDiBMrXsy4sePHkCNLnky5suXLmDNr3sy5s+fPoEOLHk26tOnTqFOrXs26tevXsGPLnk27tu3buHPr3s27t+/fwIMLH068uPHjyJMrX868ufPn0KNLn069uvXr2LNr3869u/fv4MP+ix9Pvrz58+jTq1/Pvr379/Djy59Pv779+/jz69/Pv7///wAGKOCABBZo4IEIJqjgggw26OCDEEYo4YQUVmjhhRhmqOGGHFoGwIcAdNgWiCSGKCJaAIDAxiGODHIGiCeWlaIdnMwijDC6zOLIEx/GGNaHW1xSyzDLSGONNcnowskSJvrI1YcpDNKKMMlEc+Q111jzjC6SvNCkk1h9KAcnuhQTjTRYYqmNNdIsM0sfX4JJ1YdqZAJLMc8YmeWRRxoZzTCiMCnnnAAwIQksvRRpDZZ9SuMom9EkU8sgcQ7K1IcZDLJKonruaU00oJ75jKiAYlGppUh9yAYnQz7D5p7+jkrzzKig0hppL4r0iGpSH54h5DCjLtqoo9HMOms0y4zapjCoUHHqrkB9aIQjrQB7JqzEhrpMsqNuO+qsuOoKbVAfDtAHKokKy2a2oSLr7azJJHtmpLCg8ey4OdH5SS/JWLONNliy26673iYTr7zgSiIuvjp9CIYktfR7jTbebHPkwANvW/DBytLLxr0Mx/QhEdQOE83EFf8Laa3G0qpxsgZzXOyWmaAAcsgslXsupwD/q83PjrbcMsEbyyxNpLXAiTNN+vJrTc8/Axyw0EO/vEzMBns78zCfEHHz0iX1WknEi16zjc9pYjkz1d2+jLXRSFMKdkvSlnwyxWgzevH+2lQTfTXWGn/7TKlfz90RpoOge7c2Z/+sN58ss23134DLu62klBZueEaqipIo4+Gk7LinkLNtrNVvZ82tt4BuofnmFX2Ixdj9bhNO6BWPzifkfAvtd+oHJyu8pI4sDPtGH/6gSLXWeHO7OeN4k7vUpH/ae8uTA88xx8OsYu/xHOmMisnejBOOOejfLn3jae5+PfaoA79tMfHC28slELwOvkK9eh6N7edDH/TGQUD1sW9PkZOc27Q3v+Alo3ty0N/+DCItSegiGdoIoADRMQ5zhONsoTNf7tKUQN/FT37LoN/2esGJGUhwgv8A0Q0+IQyzhWMc6EAH+jrIDWxYgxn+zLAGNjIoQse973QnTF0Ki0G/q11tGLPIwwv3R6JLJGMbHdQh9KAnDmxAAxeq2MQmVGELYkhDeqHbRtBM9wyrqVB+THwjzHohCiZMcXMSkIMiHIEFOehCG1kUoDnQ0cVcbIIMH3jAAz5AhkXgghkA9Ib1TPc77cUrjoB7YC0OcUewASAEg4iYLgZRiWSEI4cC7KA5spELQnygRACIgB9U4YxteANgR3tf9iy5RPoNo4ltpCMYOskwENlhFtcYxzIkcYpoqDKV4+AGMhbxSlh+iA60YEbotJHL3vntjcD7JRMfqMInbtJ4MATRC84QCFhYIxzSyEQrrIFDQaIPG7H+4IE1QRSBReTCbFnqZtUWaElxMlGc9VtGL1AxTBgS5ENJsIMjMvGJU/RCGsm4RDOfuUVwMGMTD9gniKIQC2f8bGVr8xvl5GfQYgzjlwfTJCeJKacP6UAOjhBFK2DRilWsQhdcykQxzqdFAnoDGYAQKYkaoYw0sctlSVSiQV8K04Qu9GMT/BAL0KCIT6wCFrOoRS1agYpToCIQg9BFMnOoQ/MBgwxKBREcgFE2lGqLoNprKVXL2cZi6KISLgQfACSwhUBkYhWzSKxYazGLVXwiE4OwwymW4Y0dQi8cb43rh+CAi7p2E1S7LGgcXfpSviZLGLCQIuxkpweNgnUWulj+bGJncYoWsSGtyRRkOJCqWQBw1rMZi+rblqFXhHoLZrr4xA9oqqGRSVSnr10sY2fr2Bb14RRDDeQ4oLGJCGh2rsBtl3DfVtxx1g9ZoxrGOT2ZAjZ0FRWvTSwsxDpb+aICsno4hC7OyFZ0cIMWTohrP5sasM+GNq+jNa7llPWMXqwCqyEDABgMC135zgIWGK4vdUXRojxwQhhYZCs4lGEJ74rUCSV92rrE+zJwShWTMN1WrUTVrV5UQgc4A8MhvArW6WL4xxpO7CpQwYlD6CEQrVgGUc1RjmvgAhAmhmUDLAEMNAWUxXgNJ4ybuAxkRUMZMfZTLVTLsFV99cI+5in+hlsR5MaKQhKD0IMj1LrBcECDFoBIACw54EhmOE5gB9byOMtZrAfaQhWuiAUuhHGmYXDCa2XmxJkv/No187QVbNbwKoo8iECcIhmV3eE3vrgIREYgAozsc/s++01LXtK8wLwaLkhBCDEMIQp02IQttlWLQDC3QpL+MaYrrWZMZ5q6qJCEkQ/hTg2azxrIAKMYSYELZDBjGowC9HixZtBkqJBWwCCFGARAoh0QghbERYXrGOaIU/j0FJb4BCouTOmdGlvTojjEIDwsDCISEHrbwAYQgYgmx60YyxpzNXEx2cRiLUMVdLAmEBZhi2Ho4hAhCJm8RZEIM9QhEhW+9KX+jz0Lsha5D0h+hi0JaFT1iS7brG41LzHp7XiBqhfU3KcUSuFSVLyIYV3lhB8a0AAoIOIU872wsZc+21a8ORA43W/5bkf1G45DZeuKeaBT121gYtQWcCDAPhtAiF8sQxeOwEDILqEJOogdAFdIBGIZO3Kml5zI+g4EKpJxDefhTnrSKzCroZrl4Xa9fm2khRiUWgZ0J2MVavj1hEhpiJB+yAyHlS9PfWp3sirbDsyOBtVTdjaLWa9dxlKpq+N1+NWpogpKPUIqtoV2FIRMEorgEYj2IIoMX5rzS+/pJxQRCH73PY1RE5g3t07eBAMz8VZQ6ghCQQxrDAMV32P3HEj+hARJILbePV1F8HtaiUPYoZ3LYNz0uCkrNspctHGM8ayWQYuIixQIpTBjknwdMkUMQvcfcge9B1Yj51NrZmynQHxyUAnCcEbIt0ZsxHyAo1depwy5sAhKZQWzByrCkAkZ1399cAMg4gOR8FU7VXdfJWyORXx58GlmkzsQyDaq52rllTWgUgykEH37ZAa2UCWD8wkiGDKDoAhzgAAgIgjQdYLB92OwsAoJqAdloF/R4DyS9Cls1Ebbxm0JVlo210a4kHN75k9WMjinwAKSRyGQkAhpACJm8An2loIHOGw8dQqXMAhyoAYf1ncAM0kyKIExs3Dxx4XyEg3FoAp+YIT+JCJLtoAnWiIMn4BjS1MJhZAFD5AAbWhvmAaHB3hptdUHZRAIs6By/yJQVDM5LsZ1U7VXNvgM3qYKhGAFegYAMDBLjKgluqAICwA2inAJiUAHZlAI0FV3bMaExoYKn+AIemAHl6ALT3NlJTSDvFRcpQVMycCKxTBrlkAIixAKtAAsbEJckHeGFiIJn8AJlyBvJ9iEpeBukyZsZIVferB30rAmT3Us0JhX0siFl1SN1VgMwtALvUAkRdImUHQIAyCOFRIInCAK7iaHTsgJiZBT8KV5l8ZhfbAioQhzGOOHMZOP02gwwIRekZIMjrItvdAKhxBYhiMJomCCSigKe0D+A0DQBpkwb3S3ZvdlZHZAQ1diV6CVhVnjkQglDPIHWrSSDDgiCnmQAeiEM5kgCqiwdLDwCW0gdghgBpcwd5TGUxwGdYMACyRJjwYGlAYzjaRFVR9JlEXZJpEiDLOQCS+CkBkyCJdQVsYGC6dwBySykz1Wb3jXB3mQCbpwMgHVTRzJeluIlkMpiN3yDP4IC4fgNXKpITt2CnJ4ColgeQDwAAIYX2v2dHJwLv2yh8RymA8klOJ0I4x5SbpwCnZwkJOpIWxwjpa5ZpeQBSTiA4nAZjcJC0TmCFCnCL3wDDDXJmRJToGomOOkltSYJLVQCcPUlLBzCJyACvA1h75GIm3+6Jk89Zd2IArC4Fnzl3CrB4gHpZzjpI9XgyOrcAg6IJ3gI5E4eQljQCIPUAhIR4AYhgqgGUpWsoe9s3qnmZxomZ5VtZ61cAp6gAHwCT6tBZUEeAqIAATayQmW9mNExoKZcFHO2DLlKZTmJX9ICQtwCSMOZRAKiQrfBwuioAckcgGIEJVqhmGr8GaRFQirsAzCkkvwsnpmeZYfuY8wIwyroAiSeaIIwQYs6VMltwqYwAZvBwBIiIk/toKD4F61YCUHx4oK55HmlUKXhCOo0Advh6QJMQhPyaQ9FQlm0AAAQAB0kIRy2Ap0aGR6cArD8Ci5JKA/WqB8Faa1cAmR16D+ZuoIn9CS4kdWlHAHQ2AFhcBj4+d0khAIoFcLOnplK/ViBPqlrJhCqOUIyxWb0KIHLKmiX/WQiZAInJAKLpmOTcgJinAIgbAvWqoll8NA0lhOMHM1ujCmAUCoZjoQg7CQ1glfPmWd7iZyc2ideAmreiAleXI0WJipQbmFXyo8zyAMtfAJgyqq+IJTxGqdS2eAwoYKi5AIleBub2ZkH2Yk0kqegDNayKk6yPKYjuAswBqsBEGXUFlWp2CZPkWu72gGOXAEj3oKwzcIiVMlkDKtE0hznFqvRDoINuOtS+MInFBR//qvARuwZBUJJvAhMrAHC5kJRuYItRCtDjc5vQT+kn/Kq6IQQfmqrwZBqp+gsaeAqKYqfqsQCRcAIhygBxRlWzQEKu/qRuZVc8eVrc8ZnRY7N4FAm/8qCi1pqpmYCVdAIjAgCJngCGygA3ZwJ1ZytBqTtFnTLY95CKFKsxZxBoqQsVNLtR7bhDBZIkggCIogBywQJJY6L+O5RH94XinUq2Q6s2ybEFGrsVQrt+LXhKgQCVBQIl+ACIfABqAntg2LhX/oRFjYC89pL4Z7uAnxtoq7uInKlXBin30gCY5wCYZqqdnSoxwjPPa6tqKLEXpAunHLkLXZU5RQnySSBZGQsceoOPMCKsHTRvVKuGV6uxmRuBtLtRtLgKiQCEj+QCIDUAgZmwmSUAmz4I1HEzjFsrycALpPe6JoQJ04u7FmpWb5JoJseAmiwAmcYKiJMoap1y2fCoDOyxFyBrfsa1aN61iCUAIgUgUgJwrHeAjVMjBoyyyDEAKh278OsYs3y77FOsCfIAhIQG5lYAlllQmQ5QiwMAw+CFp+FbMmSsEcoUfEW6zWCXx0Gwm+SAiboKKfIAmXcAh2IpDE5bmS4DoTzMIOsboL2a87K4d0uwktSbeVcAmcUAk1OQsAWQuiMAhmeL7OO1GHyrsbq8TChpMV1Qu6sAquewlwJsRa3L+OoMP0e8RIrImZmLPy9gzmoA10BGdxucYUrAd9MAj+hxDIh6AIlSDFR/yvyKrAmcAJxcAO7LAO4fAMCXoGRIwSKVAAHyIBLEAEVHAGaMAGzxoIgRyrnXZkrYAOjgzJwlDJK9FbADAAEvDKAOABkmANOiQNrHwTIgUCjoAKufzLwBzMwjzMxFzMxnzMyJzMyrzMzNzMzvzM0BzN0jzN1FzN1nzN2JzN2rzN3NzN3vzN4BzO4jzO5FzO5nzO6JzO6rzO7NzO7vzO8BzP8jzP9FzP9nzP+JzP+rzP/NzP/vzPAB3QAj3QBF3QBn3QCJ3QCr3QDN3QDv3QEB3REj3RFF3RFn3RGJ3RGr3RHN3RHv3RIB3SIj3SJF3SJn3SKH0DHAEBACH5BAkEAP8ALAAAAACQASwBAAj+AP8JHEiwoMGDCBMqXMiwocOHECNKnEixosWLGDNq3Mixo8ePIEOKHEmypMmTKFOqXMmypcuXMGPKnEmzps2bOHPq3Mmzp8+fQIMKHUq0qNGjSJMqXcq0qdOnUKNKnUq1qtWrWLNq3cq1q9evYMOKHUu2rNmzaNOqXcu2rdu3cOPKnUu3rt27ePPq3cu3r9+/gAMLHky4sOHDiBMrXsy4sePHkCNLnky5suXLmDNr3sy5s+fPoEOLHk26tOnTqFOrXs26tevXsGPLnk27tu3buHPr3s27t+/fwIMLH068uPHjyJMrX868ufPn0KNLn069uvXr2LNr3869u/fv4MP+ix9Pvrz58+jTq1/Pvr379/Djy59Pv779+/jz69/Pv7///wAGKOCABBZo4IEIJqjgggw26OCDEEYo4YQUVmjhhRhmqOGGHHaoIAAgetgWiCQCICJaJWJQooknjkWiHafookstn/RBRYgtfkViILAUo4056aCjTTKnoIFjjlqBOMMgtSwTTjrrsCMlO+Y8g4oOLCJ5FYhGVKLLM0+2M+WY6CzjyJFaRkXiFpLoIs047Yg55pjthFMLGFmm6RSJaHzSizXmRCllnITOmU40kqCpZ1IvrjKMNuOkMyc77ayzTqFSphOOLlvkuahRIKIQyCzLeIOOnIamo6qlcVLaDjr+0Zzp6adBgfjDIU2aKiaqY6rqK5TtpBOnprO8MCutPYFIhSO6RBOOoLy6Gic66PwKJbDtmLPMIIoimxOJaqAijDVwTiotodSm6yu1wKazzSwsHOstTSTKcUox25gT7aCEVmppuuyqak61l2Y7TCDyzgsTiX3Aksw2kkbbr7+WrgOwuukMXG2l7qISr8L0AnADrs5KOmm/Fads8cXVmqMxtuYMY0fCIKOkLLPk7suvyjyz3LLL1Qq7TjrXoNJtzSaRCAYnwlyjr7lTqvxrxT6j4zLQBMc5Ti9s0Iz0RySyIa435kA95bDWTr0yy1e/LDQ60nxy9NcegTiAHagk443+oFD3m7baGl/cNtZQDh1OL2d4TfdFSjpC6jh8mztxsH+vurbgg7NbsDnRZDL34haBSIQkvUhTttn8Ejp05asGjnnbAV+7jS54gq4RiWf4ec2pqJ+tOuuWu57u4FhXa/w4y1Tyue0NgfvJo+j0TifKwEMp/PDEv0wwOtvUciPzEzHcipM69+438JZeb3X2Gg987TjPKLI8+AXV20o05UrfN9qsr6P++tmjlvaEVIslKI5+JZKDMMKhP+lRrn/+8xn7sAa0IGkqGfI7oO1KhIVajEN/4KgGNaoBjnJAbXWVi6AEJ4iOcVQQSOaQRitmoEG6rQgAldCG9KohC0as4Yf+f1CFMUw4PRRaK30+c+EEzTEOFwqQWuE42PwWd8MU6KJ8UjqHMRZxghV9YA2yqMac4mREX6mQbUtsohOtZjxrtCIENawZAH6QAhI9IRmoU4cx/pCAG4LICa7IRhHLiESWKXGCanRZEzU2DmEgjH4FwQAY9GCHOgJADtFAXTUYgQA/ksgJsiDizlBYSDQiMpHmCMcazWENUcARkgIBABX64IhD6AEMcjiENcymDll00ZMk+oMzBjk0qiVxiUxEpSrdZw5vCCMPcUTWHOXgiExwohKSuMQhhmE2cDACmCU6wS/U4Tue/Q+ZalxkOFS5SmmIYgHR/NQL2KCITHziE5n+uIQ2W3G6SVVjDeAkUQI6cQ5i/uuYaVQmO90nJK7Fc1FgGEQ1OYFPfdZTGlBzhhMCSiJGdMOgVQMg+9LpwnUu9HjRkNtD0yQHRVTCmpmIqSMcoQhdmGxO03gDR0HECHAQM6TITGYiTbrI9nUvcfTL5Us5EVNsHmIQn9jlpLDxh50mIBQfLedBV3jKoRJViekKxzI8t1ItHaIS+sznJWiqiEPYdFLn6EQfA3qCUA4SqOhMZyq/qsh0XYN2ZUWSRCWB1kxgUxGB0EMlMDqpXUSBo3QYpu/8hdeuqvOrTgzcOJKhvMDmSBGFcCla1xoIO6hhFv2cEjk6UQNwhsEWBZ3+7OVeZ9mS8nVggTNH92oHvj7QIQ8uzacjAnEEAAziGeZyxiZa68cTkEKMd61aXr26zkU+0X0Z4+wU55UFJOghuJUYBJ5SMIvoTWoasXjDB0r0gTe4ArqyraxlXUbUCgKscO4CLP1K0AAkBCKbmVCEHECkB8ZOqhvGIMUfgEgKY2Q1vlU75Ej1Wl/sHnFa0bjEdr0FIjQoQp/DxRILapHaOZ0jG9VIcTfIOUYyynfCRa2u21QljnKU4xzCqpQ37uTZFomOloZVhBpANAgDN3B6lXpx9ki61yYSbB3nEAc2nEEMYjADG+cgY6w2LE0C0FOfksgDllAwi5seGWWzBVj+UPXa5IFZ6sTEUDAc4PCHUhADG+qoE6d6fCIQ6SAQ1azEIYwEgEMYWX+q26opa9tmgp2YFn84gQBI9AE/0CIb54BbJVAASQAQQA0fJq0RAAAGXZjXfGhOc7okDGMlylhV6AAHLcTgSTrYIhvqGIcukAo+EB1hEGiVhCLacIQqcEKqLZ4cxRRN21bb1ok0RkZVgQkHYpQDHc/QMAJFRstKVMIRg8hDHgbRi1OnLtUpUzLxmNxoKIEjFr/05AdSwY11eGMWWOCziCIAAzs4wttrHcRTRXGNZPMsZf8TqbObPI6gpYMajQgAOAUACGdQK3769hALrtDSbEpCEodoqyL+yt3igxuTq4z+6vaQQeuAigEY5VjHNlaBJfqpQRD/9jZbBxEIgvOKjCYPKauXTGEZE0wcyNBpQHuQC3G0YxzD6EPGOzQGiQb74zQNOcnpZPKEr7noRocS0gEa0CM0PVjXUCn9AqGIfx8itDQNt88NevJFp7y+jm4GITgaBWCQQ8e1yDf97DAIkN/hDgJXROK3fraeRfjrifSGSdnpcGyoIgIBBQQ08pwtYQwYkmwfBBuqwIZAhHzg1/j5skOqcKKDvbouhDU3guEHcNJAFtjYXDKkPnUO5eGpapABENoQcrYyfpSsD6pQFyn5yRfVeNRQxWP9yAFLMMPpWkvGzHr+zyGB2+EGA8DCHtqOetUn+fHTVWPzne/CNZajGaQoQydLBANLAIMb7Woknri/IcKLFwAgwAanx3bH5yrJl37MN3mwt0zuww3NIAuEEAUnEAFD4AekQAz4dylDcw2wgAJc5i2DMAh2IAEAAASmdwiHkAdz1yvqtm56tX7sV2HpUA7cgAzAgAu2gAvIUA3iACwW4w3JkCj8xyGEpwf5BgClh4KKoAjCYG7sAGt252zj4A0wSFTNJ3kNZzzlAA7c8A0l5IM/+AynsH+wJBAhyAYkyAR9cAi1NAirkHpRsy73BXmRp4AmRYXhsA1YyFBBEjSEEiTjcA3DIAps8DFl+A/+fTAIRgiAAihyjtCEjSeHP4OAU2iHd+gN26CHYZc115IOgbgMsBAIHjiEIhKCdsACBxBRbfVUp6ANqMIxv6J8JOVCVXiJmKiJJxU0Q4MOeZgMs3AIN0Aih0gQiTgIZ8ACVWB6bSVwwtBPZOQrsshktVhdVJiJeMiADMVE2/AMs+AInfKBiyNwgVAFVQBcbdUHuVNwkSgwdNhE06hKeKiHzfd8UOQN0aALnLB/pKgleoCCgkAHhRB3baABctALzsgx0fiCljiFkiePsAc02igNvcAJAwaO4ANoiVAIiTBTg5AGD5AAnKCO/NJ6LqiQduiOeTiP7Tcw4xAO1tALhFj+IsPIEITXdtgkbBWJBsfXhwjYTAvZkus0j0yEW94gDcLQCoFAghYJS4PQdpeATY6QBz8AIp+gQ1PShySpSEx2kk2kgIvUcEx0DcmwCocQL0tZhnJQeI7wlIpgB08AImqwdRwjQK5HXZjVkkC5kk2kDctQC4pABMI4kxLRlJKwloVgBiRgN1UpJ5RDl4OzlV6pTkzGi9oQDb1wCUe4j1+TiB8nCYfZAPXShLuyi46plQqFWck0lA03DtsgDbrwCfqomXRDmMLWNSQyAK3ImKQJQOzGfmB1NVbDmkZ5ChV5loJJEITnbZXQB2ZJZMXAO3MJML2Jmri1Pk1kDcWwCoH+cACBeZwYwYbedgj6WAVy0AquOCi72UKniUrDA0XaUAyzoAhTaZzeaRCmt5aOsH0AgAV2kAnLAJ2rQy1sxnCEI0DhIJbdOGr0WZ8HwYb6dAhQYCt5wCPeoJsCU1T0xZ7rMoXPoAuV8JYLyqAHcZ9rZZtIGAj+CZ3BQjy8SI9Y2ZrCwAmJ050iyhGHkE2OUAhXwCXiBgsVip50uWprZEG8+JKoAE00WqMcYXo4KgfcCQBMgAXbBJ1YuWoVBGvmIJaoMAhKKZsieqOFeQhaACIEAABPsAraECWwyC4F2kLewI3AmKRK+hG/h3V9AAQksiTD8EGUYikCwy7psg3LoAv+kjCfXjqn/yBwhekIenAES6AFcqAHsGANwjKSsBYk4RANMfqNIYqoDqEGAjdTinAHbaAHfaAHjtALYSImFZMx4SCRojBkcuqpIhGpiYeCT2VLopAM4YAOl3ItWToMRyqTtJoSTKAGebCGKBiCZ9UK46JEgeiLg6AinVqsExECRnAGbGCqwIYKsCAKpzALwjAMySAMv2gs1WqtFQGAVAAGdqAIrZAMwwALlaB4Iqigh6quC0EiOsAGomA6QIgKisAGVGBJ+joTJJIHurA3MSQMsDAIB3sTIGIHtWAN2jAMrRCxOkFqjqCxHvuxIBuyIjuyJFuyJnuyKJuyKruyLNuIsi77sjAbszI7szRbszZ7szibszq7szzbsz77s0AbtEI7tERbtEZ7tEibtEq7tEzbtE77tFAbtVI7tVRbtVZ7tVibtVq7tVzbtV77tWAbtmI7tmRbtmZ7tmibtmq7tmzbtm77tnAbt3I7t3Rbt3Z7t3ibt3q7t3zbt377t4AbuII7uIRbuKEREAAh+QQJBAD/ACwAAAAAkAEsAQAI/gD/CRxIsKDBgwgTKlzIsKHDhxAjSpxIsaLFixgzatzIsaPHjyBDihxJsqTJkyhTqlzJsqXLlzBjypxJs6bNmzhz6tzJs6fPn0CDCh1KtKjRo0iTKl3KtKnTp1CjSp1KtarVq1izat3KtavXr2DDih1LtqzZs2jTql3Ltq3bt3Djyp1Lt67du3jz6t3Lt6/fv4ADCx5MuLDhw4gTK17MuLHjx5AjS55MubLly5gza97MubPnz6BDix5NurTp06hTq17NurXr17Bjy55Nu7bt27hz697Nu7fv38CDCx9OvLjx48iTK1/OvLnz59CjS59Ovbr169iza9/Ovbv37+DD/osfT768+fPo06tfz769+/fw48ufT7++/fv48+vfz7+///8ABijggAQWaOCBCCao4IIMNujggxBGKOGEFFZo4YUYZqjhhhx26OGHIIYo4oiGAWDiiSaSGBaKB0CAYooqbnUiEYOcooswvZzSBwsDEBFCjFed+AIaitSSzDXjrNNOOuNEA8shYGwB5FQnpqCGjc9sY0467HTpZTvh9DKIDgBM2RSKWwzSijDSeGPOOl7GGac3tYBRpplIoXhGJkZeEw6X7cgpaJfrRDMIjHgKdSIKeWCpjTmBBjropOyMAwuiifJ0IgtnKDLLMG2+KSmlpLaTDBp3ZprTolfq8syj/oCSKmuc2hyaqqoyoakmm24qOeuvcY6zCqa4tqQnn0f+yc6owLbj7LPODoqOMEvcWmxKJy7RaC+vQrossF9CK260crYjzaHXonTiDUTWAqo36fgKbpfj1vusoN58Qmy6Hp2ogxyo9BKNlrHOa+/B98qJTi0pWMtvRidiAMYhsAwTTTjoMAsuwhyTG2c6y8jh8MMUnZgBG5/ossyjGjfb8csee6mNJPuS/NCJaa7SS5sZzxsuzEALaukAI9usEIp5rJKMNuPEbDDQULe8zqlFG30QiooMo6zP5UYdtaDWKFKz1QWhOEgyXHItqNdfyxkOKmOTPdCmuqSt9tpswyzo/jq9GFG13P+cqMc1v5IjDjbYVNONOpTmrXec7UQTyN+Am8jJOLKeY8wrf6yxxh+M/FIN43g7zjG++lJOtomw2D1oN6+s8cGLHzRiDDmDmn66wrr4DXhCrLsuJ+xRvHgiAX8YQzrkuiNc7jJ2qG61ia2YM6k6uzhhPIoI/EFN7s3bK6g2jsRduSPbTFrNH9u/eAIr5ZQevrhC18KC9EYDoEY0kyqjffso+kM15Dc/aMkpHVT7HUIAMIBeCK9Lr9AAAFGkBGcQsIBOY0fYzCc3AIgiHII6RycIMMETOcEYF8Sg0IaFP5sBIA/SEBQ5XkHCEgLACRbsGgYNKKd1DMNO/gq8WgqE0bJdnMCGAAjD93S4w4R9yVAcXN0qMCcnZ7wBiYzoRgpVKKd8RXF6gSCcnL7RidlN0Am5WN7PmphBdPSiWkE0CAB+MIyWOeMPCABgBDoxQCaysWXmykMLXQgL68mJHLv4gwSNV7sc+vGPqPti/g5hjUGRwxidcEIESCiAD/yBFn18JCQVVosXDPJhAMBCMeD0OmOwohOM6AQrnBE/8P2Rh3FaxzNEFkc5woKK1ytHN8qhRlGOUk7WoNkp+QUAR2jjbmu8pRPjZI5ZSNKFVFhGyzYmTfrlrhhA7OXcAFALdNytm7jM3bmuSbJmekNt6MzgoMLRCnaiEgzJ/thm4+IJrnQMYwvLTJeJdGFIWcVzmr+SxuTESRAAcCJ9tjwoQn8lLHsykw3RAKRE07kxYQCUoQJhoDAeuNGJeqkc1aCGM6hRjXMg8xABFegpwqGxksqzHM5QReec8IY/xGIa1IRbTIsFAD1U0pjSfF0u/hAB2jWCGLhb1jDOMFRcAWAGI93iLQVVjl+sAYB/UIaXrjGIAYA0pL+sqUQHZQz2TbARWmQHOkRBtLMC4BAxRCobuUqKRQKQDLmglzCwUFVVXbUYwtuooNZnwwSUwqXskFxhM8U6YEYzqXIyxv9K+Ie4jiMTB5hsopopRubxM7NmLCEc+piOWvxAtHgC/gA+1XraOGkWiXCIKztCBlszmagWBb3sMb1EjTAgsRHgkJnYzhq4h2p1h4ICByMSUMIIuAKylTqFRQW6P9p2U1Dq+MVm2/cHoHqpta+1awODSy90DiobpOAAAN9gC+yyg29nkJJdZ+pdzMqJGpsYwvbEYAvdEqoXdmADc4uaV9N+d1DVsAUhwvCBD0SgDJYgRnLlZI5WnIGqdn1BVh3s3xBOoxm4kAUukAGOYnbJGpeYgQR669tTNE2vBZyVOnZMKTcCdLsCHUSDhdtEet0NHcu4BIoWzIRhJPbB8pTVOsKRjE/YCcjM/OVzdRcug5nDGsNAhSLYIAc10Hi0jigt/pG5zDVnfXkYsFDEj4kgB+aW7QmIxXHbfLakcEhjGKcYxI9PZGc5AkDLeu6Y2taBDm9IQxeiCITfllzoBaZ5y7ubVzrMsY1o6OITdmgYpSsNvNli2ps+27Q2kvFpOWTgRaRuyEDZu6yXqU3VrL7ElUcda1l/AqJ6hac5Vg0LXRuv1xIBgBwymsI2t2McxFbErgmN7IkAAAS9MCc08QbtZMS5WrCutkUAMMVth2sc0khGKw4xaGqL+yIAEPK2nYVuYaybCMd+t0bm6GS1oSMc1rB3H/DNa31vBACoAGE/AS4MHd2v4AbnCADQ0O9SpQPgOcqDKSEe8Y6YSBHRYKWg4y4ejRzpYQHh7vhITuSIZdy4S40uOSfyIGp3q7wkJxqEyqxhjWXoghNmTvnNT3IiJgxCEYfoA6qEPnR1mUgSp+AEG1DA8aY7fRXCqIUjXmD1rnv962APu9jHTvaym/3saE+72tfO9ra7/e1wj7vc5073utv97njPu973zve++/3vgA+84AdP+MIb/vCIT7ziF8/4xjv+8ZCPvOQnT/nKW/7ymM+85jfP+c57/vOgD73oR0/60pv+9KhPvepXz/rWu/71sI+97GdP+9rb/va4z73ud8/73vv+98APvvCHT/zijyggACH5BAkEAP8ALAAAAACQASwBAAj+AP8JHEiwoMGDCBMqXMiwocOHECNKnEixosWLGDNq3Mixo8ePIEOKHEmypMmTKFOqXMmypcuXMGPKnEmzps2bOHPq3Mmzp8+fQIMKHUq0qNGjSJMqXcq0qdOnUKNKnUq1qtWrWLNq3cq1q9evYMOKHUu2rNmzaNOqXcu2rdu3cOPKnUu3rt27ePPq3cu3r9+/gAMLHky4sOHDiBMrXsy4sePHkCNLnky5suXLmDNr3sy5s+fPoEOLHk26tOnTqFOrXs26tevXsGPLnk27tu3buHPr3s27t+/fwIMLH068uPHjyJMrX868ufPn0KNLn069uvXr2LNr3869u/fv4MP+ix9Pvrz58+jTq1/Pvr379/Djy59Pv779+/jz69/Pv7///wAGKOCABBZo4IEIJqjgggw26OCDEEYo4YQUVmjhhRhmqOGGHHbo4YcghijiiCSWaOKJKKao4lAAtOjiizCuyBSMLr7Awo1cyHHIJ63AwskgLMQo4080tmhjCigYccYgmYhSizDJRBmNNdd4M44540jTSyAuUjGkTUUC8AIAKSiZRyanzAJllM9Ic4024ZiTTjvtrMPOnXjeiU40l2CBxiBfrhTmEkaEQMQZeSiSZi/DsOkmnHLWuY6ddOZp6aXp8JkHoIF+VOQBWGChwxZy9KFoK7o0+kyb1mjjjZz+c07KDp3tXGrrrXmio0seWwDQaUYvLkHFFmf04QgqsPRSzDLSTHnNNnGmk86klFaK67XYWirNIC3+atGLeqwyTDSPehMOOnXSmu267GIbTibdejuRiwN8ksw46bSr777solPLmPLO2+In0tTK78G40qqwtZeiIwwWRgQsUYt9RGMwwvourPHGDOe5TjJqnCFxRC3Wgg7GCXOs8sod39nOMnKAMTJEAIDxDMqXsqzzyjlLk0fEMzsEQB7arNvNN+J0U861Oze98aXWcBu00IFsgy02rDTyxx+NvGJMN7c6Lba6lkYd79QKAdBH0bd2s8sfJyDgogZOkOJM2GM7fen+NZKcjTZCQ19z6zm0vBFmBIzcnXPeTV+6zSd+/20QAGdIY6s6xqwRZosRdAK2pYw3buk4sEQuOUE1F3xpN43IvTkATuxia+g7W+pvCr6ejtAWqltqjBOvu9jJ0qDTzrKl6QxzxA26I4TFMhfj+UoEwbf4RzWLG68y8sWcAXTzBS3QS/TskPOKANUDEAb2xWvPMejLsPE9+AMBAMvJeZofQPrrZ+++xqCLRh4GQL+CAIAT47jULk6Qvj98Lk//e1/ZpFbA+jnCG5dyhuGCp4Hh+S+CZMuTNbiUuwoCQA7WWF0nNBC8MBhjdiBc2KW84QjTNa9m0bCVMf7guiJ94BX+D8RTDAFoqXCgwoa6E5PFLkWOt4XpA51gX/uG2DJ2kG4AJSwgAGYAPVuRwxiNcEIECNCiD/yBFVKEIBVlmCdz6MIIIKjgQLhIvjx1wxis6AQjOpGLahDvg2tE3jC2sAQ5CmQGwsjXtchRDqWpI2VrVBj85DA/Lc7CHDibVSTZKEQBvsCQ/wDAKbxRx4xtkpMuE2AWtagIbZSSXackogj1gMTTBe6V2YqlLPGkDUXUUnKUsxy/dPk0S3kDcqsEHwCI8Aw7LQ6QxAwhnoz4y78BIATJcKYao6k329UCi6A0QjanyM3aWWodvTCCDkCZgmEoUojl7Gae0pEMNBTSkAD+0AUmtxlPneUsfpWkHwBaEQ5y9lOCAbQDAfGZCVIa9KBVLBuXQAmAQViDfBCV5LpGWE20AUANwuRnP/Wljb4l84ZGuNlDicmvcIiio1Mj0zhFGs2DoWMWMA1ai5KB0XgiLB26+MFJm/cCd650k9hSxyNvBTImULQX73QZN3HVDWfs4qrGqAY5LhUNO8gMn5c8aiBXZ4xOhOEDETiBE/7wCmxMEAsUHWX0pro6VoQBfTA6wSamkSdvKCIEFFXENnqqy0uVQxbAeyIpHhgOXw7VlnoIKTxjqcMwBC8Kt8CTOeD1WGBuQaU0HWueyqEKFgavEVtlRzqO2FlrsmCmkz3+5aWy8Yf0SeEYLquFDlrrUQDwVKwgvFQ1LFu9E8juTsPAQhzl2KJiRFWTlLUUNZSQvggclx3LUIOXDDmARAI3gsIlbvCMi6cRooGitdhnbJFqKXDUtnpR4OudtDEIkeETFgUNLRUNW9rqNeKB21DEFijKCVd+1322cgYhgtcDXOSpsSwI7DUIy15LlQMYZthcD1gRxMbmdGYnlKxUo2upbgDjDx+A0QPEoIogssPDvI0pE6KhzRHL1lblMIYq/iCGE2jhDaQAxh95eYgPj2yLv9VvDLF1Dmw448nZSC3UBnGDGOt0AMWo434zCbph2GEL6zQkBoZRYxuPjcvsehz+FdAwA3YKA3/ARTPGzFELKriIomGVs55ttQ5t9MIOL4prAveMZjqlwxzh8IY0hHGKPuDuzvjsg+AInUtapQMd40i0NqwhjWQIoxetEIUiAhEzMJyBDTMwMogR+Vw5G8zQmb6GNKwRjWQMoxewQMUlSH0GMIeJWGiIMCgF0qJKpBBldFpHOy49jm1sOhrLSEYvagGLTBxCDyHbbfpUnUQAgAAWVqu0si+taVovYxi6qMUpJEHqLRDhANvm9rBbhAVYXCOqy05HprUx61qju9rXzjYI4j1sjrjICJnohTQW/gxpq9vactCutrddcJK8iFR5kEOvURBvK1fcUwBgwyGmvvy6j+cEYiZPucpXzvKWu/zlMI+5zGdO85rb/OY4z7nOd87znvv850APutCHTvSiG/3oSE+60pfO9KY7/elQj7rUp071qlv96ljPuta3zvWue/3rYA+72MdO9rKb/exoT7va1872trv97XCPu9znTve62/3ueM+73vfO9777/e+AD7zgB0/4whv+8IhPvOIXz/jGO/7xkI+85CdP+cpb/vKY/0pAAAAh+QQJBAD/ACwAAAAAkAEsAQAI/gD/CRxIsKDBgwgTKlzIsKHDhxAjSpxIsaLFixgzatzIsaPHjyBDihxJsqTJkyhTqlzJsqXLlzBjypxJs6bNmzhz6tzJs6fPn0CDCh1KtKjRo0iTKl3KtKnTp1CjSp1KtarVq1izat3KtavXr2DDih1LtqzZs2jTql3Ltq3bt3Djyp1Lt67du3jz6t3Lt6/fv4ADCx5MuLDhw4gTK17MuLHjx5AjS55MubLly5gza97MubPnz6BDix5NurTp06hTq17NurXr17Bjy55Nu7bt27hz697Nu7fv38CDCx9OvLjx48iTK1/OvLnz59CjS59Ovbr169iza9/Ovbv37+DD/osfT768+fPo06tfz769+/fw48ufT7++/fv48+vfz7+///8ABijggAQWaOCBCCao4IIMNujggxBGKOGEFFZo4YUYZqjhhhx26OGHIIYo4ogklmjiiSimqKJEALTYYgg/vODijCtWNSMYmdQyjDC1oPJJH2o8MQMWOiwwo4s1KuWiIsJ4g0467aBjjjfaWBONNMsk0wssnBzCxhIsACDjkS0mCVSLmTyTDjtstulmO+2sg8444VxjZTLJFNNLK6cokgcWIaCQQphkmllTi4Mks6abjDb6ZjvppDOlNtI88wyewswiyiF5nEEECigQWqihKQEwwCzjOKrqqmzCyeY6/utAak442lzzTDGY1tJKJoOcYUQKZNJI6kcAqPEMq8gm2yac7bAD6zqS0npNpcnsuGcmiugBhg4oYJHBkcNiBEAm3ihr7rmPOhurpFNuI000y1zayydqgBsuRQDMgg66/Pb75rLsROnNMJfYe29EKQizL6vdkFPNN+eo4+/EqqYjTSbCHgzRFsmso6o61bzSyB8kd7JLNRSn/GY0kmAxiB0aR4TFMs022s0uf5yAgIsEOGGJMxKryuzQNavsJjq9BKLIIDE/BMAN0hTdJjm7vJFAsB/8YYzQRHft9cTSeKlG0w4B8EQ0UrNpzBrBuigAIyg36vXcdDObrDaS6BAC/tkNFWtNo990QkDbLn6wS9CP1q3416puo0iZfC8EQB/aNOrMG4TPyEg3ci/uOdGqanMI5JEnBIAj5TK6ywmZuxhG3Il/Lruj1wxCeukHAYBKOI2+okHrLSrhTOeyz95o7TPgrhAAtSzs5i4RAA+A8MQX/zmj7UgzyNjKIyRBLx6r/oH0f8C+rPXGLxtNIH10j5AOHTdazR/Sd8I59uhf72Y6xdjRvvsFMRXNGlWOV0Qvc07YxTmql7+6MSodvTgD9wA4EADMIBlpY5MzGhEAwn3Afgxs4NwaZY5aGOEGFCQIAJiANkepwxh/OOCRPmi+84nQgYwKBypuR0EAoOFv/h9zRifEML4AaCBrrKhhq26ouEZt4xM8BCAABnENZHXDGbvoRCdecTJycI2JdDve6ACQwgpmQhsZbJQ6ylEOxDkKjE1klDX6EEX3AeAU4Uhjv+AYRzetDwRlrGAtzGG0gPERh+oLRBkCKZAXCGNRKTtkH1u1DDvogZH/SAEGVSbJSbIjHcJgA8wCCQAUxA9/rmJVJxfHKHPogghgYGQpnxE+G4LOlqtEZJvGAYsQkJGUWzgWKnN5w0aFgxN17F6xpBFCYqLveI5IpvKmiMZhOjN/jbLGGGVJLqldk4nZ7IMEMAmAVvAudt985sr6gAVy6oKQ6Exn8bCXDDnIAZMp/hgGJJcoT3W2iX9suCQjTVlLfvZznvvrxRYmmEIAhOCUuDwoK1tZCyIkj5REoKU1JepJduhQmrgDABaEGU+OhpFRTwRp6QCQh2ukzaT6c9M1tklKRVSzpDDtWjhVGrk7esObOe0oO9a3N1nOAp4RNam52hENOaCBnL3YpyFhyq92VPKejHyBPjcqT3+B8gyjLGOLhvFSjk4MHa9cgixZAFGDdnVivOQp31YYjYJO9a1wheIvxWqsZhJzVWskBzncmENJyJVsAAiES7maS1WVwxm50CIrduGMctAumnttKCdumtRVqqoarAjD+AaXtVcoUXQQICcey/pNRzmDEawj/tMJNjE8mR7iCeQcJGM76ahqWOJ3bfvAJu7HJu2FtYw6eORuJUlAVowvczvAhZukEYhAYFIHA8Qpbxk1v/otkE2VvIMsiZBd7R7Sck6Qnhiw0aZhsCGWpDTCMzLY2kbl4rmti8I0WqULI2S2h1Qg6XLB2Khz/IID0otC3NoxC2DJkgvRWJUzHWUM/GYODtxgEzpEcdim+ZCZyPJso5oRBuAFoBFeZAc6MvEtWYIhGRQToaO6sYmdZe4DttilI3ArywE0r5ADVpUx4tC6RrCXTeFQxHEbejogApli5cgFHdoWgTcQw02is64sAQABVD05Zd0Axh8sDIAdNOLKfqwu/jlbdAZdbMOuXz4XOaZxC0v44Q2L2AQu9ssoYajhqVtuERtOIYxoeCMc5nhSnFIZ51WdoxzgiHSKGYWOWvwAhWsmAhO2IAc7DOISqICFLoaxjGhYQxraCMc4FN0sPTaaUd74BAr+G0giUIEKIAiWDqigBjn0IROnqIUuhFHqU19D1ZFqtauNtoxB+BeTuZNeiw6Qgi2gIQ+HAHYtepGMYmvj0Kw2ZMrCMYs8DIII0IaItFuEASZIUA/ZhsW2u23qb69aqsgKhy4GMYhMpFsj6wZAu98tiVDXgtj1RjajP2mNWbBhAGo4xL9FEnAAEGELZ4A3J1px8FJH4xm6kAQTuVw0gImvJOAo+AEY0HCGJRjM5DEhHAiufQYkwfzmOM+5znfO8577/OdAD7rQh070ohv96EhPutKXzvSmO/3pUI+61KdO9apb/epYz7rWt871rnv962APu9jHTvaym/3saE+72tfO9ra7/e1wj7vc5073utv97njPu973zve++/3vgA+84AdP+MIb/vCIT7ziF8/4xjv+8ZCPvOQnT/nKW/7ymM+85jfP+c57/vOgD73oR0/60ps+hQEBACH5BAkEAP8ALAAAAACQASwBAAj+AP8JHEiwoMGDCBMqXMiwocOHECNKnEixosWLGDNq3Mixo8ePIEOKHEmypMmTKFOqXMmypcuXMGPKnEmzps2bOHPq3Mmzp8+fQIMKHUq0qNGjSJMqXcq0qdOnUKNKnUq1qtWrWLNq3cq1q9evYMOKHUu2rNmzaNOqXcu2rdu3cOPKnUu3rt27ePPq3cu3r9+/gAMLHky4sOHDiBMrXsy4sePHkCNLnky5suXLmDNr3sy5s+fPoEOLHk26tOnTqFOrXs26tevXsGPLnk27tu3buHPr3s27t+/fwIMLH068uPHjyJMrX868ufPn0KNLn069uvXr2LNr3869u/fv4MP+ix9Pvrz58+jTq1/Pvr379/Djy59Pv779+/jz69/Pv7///wAGKOCABBZo4IEIJqjgggw26OCDEEYo4YQUVmjhhRhmqOGGHHbo4YcghijiiF0BYOKJAJBIFoosmqgiWCjmIUotusySiR5MnPjiViYygcoz46Qj5DjWCPOJHSjouGNVJmIBizfsRCklO+2EI40wq/TxgpJLQmUiLNtMKSaV6Ixz5SqBYMBll0sBEEg07YwpZzvtjHPNMKgMQsSabBoFACzoyCmolOuEYw2eemzpYp9EAXDGMnEOKik76RApTCuDLMEnozwBoMg1k4YaZaXSDIOpEZtyehMAs5gjqqj+caZjpamKoLqoqjYBQMQwkQ56zjmvTinrnbMogkWquLbkJqhyqlONMq900skrylQTrJSyWlPMLIecgWyyKAGwyjhyfvNLI05ogAACHzjByC/dXBtlO+iYo20tnKDxLbgiATCDML1K2c0rbyDQYgJvyBKvvPOuM442ydSSiRos7MsvRwDYIU3A7JCzixMtovjGL+owPGU765ijzTO6ZKKvxRdfBIAo4YyJzR8hs7iItSaLibLKEeeLYswdmVhLoGK+ckLOKH5A8px0ykunOdtEowsnciwAM9ENOQqpmN90YjDTJiLQSTlQ06m21FRH0wsqgVR8K9cSAeCINmN+gzP+2Sf+sfDJage+9rXtmBNONMKcEsgAc9PtEABH57033wD8Ac6Ygmc+eLD0hvPMLGps7fg/AFCxzDpjdtMI5SYy8reUmsceNeHh6MKG6HQDcIg1cpLzigasn4257MRf600tSTY+ukF/kiunMWtQ7sQuaRNfvKjWXGKEHjosn5C/wqQj6MBLMx1BJ6/Pa/36mwtqTi2HiMKG9wgBoAfvg1bDSAQ5a8CIM9Vj3/oGhY5kSAIVaKDfQQBwippJyhmdcAIBUIQAJ2wCgMMToAYFlY5lOKISWFBgQQAwgF6Ib1LdyIUl6GAGJYSBEbvgWQY1yD4ODkMPfRDhCNkAJ1Gdoxv+2aAGNarRjZIFkIYDHNM4agEGMOiQIADgRJh6JigkIpFKJ9uGKGaQoieSDgC6cBUVZ2jFAc4uSut4Rqa8KBAAgCEZHKNSHGFVxg2ekR3oEIYansBG0jmCWYBrX6jqSMN13NEbq+AiG78kxkAGbpCE1KAhA5YOaShCefTzVzFOCDvZVTGShbwjOnohhxn0UXfSICMoVxm4dUxySt5ARcVOCYtxcIyVuGzlK7EVDUlg0nvg46T6cplLV97RHMPIAxFOqYdU+oyYuHTlLqMUjlksIQOnbOAtoblKad6xHdaoRAi6+EQSmvCZ3IykNKdZuGXo6ZQ83GY6CenNzS0RDEb+OKUUVTlPSdYTi3TSxie2tEgwNrKT/UTiOicZqXZ0MBA/OOUb5ZlQDaZjnXQypJTG0Qs05HORjpiiIyvKvoWiTKN0QiRBvWi0gw6TpOszKcoaWslLklOHAHjCJtEJU+tdFKMX7RU6hiGHF5zyEIBEaE9l91NvBrVX3phFjmhpS54uVXMLXYeQNEqldFhDEiC4qQiDadWrCi6rWg2qlIaaBxYwE38jNava0LrVM4YDFkvo3iK1WVa50rWu8/KqKDIgVgUC4ADn7OtV//pToarRrYuUQw/j6leTCumpUjKHLsCgV5Z+QqRKlSs7GKq2yxpTfdoYbGEzaVB+wvSlpd3+6jTTOAjGLfJRFF0qQqeU1TNqVg2dLackHEjZisLOtahdhQ5WC0zICRO2xn3VIwn1DEf8cnluhKNr0znGKJlDGHYILk4DkdTQ9rO7VApHLbAwgFNKwnnbJeagytGN+pbDiHJahzQyIQHmYhcAlyBufFk5PmfIwhONYMQrYohfYRUDoqfUHZQkNc9mOUMVa1CXidq1CWMAS0ya9WiE2eBMSOZSTs6wRPlY9IE/AOPDUtrGKW7g39GdKAW6eO6kCDymamwCeDl7wCKocbJo1CrCJpJEiQlHyDGpAxggI9sHXIG2UQlDDlRAMgrQsApr6JhzNJzXlMBhiQRQjhAyHEf+K6Za0BlgwQhoyIQwtBEkKgoQi1OiRvQoB4dpSEkbl6BxHwWCgidsIaxgOAQqhmGNIM1RurGTo5iMEWW+kUEZUnJnCAcNRRT9QA6Z6MUytIGOR0O6oXdkB6VZRwYMrqMXalgmp5nHoi0cAhbJsEY4Sj3G6UrJGWZgHSCwQc1TbKHGnG7R9k7Ri2hswxymHpSvpZQNQlDuAeiL0ledOGuGtGgAcpBELZJBZ6R19xyqgAHfdmCLefWiD2foNkRaRIRbDyMa4UhHtEOV4gcw7QOdIDYeWwEGyMp73ixaAKhrMWpeM+wczmiEv1ukgUVgkB2AVsPBLdIiW8OC0fnet5j+1NGMTuyAfyaKQBQ6oQwjtuOG3N44x1k0Az2cQhejrrOo1JENYqSiEUAnBTAEHqVxrOLYMtdIyNQg7lyPw+GSUscPudGNy4npqz9AdtLrxqIlBAIVvXjGs1FnsnSAl49b/0iLUsCGS+iiGNcwx5cltQ1UHCvtI2kRFg6xCpDPXUwFPIQi8U6SFj0hEKLohTS8oW8ORmMVeog34U/SIhSAWhfJGDvsxpGMVlyiEoGY/EpaBAZH9F0a15BGMVrhiEF8ohWid0mLfqCGQAwCDeN8giQqEfuY8K33NMkZ8IdP/OIb//jIT77yl8/85jv/+dCPvvSnT/3qW//62M++9rd5z/3ue//74A+/+MdP/vKb//zoT7/618/+9rv//fCPv/znT//62//++M+//vfP//77//8AGIACOIAEWIAGeIAImIAKuIAM2IAO+IAQGIESOIEUWIEWeIEYmIEauIEc2IEe+IEgGIIiOIIkWIImeIIomIIquIIs6BABAQAh+QQJBAD/ACwAAAAAkAEsAQAI/gD/CRxIsKDBgwgTKlzIsKHDhxAjSpxIsaLFixgzatzIsaPHjyBDihxJsqTJkyhTqlzJsqXLlzBjypxJs6bNmzhz6tzJs6fPn0CDCh1KtKjRo0iTKl3KtKnTp1CjSp1KtarVq1izat3KtavXr2DDih1LtqzZs2jTql3Ltq3bt3Djyp1Lt67du3jz6t3Lt6/fv4ADCx5MuLDhw4gTK17MuLHjx5AjS55MubLly5gza97MubPnz6BDix5NurTp06hTq17NurXr17Bjy55Nu7bt27hz697Nu7fv38CDCx9OvLjx48iTK1/OvLnz59CjS59Ovbr169iza9/Ovbv37+DD/osfT768+fPo06tfz769+/fw48ufT7++/fv48+vfz7+///8ABijggAQWaOCBCCao4IIMNujggxBGKOGEFFZo4YUYZqjhhhx26OGHPwEgIohr5bGFiCgCQGJZg6xSyycpprgiWGeI0ss216AiQYwyzrjVJbpcsw472ziC4hmcwKJLK5+gMaKPVh0CSzTmsGPlME7+cEkv14yDTjjX9CKKGk9CGRUsyXhjpZXmnALCDaJEg047a7YzjjS6SLJEmWYy1Ys0Va7JTjJspCDJMugIamU76HjzTC2KsMBnn0fBAqii4ZwSghq6hEOnooua400yrQQyKaVEPWPOp2smg8YA/plEkw6ograTjjnWCCOKHQeoiCpRXM4qaDgwglFLOEPS+mk7toYjja5k+vorUL9gw6qV0ugxQCVy0goqs+t8+UwvkjBx6rQ4EZLKNOoIik4verChyzbCeltrO+ukg442yUCawrno0hQHIcoka2U4sKjByTNzfsvOOcyyQyez4KIzjjXDlIpiwDcBMMAh07hbjCKDdHqtxOeUkw011FTTTTnqTMysvuY4q2seAHPcEgAHrBLOsK3ksXDDi67DDTGqNPLGH42oEkw15VA8MzrmjKPNuJ+wkbPOKIlYhjAGpzNyHp0q2k42tLzxQYoRwEHKNORIjQ7VVHujTTQvnrE1/tckiZjJNoJuA4vQDF+bjSpi8CjiCZsgE/U6jFpsTtWiWrNMLY48sTffH4mohTCsptOLI3rUArig5eCSuOKLvz2nvhaPM07V44TjjTXFwDLIjtJy3jcAmai5pjOObPFJ4YJO00gErKP4BjHjrBOu7NTXPrvV0gxzih6b+45RAACUMQyr46wCwxaw0FunOsSs3jwAGpDCTb60h2N/9bV7s000vXwiRwi9815HelCFVvxsTcUAAwAOkQyiSawctFjb+0REiGaYQ1+1s58GM0g9MF1OFE4KoAAxcog4bMIZghqHKAAwg1V4o14S4wYrmDdBALzBcXPLoAbDsQ1v3C9//tuQRu4kcSIRjpAiuqCFMwzGjgQCIBDFGMe11CFDGk7whubIof28wUUe9tCHtgvj/oYxi0PooHtHTEgvrOENJo4DRgBYhTZmFTGJiSOCNQTAH3BosS1yURva2MYXeQhGu13jWagIxADQmMaCXAMdTGTHMhQIRSlKjVni+EUPakiATUwji1Xzo90CKcg/DrJ2OHqGLkSBMyM2MiHDCMet2sWmVYgIFdeg4yXPQY1G1FAMtsAG1ULJxVECUpA4OmYPt6iN2yVDF5zQmitf6UgeKiNkVrLGIQDQh2FYEl+Qo5M6xIELOLzvA43go+xsZ0xABvIa8FQmF5eJIyHOohIh/qRmQpKhjTCBQhm0LAYbloBLSIITcuE8xzRSEQXWfeAPwADHMDOoP3daFJ7xPKbdStlMazxDGKtQhLmm2UhrbKMYjlAECtmBDl2wYRDeRGg6ZoqOdIRTHM5IhRisCAACnIAQwMCGOHKYv3a6E6MYPeo1NPrOa/CvFWZkJNeG4Q1poEILlTidN1ChB1hYo6b4ounc0gFOcUwDF534AxyiAAdCqIIYQp1bKG1n0YsiNaPWyGgykymNZYipD1LlGBtdWgVbJGody3CEI5KBrLDONIs1DZf0zmFWZxAjGMRoBja4MTeqUdSogLwrUq1BWrwuNZD9vMYzZqGIXukzSNG4/oQO9CANK42jjF6N7ExvNbmxzi1fNBWHOMwxVLrN9Y91Ta1o4UnavMJTGqXVaCpr0UpqRuMauUjDDWCRqHZEQ7GxJCtwJ0deyWXRpujdrVzXyc5tJFe5om1uaaVB3+gGkq7LOEUGAkspXXiUEzfoQzRsi1trXHC85CVvOGYHWbGSl73tfe9yMSrfvNIXuvYF4zVqkc80RkMbwohDFWIRqGhIQhHCkGVYE6zgH/Z2mPXT4DzfC9+7VtgaF65vdLdB12Jsk6QcC9I1XKEFQmDztlL6anpZXLMNyu7BOmRnMd2b3Alf48aHzDGGl8pjuw3DEUYAcsCiEQ5nWMIPuhDW/ndRrGL6sRiMToZwMedc0Spb+cZa1jGX6TqMQfzriLXoUjZSQQvhjUN3rVCym1m8QyeDEZlTFiSN71zhPOv5vrfrhTSPGMV0fIMZ31jTMxSB4jbiC8bkhfMOZTdPZLpa0nZe7o1xbOkdA/IZqPiBmKeVWyvRkh3mqMUgTiEnm8o1waputClfjUwJU1q+lr60e59lpF3/qhieApU0OKGIXrQRdm9u9A6LSUpmT3rCs452c5cKz2fAQmtH7LWigj3sYoM7weKWMXKZTeVYy7rS6s4raq1BLklxWopmW7O3a9pZfOfbj8o0t7/jW+FoBFzg8FxGK+RgbVTNwhrCagc2/ojBDW/UIhCoAFS+jj25h0M84q4+978BXmuB4whjsu04pbolMW2owhLDEEZKU1zTezf54eQud8ydjW6a53ndqb0cztI4jjWZwxZtiAMpMpGHOHkJdsN0uZRhvvS6WvnKFY/2lt+JsUyc8YjbSFY7nnGHB5jBDFToQy9kufKwix25Sm/2xG2M54uz+xpS1zmlEnWwU0wAAEEgwAw+ASj0HvvvxuS3zCnu9Kfb/MrD4MTbR6gNuS/DDgAAHwA4ZWoHY96dmmf6zJtrccOnFm/VHWHVD7ZCACBARJQHK7gxn3mJm/3Z0Fb7jkEvitELUBuM9y7qUYSGvYMLdsSHvfHt/tr0zmsZ6lfG2yD4C6Xds+O2DQBAAvwmK8jRNPtkh/XgR5t25X/ecqKgguLNZOBFRWMPqfd7aCAM40BHGPR68ddvx9d9yWd74Sds5OcjsmQl6cALZjACZuA30mBQ+RJl4gZ4sTd/FFZ49sdlh5QMq3AiR5QM5jcOpEAGfrAHCSAHvVCAZJUOEPaBxbd9SoV8pKV2OoZx1sA/ihCBM2INBjMOqvAIpCAJYPAJcoJQMaaDO1h2Czh7zQWEa2dhyYAKCnRExMYq6qAMv1BGh7B3M9UOtOOBoqR9r7Z5nNeADjiE5GKEK8ItTHQO1wALhxAnr+NZOdiGCQiHhOd9nrdU/j+YDAmzf2ZyBrVgfhITDZ9whnG3cmuobCDIgz3IgD+ohesmDeHXC5lgcEf0RMlgMOggDIOgCMWwKuEyOR2kb1VohZuIhRYGhFCXiLCAeo0kIpxwDYuiPWggCht4arCIP0kXeIIngswlX8+Fi+uWV3SYCWH2SgBABOljDskQCLp2CrkUVoBYPfvGbwrIfVj4jEH4gxV2SD+4DLDAPfq0erMgDJKAIqIwR1NzjKy2UeRYjrVYiKXFjrOGZdAFXdEQekTAiL8CAFiQB2CwSAAgCSB3fTCWQf0of1c4c0kVkADpXBgmDaoEj/r0DyJCBFRwAyISCCxIMTTVcl7Uj4RY/oimdVoZyY4GWQycoGsjKRAiggVgkJBUAAtzJD3guI+RRov/KJMmqFGFpD9UtlQFSVohaYcLKQRbQAUYgAElA33qJVeyOGc0VmNK+U7N5EftFWHaII1OVQynkJA7WRA/YAQzAAAsEAiw8Azb8HXr5YHJWJP051zv1EO1ow3ZIA3KIA3ZEEiF1IwepQvjp5B80ysiAgaZUAvL0CWgxGA5iJGCdHZoZ3P6Ew7goA3SQAy2oAqkoAq2AAzM0GWA5JFsqYJviRApsgSOsArCIA0+NFFr2Gqu5pnrtlSh+Q3TQAyxQAhm8AHKyQNuBVd/hIiq9GOzqRApkgJ9gJvSoA2z/gOIX4kjZxecqMVFxUkKZsBTABABZkAKyhBx1kAqejOdDJEiAyAHn9ALH7adx7hDocWAJshj3MAMpGAFzWMGsQAN90WaeQJA8NkQMaIGl2CZ1+ANshOOy1hXzshuzeQN12ALZDBBgAAM12A7h7SICwoRKbIFlVALyWANCxZjvmlRFxpaPLYNzLAJv/c+YkAL1OBDuFMJKACZs5kiRnAIrTAM1lCWcuaU3nlXaUlK2gAMdFBDI0AK0GA71qALeSABJUoRKTIDKGefEWo9OvScSJWWwukN2YALGThBH7AJ1DAO27AMn6A5W1oRKQICXdcLl9lM14NKyRVdXIQNuCCg/mwaCtPAQ71wCClQpxcRI3bACZZpUgvmR7AWkF2GDblAqO8DBK4wDd4QDavgJIyaESlCmUUKirbzWWXaZdkApTUEB7nADSCmCE8wqhuRIlSgCLDwJ5iGkfcFp8hgCeYZIxNgCcrADdLwbihgqxyRIj/QIr3wDCaVoa7mQ7JjDbRgTqzzAH6QC9mwDcJwCUbArB6RIiygB6egC8uQne7FTvdjO8qwCVrAOnDgCs6ArLMgBwNArp2TInbwCbpQDKAYmgvGYEcTCnTwACkiBYSgRNwQDstQCdXIryCRIgoDC8JwXTzGYBbzabZQCoAAB3AACKkADNRgPxsGbxQrEinC/gWO0ArC8AxI6lka6gzGAAzAoAzQkJdwmgyZ4JYrOxIp8gSKgArDcF3h0FtV40PIlLQ1Yw2zwItBWxIpQgTQKrMtWjP4IzvbMAyXgJJTexLmGginkLHXwGP2A2XasAyhCqRhOxEpIgH0qQvJIJzUYzd4cggL4LZvy6UowgaQOgygWE+qlAlf2LcsYbEv2wuMqwurIAl9IJuIm7goYgRyoAdykLmBMAhoMLkwoThgYAds4LkywSP7Sro0QZWou7qs27qu+7qwG7uyO7u0W7u2e7u4m7u6u7u827u++7vAG7zCO7zEW7zGe7zIm7zKu7zM27zO+7zQG73SO73UW73WWXu92Ju92ru93Nu93vu94Bu+4ju+5Fu+5nu+6Ju+6ru+7Nu+7vu+8Bu/8ju/9Fu/9nu/+Ju/+ru//Nu//vu/ABzAAjzABFzABnzACJzACrzADNzADvzA1BQQACH5BAkEAP8ALAAAAACQASwBAAj+AP8JHEiwoMGDCBMqXMiwocOHECNKnEixosWLGDNq3Mixo8ePIEOKHEmypMmTKFOqXMmypcuXMGPKnEmzps2bOHPq3Mmzp8+fQIMKHUq0qNGjSJMqXcq0qdOnUKNKnUq1qtWrWLNq3cq1q9evYMOKHUu2rNmzaNOqXcu2rdu3cOPKnUu3rt27ePPq3cu3r9+/gAMLHky4sOHDiBMrXsy4sePHkCNLnky5suXLmDNr3sy5s+fPoEOLHk26tOnTqFOrXs26tevXsGPLnk27tu3buHPr3s27t+/fwIMLH068uPHjyJMrX868ufPn0KNLn069uvXr2LNr3869u/fv4MP+ix9Pvrz58+jTq1/Pvr379/Djy59Pv779+/jz69/Pv7///wAGKOCABBZo4IEIJqjgggw26OCDEEYo4YQUVmjhhRhmqOGGHHbo4YcgygbAiCNKwAQbdjAxYohXkRiCDkxggQUaaOShRx+BKPJJK7oM88wysOhAIgAsRpWJKKvAUkuPyTzzjDTSXKONNdZs44056bCjpTV9DLlikUzpEk044YwzDjrppNPOmmy2o+Wbb14TiJckgpmUMOG4CeeefPJZDBteplCnnUXVkmefiPZpDioLjDgDG45I4kgfVAxA6FCtWLNOopzCuYwdI4LhyCm1lNpKJXkIeilQz6BDjjj+3KjTKaLhfDLiEo7AooswvOoyCyd6vEDkqjwtAw43vGyySTOz8rmOMFQAcIAirdTSC6/C9OKrKIMYMSyxOXmTjSpmADAFMbI2+6Y1joyoBqm79nJttr3MgoojaHwLbk3QSDNLECN+QIye6qIDCwsAgFAJj/I2LG+2upwqBwr67guTMNHUcgWJcUyjrpbtLCPHiHmgMovDDvOqLSyc9CGkxTIhI4weQ7pSzsfshHPKrZLMogvKD2O7MrcqwvzSMMhMMmQa0OCcjjBnjBjIKj83jG22QmtrryRgfGm0StLYMgSJH+SCDs7WKBLqJz4H/bAuu6osr6+tXGLHABV/TVL+NM8sMuQm2OCMTi3CAuAI1fNe20strjS+ZOLa+tryy3qXJEw2xpQ7IiHMENxs2iPKccrP2OJCCymUEAIHIZRsEsvDc+sCC7fRVk7SNeUgM8WIcaCLszm1jIzFJbrOm4srlJABQwQABAADGZbEQnrssyuihte2d5TMOOpAs0gcmyiz6cfrSFMJESwEgsr0vbiyyA50EqDFIq/Tu7jsqNjdaPYejeOmOtNwBjg81yxvBE8HbOBE8XhFC01UgU4kssImrNWwUs1iFq1o2Q/yxr+KtApnfXqaIm5ghEMoSXHt8wMCIDiiBPjBFYorlQwxyIlBRK2DGIHFNQgIQnZo4xP+Z9CBHURBwV5pogcsJJEZQgG3xcnQgrOThBowwEEcOuQZWeohnNChi0CgYAuSqFbQZkEI5iURAECYINyeOENY5M8OEKiiFRWii0PtSR3cUEYzzjGraHBiCTrQA7ze5go/EOCMABgBJU6mCwteUIawgEUG++CtOT6EE1jk0zmCsQgyLMIZ6aLVLPLAAjRkolpV01YsVIhIRc5iSY684CtrAQsa2lCOliRIL8LBp6fFYUQR+EUonVWMQ/zgB4c4hc+aKAxdFPKQZwSCJV7ZSFlas1S1bIUoJMGGEODSkrCwBgHboYw2kOgBA0vUNVoBhhnIYUdwY2a9yohILYQClrX+sOY1aSlJUWQiDzf4phU/uCdn+GFIHUsUOnoRiBBQIYzLbKK8amEJJCYRAX5IBT4vGMlayrKjklxFJgLRBIHyrxfeIOA4SOElUpgjUdLgxBYk0AdlLimeVdMFKTTHQi1Eb6OzAKksWxHJoMJiFZ84BBoslcuBZGIZZ9vTMABGojF0DlHmGGUKtnDKWeJUcbRYRBUCAEEgEEKjjcynUYXairYWNZKoOIUj2ECxpv5DF9vgEzYI4SVViANR61iGJHSATJs+MZ5zc99Yh0SAHhAiFNR0JEg72laiTrYVp6iEHig3x1lII4tvagcxzDiiRXgMUd5YBRte8M5VsLFUEu3+BS7cR4cqwAAGPWjDIlIRWbVONpKrqKxlLSvJU4y0dnOMxkv3NA5LLA0ZPNRSOoZxPiYcbpZsROzcaJGKTVCCEpYghSsamVaO/vaowm1FcImr3qRez6TEEoY2QPsmavxyRFMwW6KsIYog6oFtr5UhYn+2RloY+KblNe9kV7HeyjLYrZFsryPUAAL4EuoTWBynM+4LBVv8Fau10AMLwNDVAAsYpwRG8QwVvOAGq5fB66XsKlCRCTtU0na7jC43OhEHQvwCHIlqxzPOR4RkYtfE+EQwTmN5XuC6+MUPhjBwUZHULViYReE8Gw/V8Q1sxIpT2hAFGiCghhIj2YKHRbH+NZvsZOHCGMaVjbAkqTwIIlwZRM8YxzqiWzBbsGEASzhEK46M5EcGeK1sPmqU2/pmOLv10avgxMi+lmM+N6sd0bjDiNggCp+dOZaE5meiO7poKDc6zsHt6CkUoQOjYRgde9ailnQ2Ih0szNNn1iehR03qUjfa0a1ARYzV64iAwmyXsVbXMNmxjmFEDQB6IOIac61rSPK6zQ7+9aKFDeli33lDtbAGOtY0K3VgDhiBe5M2JDEiI1wClWk1sa4NLepRl9rUvw62sFNNbGPvKxqwtvSbzuGMRUzhBKQgB8h0oSIADAIVN6X2vLF5bWDj+9T6HvaqvbmvYeRJ4FpShzL+Dso7bsz6Eu76hK6mLe95v5K49naxtt+c8VS78RM025copBHwWTmDryQixF/bIYw8AMC6SmL5oV1uqor7euYPRsW+iapeSVi54x+fFTg20dKbeeMUW7hBIOCldDa6/JEwT/TToT5jqQ/7E0b/NobCreVOpcMWVB2RD4DB7F4cYglyyETS4730iUtZ7Wufec2pfi8syB1D1lBTs6hBchItohvt4C8aziAJiMez0GevRdqbbHG2M1jq3CYqleMOrmEsd1blkIWXhoCLc5hDF4fYwiBOsXLCmz30oyf9k02/+H46YgmPv5A41TWN+5LIEtk4xzMyQSNJDF7i1Ra902X+znZ9p34Vxp00uFCR12apIxcNGBIdjHGOccBCD1tQBNl9/8Szv/zainaz6VH/4H4ews770gq81CzfwHURRAvicA7DYHV2oEAR13JMd3hsVnrd53brNWOZIH7gsgo71CzgAHQA0AKqMEDboFrx51qfB4GGt336B3Xe13/aFAjCYjFg0AoExSncsAgrBAOp0A3s8DSOsAV9IArXp4LVFnzndW/EZ4GMdi83ZDEjogeeJXmIog64sAiLwAsfZg2nIAdsYH0PWHiGh4Qtxn1sx3/89glzknwZQiKDoAvXQF931A0DpCXjUAs2lEwIZoT61HRO14IuyIRHdS/IZTQk8gP+lyAMKTUr08U1cuCAZVd/wId/Srh/gngKnwAqbMghJMJV29Mp1vAJYPAEh+B5kQhqR0iGIEWBZyiIwaYIhWg7JPIuN7gn4YB7OlBmg0d/ahWBqriKw1eBbsdomAgqVjQkdjALmrIn5iAMnyAHRPBwSvZa9nd/fwiI2vaC/MYtN3aMIzIAipBjsyYMv6IGT1AJERWJ9qd9LJhtwhhlGAgodkUi7tYL0ZAMsqNNbGBKj5OCK+aLlBiMgeiKomBMm3gp9JgHiqBAs3AKbJBA/eiP68iOvFaJAzl16oUKkvCEdiUQQ4IFjjBoqGAHbPAJqbRkE/mLvWaG2dhWaEh1ohD+CKrSkQRBIk8wKplIYtZCLzgVehRZkQKZXsL1knPmCFxwkDAzIqw1CGrQBIHAMPZDeH34kzGXXvcmlExIdZmINzSZEEopLGD0Sg7Di0+Ef/nnZnH2Wy65b/yGCorgeF2pEF7CBY5gMjl1ivUGlMIlSaqIcTeniXG5EEOyBIEAidbijxQXkHtJXLIEalD2aKKgCN0YmHJJImCgI0l3mJ9nlmf5aEVFS7PgCrEQCwq2lxiogZQpmC6iBpJgU40UOR9VcXvZUUEVmqdACptACqeQJIgWYQUJgKnpEENCBHLwbsskib35W4smVEGFCpRQCHRgBmbgB5QgCq5QS5RFY/L+GJwQMSRUMAicMGhJ1ovJ2ZmMGVSkgAha0ADpBwAaMD829VGnEAgIw50SQSILcAaKIAriKZXzVmq0WQuxkJ5HQCcPIAWTsAqzdFSXwJH22Z0kwgKQQoS9hYoYNJtFhUGUUAYs9AB0EAoeNQvcQkUPShFDwgSBkAmooCTjqVZCKUnYCQubQAdnVAWQhU2X0DUlahFDAgaHsCMC9kQvSpsYFAkFmkQwMAm6AgvzuT87WhFDAgFssJ/Vkk+N1GSWlU+o4AekBUE0QAlK0gqZ4KBPaqIkQgR5UAkrOkssxpcxego0Gk2Y8EqnMAitVqYZMSRbkKIrmk8hCqNvJaNxmkT+9oRBl5AveLoRLoIGP9qnsUmkTDqoLHQHpsCkg/ACicoRQ+JOksCfSqJghral0ARBR0AIwVUJOpqpmkoiVKAHl+Cp5AlJk3CkBnoHozA7fZACqvoRJKIAZwCeScKi9RcKdNClI9IAZaAJkuQIcLmrvDoiISAHjvAJaxqksKAJxTokNEAHmEBUonA3zhoSg9kHlcB7VppWq6AJhFAGVWAFbYAIyjoLq6AIwBmuINGjg/AJhgVJqCAKmhAKoUBU+fSMSGmvqgkAKaAGVEpNCfZIjYQKh8BZBisSh2gH5cqivgc3sFAJZDqx4tqJKZoksDVtrZCJIOCxKLGa+ymyFlTSsnVWsCj7ECSiA3LQmoPWXocQizF7EqwaCI7ACZXgCHngeDC7sxA6Ij+wBEvwAxVmtC4BQU4LE0MStVRbtVZ7tVibtVq7tVzbtV77tWAbtmI7tmRbtmZ7tmibtmq7tmzbtm77tnAbt3I7t3Rbt3Z7t3ibt3q7t3zbt377t4AbuII7uIRbuIZ7uIibuIq7uIzbuI77uJAbuZI7uZRbuZZ7uZibuZq7uZzbuZ77uaAbuqI7uqRbuqZ7uqibuqq7uqzbuq77urAbu7I7u7Rbu7YbugEBACH5BAkEAP8ALAAAAACQASwBAAj+AP8JHEiwoMGDCBMqXMiwocOHECNKnEixosWLGDNq3Mixo8ePIEOKHEmypMmTKFOqXMmypcuXMGPKnEmzps2bOHPq3Mmzp8+fQIMKHUq0qNGjSJMqXcq0qdOnUKNKnUq1qtWrWLNq3cq1q9evYMOKHUu2rNmzaNOqXcu2rdu3cOPKnUu3rt27ePPq3cu3r9+/gAMLHky4sOHDiBMrXsy4sePHkCNLnky5suXLmDNr3sy5s+fPoEOLHk26tOnTqFOrXs26tevXsGPLnk27tu3buHPr3s27t+/fwIMLH068uPHjyJMrX868ufPn0KNLn069uvXr2LNr3869u/fv4MP+ix9Pvrz58+jTq1/Pvr379/Djy59Pv779+/jz69/Pv7///wAGKOCABBZo4IEIJqjgggw26OCDEEYo4YQUVmjhhRhmqOGGHHbo4YcyQYAFFU8AYKKJIJolyizFPDOMLqdkcogccoCxBQsnophiVnboYo057LTTDjrjbKONNdZEs4wwuqAiySBqsMEGFkbkqOOOTA0ySzjsdOmll0K2kw6R3mhzjTTSJDlMLU4OwgYYZ4CBBY45YkmUMEB+qeeeQYYp5JjebHNNktFIk4wwtbTCiSJyDHClnTzhyeeklILpZ5BjmjNOONGIksKJkO5Uizd6liOOOpWmqqo0eVgZKk7+0nw5jSyMdEJMOarmyuc4iqBgIgaPvhqTMOh0CQ4tfjwAwANvNKPrs16i48gBVgYrLEunXNMlN6QMkSMCrJwz6aXQdrnNIFaCkIG116YkTDrsiKMKB9XKgquefuYbZq7JlGgiCliAwQUWIADQLkuwcMlOLlBUGwEwqOKr78SVjvPJiSGAwYYcdqiBha8HqyRNO+xU40e1AMRBzZ4Tt0zypMuocSIWatiRhx4dUyGBwSGbpEux6siC8geyiCuxy/lOGs7FJs5whhx69BEIzmpQAULPJUkSjbEnV0tINXwinTSf6wgjs4lbsHGz1FPnnALWI8EyTpfTmFGtH8aELTb+uXtec8mJOqBhc9RsU43F23B/JEo0L1NThJV+8BLx0XtPio4uWMxc89qBdB5IHx1jgUHiHvUy97aEnPiAJcxMTrnYk0pzCOCCc+55533kcQYRB5C+kSjaeqkOMJbwYQku01C69758mgNLlSbSzPkeffQxyPW5y7E7z75b1KPCXp7DTTXiGK388jAHciITgutxMx545IFH54NUn4f2RHDf/USnSLNOuV9C365O8QITpSBt7rtDHdIwhjGggQ178Fz2wDAD/e3vIZIYxukAaCmkha0YcjgRFdSQhzzYgQ1ZoAEJVlgFNdwBdxOs4AUjMip4cTCALpuUNjgBLAC84Az+bLDDHdhQBRJ8qwpQg+H9wFDAGTqEE9JIx8t0NUUcUoxsuvAXAGgGtTpkYQXVWsEX7BDB6uXOYzhy4kLkoIttVLFS6uAGNaAxDfN1cGx9m13TniY/NAABZQQ4QhLNaIfQgUyNCDlFNGyoqmzgwg9WGAIhgGHHPuFRT+iARQg0dzMvNgBlAMiBGvTwuT7oAWeGtCAi/yEJYYzjjXxSBzMsEYEc+QFsr4Nll56hPhMFzg7VY8MRQAkAGozyc6c8ZSE9hrhVDqQW22AkpdThjEVU6wPEYBnf9GSOVeRIen2UATFjgAZSmjKZOGMDGp0pEChKUVXUsKbD8kY5Si0jhL7+bJ/71BCDcR7znCVUJhvOQIUQOJONblQVOEhBAJRNwRnaFNKktnEKRwEgANJL5hkSQEwfHPOUJQxoOne3gFUqUpqUMoYVQEkIbuhtXCA80RL4aMo8qAEBoESAIKMG0pDebKREgIAaW/lKVZXDEqCMgCxcByZKeSMTEPiXxmxmSjyowYgos8AY8VBTn4r0hGDInxOhidJJUcNuKPPDyqCVjl6cQaZPs0PUOidMUALho+7zakCXCYYbDOCCnFjkG3XJDHpVywoQK5c1KnGiFEyVc33wIk6tFIMx5qGrJrSZT1GpBjDoQJU9Q+hgJaonY9TSSkOQBTjKlcnMmWimHAv+aFXZAITJmkiMUANoZgu52UKqcwsyJN1J66mnZnTBSmZQLQB5eSIiaCy2kJ2DH0lAABIAIQtsMGded8vbkBbyhGq4EWivRdQqXrJL3ejECUwUAULg4l7QGscpcvSEuIb0lFLrwxzYoIUsOFAOl8Xsd78bUhp9Vw4e2yTcyGrFbXapGrjohCqAQQ2m5qodxXiriYzwXM3+tHqfix+NSqhb7g64hDTimM20t4WC9Syw77yjg9lxjnKUw8K68oYkckQFNED3voSbmhnPud0BG/l+KSawHNBgBIMeTLQNPu8Nv5QOYTABrirWK35zh87tmvjESE6yZmtUpYMNN8pSnjL+O6yBLhMpAAsb8/Bmk6nXEhr5zmEW84rZsAUnC6u8aNaXmr90uYKZiAlxlfOcUenTOzs6zwburvZe0C4GyziHg2aH7E7Egg7X+auODrWSU0xqJaNhBtf6RBTNK0DlqQPHXnIe9ABQ3yx/2s6iFjWk9bxEVL8qD7ogVaBbNk1qKAMXwGgGfPUUjV760NO3/nKuB0zqaisZDH6GlCj8l0tiTwocuSBEECIQAT8UbU/jaMUSTlTr7n562rqudql567G/hsoRxcjTsAXNp2p0y0prwOWXiqGHE3E4ztGWNrxXLG8VF1J7RrA3pFqhDVguT5fV2IRhc/SBXegpHKL4LAD+QkCFOCvaqwt/dMMjbbPOsuBVcihGWbtUuT0tdOM5isAt9DQMfALACED88btTfuSVU/sMEX+VIqyRKg/qaXgrHRouvrQNThQQAI41ebSJXnSjf3edr/oE+Cp1RT1lQ54oi0LyaN4LNmDZ3UPnOm+9/nCkjxdEnNgGtJi3p1zAgJiLEIeXqm7oF0D71nIfdcMHnOBrHSIZxcp0OUhBzAjYAky6QAO7E53wxM998Qe2+7UAkAlhaGPm0OLGGwCPDS9dwxHr+vnh4y73XfPaYyhol4meoIheXCPyHFQ9KMmQTZrPwrUH6LGtEe952zvcDtr7rO5PhAI9wGIZ4dBlqrr+8QeUkcEW5PCSNBQBV4Rvvfkrd7hNPxayaqlBFMPwBuonJQ5WnPZEcKBF+LuUjlZAr9Nax3zoB3p1J309Uy1P4Ag+Mn970gx/EAHKcgKLkFhesgzOhmjLR3tc53wO91u5lzjV8gJ9sArRUFSqMg23wAoT1npfMg6isG4AMAOzV2ee93nyRm2edXejhzJyAH8JlSrqQA6V1CW6cDYAQAWcd36Jx4Hf9VtXsz+ghAWSUAvWAHzQog2O4CsAoANPI3Q0OIAEuEQGCIWgpAPW9wwblCvosArQkwFY4GMnp1c1yIQPF15P6ETEBABy8AnC8INkpwtuZyJEAIcJp3DwRof+K5aDq5SHWyQJC1gpFngiGfBYndd8iIhgWJAB7PQPjHgDI7gMach/xdBm0RNEhWiI04aIS3QDOnhBjDgAe5gMryQm1gALdpAjCwAGAFaIc+h81FZvm0gQjGgiaOAIqAALnxAIFZQjTBBE6CSAG6iKNcKKwVgQwwgAP0AEFnUiCJABWwBgROZl3rWEKEaA0AeM1WiNw2hbAEAAMkAEhidXpfSM41h75ThvJzaNrchOwygACGABTLAFaLAFPwAGlwVDXeY+5IhiuXY/6JiOCLEAALCNJzIAKSADW6AGHIN0CMQ285hMC4lKvKVyTLSP1QgBIIABGSAB6pIBGZACN4D+BGegkWhwAzqwBfI4CAipTNG4NgW2i14lB1MicRCpECCQAiyQlBuAAjBpBAFzBlgAAQdQkIMkQaDTk1GDYlISRFDjUzXSREXJEBKQAjMQAynAABbAAjpgBEuwBD9wIi9wBTVDSjoZCPWYirJ1PwP1BVAABWXAMckklFtAlGG5EDNwmCbgkiagA0RABDqQArEHAUbgY+ZUYqioWVmpB3LwBbUVAAlAAl8gB+dkB2cQXIXpEDrwAjHAABRAATPwA7D5A5vUNFAwl8jUU7iGZx+mmV/QTydCAECgNoEAfX12mhFxmDfAAiGwASxwA435Ay9ALQCAAkbABYB5m412ZLL+hTNo4APVsgFjoFloQATGORE6kJovgAIo8ALOSQSyeSIzMEJyFWC4iWtAdjNycAXsaCIJ8AU3YwcUVJ4T8ZqweZgzwJZu+QKGRp26KI9E9mlZaQdo4JtWQgGhaVNGIKAVcQOxmQMIugRG8AN0EoPy6T7VU58ihZ/6iTIeEJ7acwMaahE/YAQ0ugRMcKMh+gKxx6DX+aAilTsd80coIwPhyQZPEKMYMaNseaNMAKIiCp8lSp9dBqRq4J3VQgBGkAab+QNImhEz2pZMSqM6sKMc1qNExmUdQwMowwBQ4AZqcKRdqhFfaqNNagSPuTMkOpeVaT9UY6U5QgA5gAZp4Fn+ccoRc1qnjtlDPCpXpGSX/ykHR7CfJlAFbkoFhfoRbWmjYvopTdNjwDSleTAGFAoAG9AEWkqol/oRRNCWYsoCilqmn4pfecAGVxADE4AAK1AFWqoGTJCqIrGqTvqYJ3IDygdMIDarY6AFWjAGBgZcvjoSjemeIhp7KcBhJJQHnsNducMGGfqsJOGcsCmsAHAAOvCGAHY7P6WZN+KtJgGu0/orS6AxJXQ7OBNW7IoSLPCaLzCbB3ADNGMznWNCuHevKjEDLxBVJgICiBZEy4QFlEawK5EC0ulLWzCTUOlrEMsSVpIBL/ADNzA6GfsS1SIBISsT7FKyKJuyKruyLNuRsi77sjAbszI7szRbszZ7szibszq7szzbsz77s0AbtEI7tERbtEZ7tEibtEq7tEzbtE77tFAbtVI7tVRbtVZ7tVibtVq7tVzbtV77tWAbtmI7tmRbtmZ7tmibtmq7tmzbtm77tnAbt3I7t3Rbt3Z7t3ibt3q7t3zbt377t4AbuII7uIRbuIZ7uIibuIq7uK4REAAh+QQJBAD/ACwAAAAAkAEsAQAI/gD/CRxIsKDBgwgTKlzIsKHDhxAjSpxIsaLFixgzatzIsaPHjyBDihxJsqTJkyhTqlzJsqXLlzBjypxJs6bNmzhz6tzJs6fPn0CDCh1KtKjRo0iTKl3KtKnTp1CjSp1KtarVq1izat3KtavXr2DDih1LtqzZs2jTql3Ltq3bt3Djyp1Lt67du3jz6t3Lt6/fv4ADCx5MuLDhw4gTK17MuLHjx5AjS55MubLly5gza97MubPnz6BDix5NurTp06hTq17NurXr17Bjy55Nu7bt27hz697Nu7fv38CDCx9OvLjx48iTK1/OvLnz59CjS59Ovbr169iza9/Ovbv37+DD/osfT768+fPo06tfz769+/fw48ufT7++/fv48+vfz7+///8ABijggAQWaOCBCCao4IIMNujggxBGKOGEFFZo4YUYZqjhhhx2yB0AIALgIVsQsBGIIooc0occS4Qo4ohiHYJKMtdsY+M21xRTSyaB2AHGDy7CuBUnw4TTDjtIJtkOOuFcI80zOopyiBxntBiikFMpUow5SXbpJZLojLONNtFEU4wunwzCBhhGBImlUmfoMs6XdHbZzp3trDOONteUeWaaay4xgJtvBsXJNXUmSiee7aSDjjfXWBPNMrqgMogcWzwhAaGF4iRHMesoKmqijDoaDplm9rLKpWBs8QKn/p3CJEo4XqqDjTPGGFMNOaP2yg6e6zBJ5jPJCAOLKIGwcWWsLqHRy5FJYiPLH058YMMbrHTj67ZI3vlrOuOEY00ysygLIrMsXeJNl8hY8oGLAJyQLbf0etlOOLWcASu6I4FRSzpJIkMIvCGuMU2djEJbL53hiHLAvvyC5Ig0SXKzCMEhngDMogl3vHCSxYBBcMQiGdEKOknaEgHGIGpAjDpfdixzwtxKY8fIJIM0yDNJgnMxywDY4EzMMxdNs6jW5IFxzh4d8MmcSE5jBtAA8FEN0UZn7W2iyWzh4gGbvsi0RmgM06Uz77IcgSriYK111nWmA8vDIaLAAghij30R/gCZaHM2DywTsMjQbr9ddJ3bKOLiAC/ooAPeemO0hS4oJ1nNGxgjQIcxMBduuMx1DiNyiCDcQIQRN0AeeUWVWFMrKyfAG4EfxpTD8eeH02nOKQW4mIIORhhBxAwKrE7R5FB32Q0ra3DwgQt+qNJM557jzmid0ujhIgQvBM/EEkawIIHxEg0SDcBfgtMMMMQok43tilo/M53pzNJmiCHoQMQSTDzBxA8oIB9EjAALbyjsS+qg3qjkd7QvJW5xLPiBEfpHBSagDgQCdEggkoG+j91OfosSxuhAxL0b/IAITKACFp7wAxbkLYMHAcAptBEqDyKMgXQahyjCBiIJbAAF/iLIgRGwQEQj/ACDMEwIGoTBJRuSynp1iob2XIQABACAABfwgQqxQIUl3GB8STQIADhhjQM6sXpGo98sXBgiCATARStYAhFXCMAXhnELvaicnbZ2RtzR6RqKo1oMmDBHLKAuBGEkCAAmZsYG1kkd3ICGMpThjG4osFuGC+ETvkYwFKRwjk8IHxgTyQRd0MpejvQSOHJhCTPAwAVOYIQxzoFGj31pHJyAlxXhlQIiqHALVKACCwOYSAD04RmNtOWXqEEKJcDrAWsAxiV/BTc6ReNmiyNYCj5JxApeMJE3qMUp95hKJFXDEhzA2AP+oC1UpvFLcpvB194IrxcQspDe/nRhGB3xjA5ispzs6IYq0smyEyijlnii0zYqAa8MEIBggyzkCisIwCQyARbhqKGSlNklY0wNaB+4BULNmKRkBBJ/D3XRAn6wxUL675sZPKY/qclRJJWDFPRk2QNuQUtyzu9L6OjFKcwFAAkkIKX4E0JLXfo/FmQQAqvYhkb/Wc5p8IFqAPiAMUaqUFjMApsAAAELkAqiGMgRn0R8QigrSj47cNCdNWWHM7SA1TBcDa5xZUc6kgELVOgLRHZzgItAoEV8BlOFLxWf8WRIQ7xez0vQsALVNEAK+Pk0r+OoxSwkASQADCAFL0hATs3KxW4eFrH+O6LxltjEjf60S9TA/hzQ/kA4xz7WTtKAxSrk0EYW6GAFR0XACnzwhC2e9rArtKBTIzfGMto2oV4SByMewLI1/MKyl71tl9ChC1hk4n5hfQERfhCDGdwgB0gwbjDVWlzUom51k9MjVV+LJHUAYw0YCwMwsOta0H3pGq1oRSAWUDf9GWEJp0vhE7goTPa2t4KhXO7YFimNZL6zS+cAxh9O8IAIfCAMm6jdDf3rpXQUoxWi8BqIBhDB4PGvfw92MHuDyQTlRk4H4nxuXMuxvluwIheVjB99k4SvVTiCjQDAwAwS/OIUrlfGaqUx+FKgNwAEop86Big71HGOni4wr+3ILSqICgAUmG6CUE5z/pQruAS2Mu0HGJ0qTbV2xvnSibve7SwADuDb/cFYzQ4+7Pd+ELkrzxSKdRbVNWohYBdlYAYS5B+gZUxjC1J5bD9ohQGzPOREd2kdxZiFX31nYElPesZs1gEix7bBQ+PQ01/C1ywUgWTunfDAfz51BS2ogyqjQhsWfjWsf5VbWCgNfybEda4nzWYjXJppchiGfOcr7ETjORNMCBGLS13jU6950BiYsCiAzelMJkod6jNGLnTVNkUtehaDcDSkD2xqb+/aCDPQGxuEMVNqg7BO4PhFKz/wgA/4gRV3pROoRf1XwJ75xd6O8vecrTdHuO6DDCSpOUnhBIJ9oBMHY1gv/jZb6xfcGuL2ZjOhJ1yJcY6Uzl+qBilih7EPsIJX9io2WAEQgnkvod66rjG+q5yJ5D0R0V4qhyxozrI/JDxJ6RiGd63k2T4rO+LFnfizcwaAT7hcVH78UjPigFUnbNVL2tBFLeIdokdHGujMrnGbmTuIbdTrbQiURdqApoFd2ItcqECDi8x8OpTbW+vMpQK/P5Y7Vf6Mah/whZfMMfJKvIqEJi98t1M+6FVPGACKSIbR7w7QbIQBqwCoQW2RZI1ZGNtFIUi24YNuwXyvDkR2WMUytDFtT5se9W9oJ5JAXQtRbHLFVp993Ke82BBtYRCrKIY2+u3EbPwBqzbHOZK8/qH2QQwKRG6n97IBLWUjkA9jTzjEKpKxDeovrBuMwGojns6OZTBa8HV7+OYPX/sMsmwLh9AK7Od+26IOuwA4LCMGuKBA6CAMtXAJRNBGmXd1EddsW3d+LAMGigALy+ANvbct3dAJexciD/AGuKB9SHINszALxwYiPRdp+6drqVZMVMMFg8CBHrgw1dAJYhABAkAAHxAFjOAMl0R8opBtyMdt45dmlTZ0ifQPqAcGASh9BFgn3WAMrNAJnfAKykB/SLIN3fd9SWZy4od1UvYDnveEqAcAWDCF7UcvXUYq5NIK+OdwmreElCZoS9BrT6hIawgAW6AIAviGZzQOI8dZ/iGyAMkXg3l4WkJne33oh3/4fDOyDR/oK+3wDLAAC7xFOj4Hd6h2WkQ0cZGIEH/ofIOACsLAe/UChrPACXpWZkrIhMEkUWplRKWYEKcYImCQisMwfb5iDsPQC71wCF+ziLSYVsdlY7loirvIi+o3DIRYJ+OwDMMwLoHgIkr2duNXiwymVqC0cs2oiwMgARJAN3/YhqsgjTOVDtcwDNKIDsvQiS6of8vmjcJkBD7gA0sQTF40jgyRASgQAhkAAuYohliFBYMgCsIgDd7QJMmgC8JwSsNAZijAbXnYTU+whyFwATrwPcMDkA0xkCzAAikQAiiQAeiYkIcgCqswC7qQ/gzjpAsqBiJ99nP3qEIqtIcEBgAxIAT/I5IOwWegNQMvwAIoYJBreAaiUAzXMG2wIE8gsgBkOHveyEVCEAJ1czo3IJQPEQKNcwM6cAMzkAIQgHpngArP0HuwEIEgomSal5E7GQODRQREIGFeOZKQpgM/cAMpsIZskAnCsC5d0gtcECIYoD9wd5VUQAQoMHg/II55+RApYDpEQJZaiVU3YAeZ0AuEWX8tSHhAh1xE1GZnWTc+AImTGRGO4zgskAGodwNq0Jm89wyH8JcAUJkHForGhQVLQJchQgAv4AOraREzAGkv8AIpwEMsgwJycAkrGAiZuQBLxj/HhU936Wg3/tCVxXkRLGCUJgkCPckyRCAHenCY+PMDOHlPEtWYjxkiv/MC3akRRnkDL4ACGIABCAmfSzADmemCwANjEsVFRACbU9k489kRoJUCKYACzElCKDADjjMDYQMCElRjV4mVGFBgqpmgG3GSKYkBCzAAEIABoMWXwUMEIXCOGZBsToYFW8BFPpACD/VoOYCXHsoRBCYBIQACKGA3KLoEL6UDLKAAGdBiC1ZIv4mSpsOHORoSBxACLPACkJZgghY+IAABZmYE4DhHTCAEP5AERuCkTyoSGTCBknZYRsQCECBW6rlUMGZ+ZXoSJvdz7dVNS8ACIRACv9OPRBSjdDSnKjFB6TU2R11EBC+wp/rDnqHEnYI6qFHGYEvwAgUZQXHqqI/KEvSmQkzgnxKgm6hzgZm6EnZZYy30MBhQksQ0qjERmTNwmufCqjUhhrJaq7Z6q7iaq7q6q7zaq776q8AarMI6rMRarMZ6rMiarMq6rMzarM76rNAardI6rdRardZ6rdiardq6rdzard76reAaruI6ruRaruZ6ruiaruq6ruzaru76rvAar/I6r/Rar/Z6r/iar/q6r/zar/76rwAbsAI7sARbsAZ7sAibsAq7sAzbsA77sBAbsRI7sRRbsRZ7sRibsRq7sRw7EAEBACH5BAkEAP8ALAAAAACQASwBAAj+AP8JHEiwoMGDCBMqXMiwocOHECNKnEixosWLGDNq3Mixo8ePIEOKHEmypMmTKFOqXMmypcuXMGPKnEmzps2bOHPq3Mmzp8+fQIMKHUq0qNGjSJMqXcq0qdOnUKNKnUq1qtWrWLNq3cq1q9evYMOKHUu2rNmzaNOqXcu2rdu3cOPKnUu3rt27ePPq3cu3r9+/gAMLHky4sOHDiBMrXsy4sePHkCNLnky5suXLmDNr3sy5s+fPoEOLHk26tOnTqFOrXs26tevXsGPLnk27tu3buHPr3s27t+/fwIMLH068uPHjyJMrX868ufPn0KNLn069uvXr2LNr3869u/fv4MP+ix9Pvrz58+jTq1/Pvr379/Djy59Pv779+/jz69/Pv7///wAGKOCABBZo4IEIJqjgggw26OCDEEYo4YQUVmjhhRhmqOGGHHbo4YcghpggACQCAMENTCwhYlkA6NCHKLDAckommRwSiBxgbGGEEVusqBUAAziiizThmGNOONskKc0ywuiCyieOBGKHGls8QQUWYPgYFQCfPGNOO+yEKWaY7aQzTjjaXHONNMn0IiMnjvRhBxpbbHFllloaBYAjy6Az5p9jtiOooOmgg6Q21ljzTDK6vBllHlX+QMQWZ+TpExvC+Anoppyu4ymhR26TqDTPCFNLK3AGkocaWKRA4gL+RFhKEwCcXMPprbiO+Smhh1pDajLCwMKJJIPowcYWM2QwAAo3yMoSEb1omuu01LKzzqCFormmNNEMo8sqwzpyCBsskOisSXZEA2a17LY7qKDojOPNNmlak0wtjhBR4rkhbZGJrYCq0001xzgzTTftJszpoNaaI00tbJQIAL8eYdFKOIBWs0snf4QRxhudHEOOwiTfOk4vYEhMMUdqCLOumNSQwkMEEn/wxi0jA/ruzgyXDOg2pwyg8soZDaLumNlsAoPEJT7whi/q6Mzz1Dv7nMwZQxNtkb/ejHmOLEMwLbEGjGAjNdVoT12tN4NkrTVFFmMsZjWLiM30G9Ocnfb+3jzjak4lbr8tERq6SMuOMTzYLfEbxujN9+OC3mpOJkwLTlEgR4epzi4fKF7i045D/jinf1duuUSXbDPm5ol7DgDeoYu+N6fbtB346Qxtgco4f95ig+sflB277Ghzak3Et+OuEBi6mPPnNIzQrPjN5wxPvNqbJrOF2Mo7pMcy6/xJDiteKB4GK2b/eb3om64DCwjcd8+QI9e8LGYzpDjxQM1mkNLMpuuD3KbQ8Qm7yW8hWOCENuynuWZwzAlWMAPIbsGNhQWQb5vyxiEMeMCEbAEWcttUN5oBjBIaoxvVA+AFMQioa+hBbCHoYELQkKlcqeOG01rh7AC1jJRJ7AD+KJiYDA3SB2kw0GfWux6g1lELIzANAimQwBAL8oNMWCN8SMzhCge4ihkwjVkomCJBtrCKEGYxV1sElDlEkQempeAGMxDjQGjovDNS64KbCscsVuFDEr0xjnL8Rx+ewcCq2VFMAdzUNmYBC6yV6AVwDCQYOHFF9e0QV+dIoQqJp7NowAIVVCjRAiAZRjmSUXWBGt2m1FGNZhjDGM2oRjk2yb4/pWMYs7hEuUgEAVIGUg29qCMiVfmnagBjE4vwgx/+YIlXVEOTwxQgoNLRC11ssEQSmMENSinGQDwjHZa85JiqYYtFWMEECWBABKywhk44A5rskN2mxqELXQRCYij+mIEOAkkER1jDftIcEzhs4QcXiO0B7axGEg35p0XOQg0Se+M+5VhFbWCRTMTUnDEWUQLFleAPxIBnLf+UDEpUQl8lYoEOJirGLdTCjPFk4Zi60QkzYDMEIZAAiR6ghFsgLJUZDVM6WlEGL5YoA5AEpBjzkAxwAjVtGeMoABYggResFAULINEJOvHTaIpTTObghE7xqU9uDhEMjjDiU6H6p2b8QXog0AERiHCDsW61qxiV6ZjYxrQBSDQDcpykRddavLa+lUQZuAERfpCBEt01nF8NkzTkwLQQ3EAHPwikS2Ea0PstggMkOgAEMoCBA+z0ZrMkLNV01gssuHGlmZX+IxqaCtmv0tQM+7PbCRjxv9qudpqweMEPWaBNpU4xEGr1ql7ZcQ5iLCJsYoPBGny60MipkRNPhKQOzCpDFCjwojHtbJi68Yo/nKBzJGrAENagivSpFnsNVQTTMKBd7nZQBxfzbWTJy4g1KMEJSqDDJm7h3vf2DVDWuOZRtavZYQgzr+INUzmc4YtbdOIWwGhGaqtr3UAt4xBHkFgGtMnSKeaBkPqNbJjI0Y1ulCNqt4rwOoRxij004KgsuKwc9/RPA6s4iwwdEzVnoYhdAgAELHjBC+SYglNsA7x4PGS10FHNQ4z1yEkGgRyxULgUR1jK86yFPSWG5GbJUQ209fH+l8EsJmvECHkkCoFK5TgA5BZShx1ms5jSkQxYiGJ7JULBC4wrQy4tUM06BDM6hDELRxgVSEhOgRyNUAveITqNqxQHN6YxDW6IY1pUrsUhICBKOWMgsMNwqnLxHOQxiUMZpGDEG/jAiAHjFVDjEPMLsSnoAYgRAH3I3KpZ3bM/dWMXfEAviSJwvrxxShu6qAVESwSCFCz515U49KUTCahuyCIMBBAbAZTQCWer7xmfdG2J5EzoDqJgFg+GMLGLLaZz3CIMrlMCK3ImZEZfQrjUfoGkxQiGYqh620o0diekp7gA/MEZ0+yFqEn9KlPLkQ3J5XDCx3QMfLsOAE7YBYz+wVrPe5YIA9YGrBjV8Aw0zhtQ5+DcxwEQgVfwO0zXgEUt7EBm4vIz1exKtPhYoWzPRaATN2fHMmCxCkCTSNBm/jW8S7ZxMY2v6Iqr+c3b0YtZcMKJr8onCwIJgEFYw45BZe4tWue6KOzCltFWhKtexYIUxHDHM9CFpaX82z8p4w8BcF0C/lBgdoxjFroYxNyPDAILqPzXAGCDLrqm52l1g+htt/mfrrEKVaRBYiFAAAIC+Y8SYeEUxbhGONBxxMqHqRqWwHqJPtCJwrNDGH6Aw41JJIHGBoD0THuCHRwhil5EwxpFaj2YnWEJJwReYk5w5zRbIQMBlGgAGciqEMn+bjcUbEEPiih+NFTP+spXgxWMCMMa1kAIS/xCoWqUBNOAKLTtk770nnsBGALhiFP0QhresHrKVzLkgA3O4AzV0A0j9yfa0AdMkwEh8Hz3ZxAz9wNoMAiSgArCIA3kd3CuFybJgAZftHgTmBAzBwBGoAaDUAmrIAzPcA3jgA4eKGXpMAsYIDHL0lj2V4IIcYIkggVssIIt+AzaEIPglUXa4AjzlwLws4M8aII++INsoAeVgAq6QIQxOIDTQk1awDQLkAIbYC5PCBFR+Ehn0AeSsAq6sAzbsHpHiCvtIA2f4AIMN1UpYFpOOIYOUYYlcgNnEAiV4H9YWH6dYg25sAn+lvAH0AUA9CeGemgRfPh0YJAHxFcLyWAN2zAO6ZAOZRIOz9ALuaAMBmgIQQQkIWABefiIkBiJLPAEbHAIn2CFvSBxtVAMcjMOlxACFZcCp6aKIBGJAMACcnAJtTAM9SMm6CAJpfiFM2ACvlgSUXgGqGCM4GUOjjBWfjUD9vWMI/FxbECM0vAlYRIOCuZXdceNLaE4TKAHadgL1lAMPLdu14aOMCE2OqCCgaCDR0WPNiFiHMSPOBE/ADmQBFmQBnmQCJmQCrmQDNmQDvmQEBmREjmRFFmRFnmRGJmRGrmRHNmRHvmRIBmSIjmSJFmSJnmSKJmSKrmSLNmSLvmSMBlkkzI5kzRZkzZ5kziZkzq5kzzZkz75k0AZlEI5lERZlEZ5lEiZlEq5lEzZlE75lFAZlVI5lVRZlVZ5lViZlVq5lVzZlV75lWAZlmI5lmRZlmZ5lmiZlmq5lmzZlm75lnAZl/cXEAA7;" vertex="1" parent="7">
                    <mxGeometry x="345" y="130" width="330" height="247.5" as="geometry"/>
                </mxCell>
                <mxCell id="17" value="&lt;font style=&quot;font-size: 24px;&quot;&gt;Guess The Number Program&lt;/font&gt;" style="whiteSpace=wrap;html=1;" vertex="1" parent="7">
                    <mxGeometry x="215" y="60" width="280" height="70" as="geometry"/>
                </mxCell>
            </root>
        </mxGraphModel>
    </diagram>
</mxfile>